<svg width="309" height="378" viewBox="0 0 309 378" fill="none" xmlns="http://www.w3.org/2000/svg">
<path d="M28.0699 275.139C27.6319 275.539 26.5652 275.739 24.8699 275.739H3.71486C1.43886 275.739 0.514859 274.739 0.983859 272.754L18.0839 199.717C18.9516 196.059 20.2813 192.526 22.0409 189.203C23.8203 185.79 26.1778 182.711 29.0089 180.103C32.0307 177.361 35.5428 175.213 39.3609 173.773C43.8237 172.107 48.5611 171.299 53.3239 171.392H98.6539C99.8539 171.392 100.58 171.576 100.843 171.926C101.106 172.276 101.043 173.283 100.65 174.972L96.7109 191.815C96.5709 192.784 96.1511 193.691 95.5029 194.424C94.8114 194.932 93.9573 195.169 93.1029 195.089H56.2929C54.6003 195.037 52.914 195.317 51.3289 195.912C50.1512 196.353 49.0779 197.034 48.1769 197.912C47.4074 198.688 46.7871 199.599 46.3469 200.6C45.9276 201.561 45.593 202.557 45.3469 203.576L43.1969 212.833H82.3969C83.5879 212.833 84.3139 213.043 84.5679 213.433C84.8219 213.833 84.7519 214.886 84.3579 216.567L80.7249 232.067C80.1909 234.343 78.9829 235.499 77.0919 235.499H37.8919L29.1609 272.758C29.029 273.64 28.6528 274.468 28.0749 275.148" fill="#E80024"/>
<path d="M190.146 223.419C188.387 231.208 185.716 238.763 182.188 245.926C179.073 252.268 174.877 258.018 169.788 262.918C164.793 267.635 158.894 271.289 152.446 273.659C145.182 276.242 137.515 277.502 129.807 277.38C121.753 277.38 115.053 276.163 109.707 273.729C104.674 271.559 100.454 267.855 97.6518 263.145C94.9645 258.523 93.4761 252.879 93.1868 246.214C93.0048 238.633 93.8498 231.062 95.6988 223.707C97.4561 215.973 100.235 208.508 103.963 201.507C107.324 195.154 111.693 189.389 116.902 184.436C121.893 179.737 127.742 176.042 134.13 173.554C140.931 170.96 148.159 169.67 155.438 169.754C163.492 169.754 170.177 171.021 175.494 173.554C180.555 175.858 184.816 179.618 187.732 184.354C190.697 189.513 192.331 195.328 192.486 201.276C192.741 208.729 191.951 216.182 190.14 223.416M160.428 223.556C161.211 219.895 161.754 216.187 162.056 212.456C162.374 209.386 162.171 206.284 161.456 203.282C160.858 200.849 159.481 198.678 157.534 197.101C155.608 195.56 152.912 194.781 149.428 194.781C146.564 194.779 143.753 195.554 141.295 197.022C138.675 198.589 136.376 200.639 134.519 203.062C132.418 205.787 130.671 208.766 129.319 211.93C127.813 215.339 126.632 218.883 125.791 222.514C124.81 226.58 124.141 230.716 123.791 234.884C123.475 238.015 123.748 241.177 124.596 244.207C125.271 246.58 126.726 248.657 128.726 250.102C131.114 251.621 133.919 252.353 136.745 252.194C139.816 252.245 142.841 251.442 145.482 249.874C148.111 248.264 150.384 246.134 152.162 243.615C154.182 240.786 155.829 237.708 157.062 234.458C158.446 230.914 159.572 227.274 160.432 223.568" fill="#E80024"/>
<path d="M232.123 219.243L219.377 272.6C219.237 273.503 218.86 274.352 218.283 275.06C217.819 275.507 216.751 275.725 215.061 275.725H193.895C191.602 275.725 190.706 274.68 191.207 272.591L212.559 183.157C213.671 178.491 215.185 175.348 217.111 173.764C219.019 172.179 222.075 171.383 226.242 171.383H233.995C235.276 171.373 236.557 171.446 237.829 171.602C238.817 171.733 239.774 172.038 240.657 172.502C241.552 172.996 242.328 173.678 242.933 174.502C243.758 175.624 244.473 176.824 245.069 178.083L258.778 209.983L266.062 228.166H267.113L279.913 174.502C280.063 173.599 280.446 172.751 281.025 172.042C281.48 171.596 282.548 171.377 284.238 171.377H305.415C307.691 171.377 308.602 172.428 308.094 174.511L286.742 263.953C286.075 267.048 284.673 269.937 282.654 272.375C280.728 274.616 277.53 275.737 273.059 275.737H265.303C264.05 275.747 262.799 275.674 261.556 275.518C260.536 275.396 259.546 275.094 258.632 274.625C257.721 274.116 256.921 273.432 256.277 272.612C255.431 271.518 254.739 270.314 254.22 269.032L240.676 237.734L233.176 219.254H232.125L232.123 219.243Z" fill="#E80024"/>
<path d="M3.6709 335.377H11.8829C16.2509 335.377 19.2369 332.663 19.2369 328.785C19.2369 324.907 16.2609 322.263 11.8829 322.263H7.1809V316.669H17.4409V313.526H3.6709V335.377ZM7.1809 332.295V325.274H11.7509C17.0819 325.274 17.0819 332.295 11.7509 332.295H7.1809ZM24.1989 319.12L24.1289 323.191C24.1969 325.595 23.9645 327.997 23.4369 330.343C23.0079 331.805 22.3079 332.532 21.3529 332.532C21.2529 332.532 21.0529 332.497 20.6879 332.462V335.377C21.0941 335.514 21.5203 335.581 21.9489 335.577C22.8352 335.608 23.7087 335.359 24.4457 334.865C25.1826 334.372 25.7456 333.659 26.0549 332.828C26.8549 331.007 27.3159 327.996 27.4119 323.759L27.4379 322.131H32.6729V335.376H36.1479V319.12H24.1989ZM54.1309 325.546C54.1309 321.274 51.5479 318.761 47.4779 318.761C46.1327 318.701 44.7947 318.989 43.5936 319.598C42.3926 320.206 41.3693 321.115 40.6229 322.236L42.6449 324.284C43.1611 323.565 43.835 322.973 44.6149 322.555C45.3949 322.136 46.2603 321.901 47.1449 321.868C47.6141 321.815 48.0891 321.869 48.5348 322.025C48.9804 322.181 49.3852 322.435 49.7191 322.769C50.0529 323.103 50.3073 323.508 50.4632 323.953C50.6192 324.399 50.6727 324.874 50.6199 325.343V326.406H46.0199C42.3429 326.406 40.0199 328.227 40.0199 331.046C40.0199 333.865 42.2699 335.746 45.6839 335.746C46.6603 335.803 47.6367 335.635 48.5381 335.256C49.4396 334.876 50.242 334.295 50.8839 333.557V335.378H54.1309V325.546ZM50.6309 329.223C50.6047 330.267 50.1664 331.258 49.4119 331.98C48.6574 332.701 47.6479 333.095 46.6039 333.075H46.4289C44.7039 333.075 43.5839 332.243 43.5839 330.921C43.5839 329.599 44.5469 328.934 46.4639 328.934H50.6309V329.234V329.223ZM59.0089 335.377H62.5189V322.131H70.4679V319.12H59.0069L59.0089 335.377ZM72.0609 327.235C72.0614 328.355 72.2827 329.463 72.7122 330.497C73.1416 331.531 73.7707 332.47 74.5635 333.26C75.3563 334.05 76.2972 334.677 77.3323 335.103C78.3674 335.529 79.4764 335.747 80.5959 335.744H80.6399C82.8977 335.777 85.0762 334.912 86.6965 333.34C88.3167 331.767 89.2459 329.615 89.2799 327.357V327.234C89.2717 324.979 88.3679 322.819 86.7673 321.23C85.1667 319.64 83.0004 318.752 80.7449 318.76H80.6399C78.3939 318.732 76.2287 319.597 74.6201 321.164C73.0114 322.732 72.0909 324.874 72.0609 327.12V327.225V327.235ZM85.6999 327.27C85.7433 328.62 85.2498 329.931 84.3275 330.918C83.4052 331.904 82.1294 332.484 80.7799 332.531H80.6309C79.9613 332.547 79.2961 332.42 78.6802 332.157C78.0643 331.893 77.5121 331.501 77.0609 331.006C76.1348 329.968 75.623 328.625 75.623 327.233C75.623 325.842 76.1348 324.499 77.0609 323.46C77.5187 322.964 78.0774 322.571 78.6996 322.308C79.3217 322.046 79.9928 321.919 80.6679 321.937C82.0261 321.961 83.3195 322.522 84.2635 323.499C85.2075 324.476 85.7249 325.788 85.7019 327.146V327.269L85.6999 327.27ZM96.2309 335.385H99.7059V322.14H104.932V319.129H90.9949V322.14H96.2299L96.2309 335.385ZM121.96 330.448C121.994 329.588 121.737 328.742 121.233 328.045C120.728 327.348 120.003 326.841 119.176 326.605C119.656 326.26 120.044 325.801 120.304 325.27C120.563 324.738 120.687 324.15 120.664 323.559C120.664 320.906 118.414 319.121 115.201 319.121H108.049V335.378H116.161C119.601 335.378 121.961 333.356 121.961 330.441L121.96 330.448ZM111.46 321.948H115.067C116.625 321.948 117.387 322.548 117.387 323.769C117.387 324.99 116.625 325.625 115.067 325.625H111.461L111.46 321.948ZM118.647 330.387C118.647 331.709 117.553 332.602 115.837 332.602H111.471V328.295H115.839C117.59 328.295 118.649 329.083 118.649 330.379L118.647 330.387ZM125.169 327.244C125.169 328.364 125.391 329.472 125.82 330.506C126.25 331.54 126.879 332.479 127.671 333.269C128.464 334.059 129.405 334.686 130.44 335.112C131.475 335.538 132.584 335.756 133.704 335.753H133.748C136.006 335.786 138.184 334.921 139.804 333.349C141.425 331.776 142.354 329.624 142.388 327.366V327.243C142.38 324.988 141.476 322.828 139.875 321.239C138.275 319.649 136.108 318.761 133.853 318.769H133.748C131.502 318.741 129.337 319.606 127.728 321.173C126.119 322.741 125.199 324.883 125.169 327.129V327.234V327.244ZM138.808 327.279C138.851 328.629 138.358 329.94 137.435 330.927C136.513 331.913 135.237 332.493 133.888 332.54H133.739C133.068 332.556 132.402 332.428 131.784 332.166C131.167 331.903 130.613 331.511 130.159 331.017C129.233 329.979 128.721 328.636 128.721 327.244C128.721 325.853 129.233 324.51 130.159 323.471C130.617 322.975 131.175 322.582 131.798 322.319C132.42 322.057 133.091 321.93 133.766 321.948C135.124 321.972 136.417 322.533 137.361 323.51C138.305 324.487 138.823 325.799 138.8 327.157V327.28L138.808 327.279ZM163.241 327.244C163.241 322.444 159.862 318.77 155.257 318.77C154.165 318.696 153.073 318.901 152.082 319.365C151.091 319.829 150.235 320.537 149.593 321.423V319.138H146.345V341.348H149.82V333.399C150.493 334.17 151.329 334.78 152.268 335.186C153.208 335.592 154.226 335.783 155.248 335.745C159.848 335.745 163.223 332.103 163.223 327.236L163.241 327.244ZM154.697 332.575C151.948 332.575 149.797 330.658 149.797 327.244C149.797 323.83 151.951 321.944 154.697 321.944C161.28 321.944 161.28 332.563 154.697 332.563V332.575ZM180.297 318.77L170.79 329.293V319.129H167.28V335.753H168.506L177.978 325.292V335.386H181.488V318.761H180.297V318.77ZM189.83 335.394H193.305V322.149H198.54V319.138H184.595V322.149H189.83V335.394ZM216.225 328.406C216.382 327.687 216.471 326.954 216.488 326.217C216.504 325.254 216.33 324.297 215.977 323.401C215.623 322.506 215.096 321.688 214.426 320.996C213.756 320.304 212.956 319.751 212.072 319.369C211.188 318.986 210.237 318.782 209.274 318.767H208.968C207.867 318.763 206.776 318.975 205.757 319.393C204.739 319.81 203.812 320.424 203.031 321.2C202.25 321.976 201.629 322.898 201.204 323.913C200.779 324.929 200.559 326.018 200.555 327.119V327.277C200.554 329.524 201.445 331.679 203.033 333.27C204.62 334.86 206.773 335.756 209.02 335.76H209.3C210.501 335.777 211.693 335.554 212.807 335.104C213.921 334.655 214.934 333.988 215.787 333.142L214.132 330.761C212.859 331.986 211.162 332.672 209.396 332.678C208.138 332.76 206.895 332.367 205.913 331.575C204.931 330.784 204.283 329.653 204.096 328.406H216.212H216.225ZM204.17 325.692C204.356 324.587 204.926 323.583 205.78 322.856C206.633 322.129 207.715 321.726 208.836 321.718C209.352 321.686 209.869 321.756 210.358 321.924C210.847 322.092 211.297 322.355 211.685 322.698C212.072 323.04 212.387 323.456 212.614 323.921C212.84 324.385 212.972 324.89 213.003 325.406V325.695H204.161L204.17 325.692ZM221.819 319.135L221.749 323.206C221.817 325.61 221.584 328.012 221.057 330.358C220.628 331.82 219.928 332.547 218.973 332.547C218.873 332.547 218.673 332.512 218.308 332.477V335.392C218.714 335.529 219.14 335.596 219.569 335.592C220.455 335.623 221.329 335.374 222.066 334.88C222.803 334.387 223.366 333.674 223.675 332.843C224.475 331.022 224.936 328.011 225.032 323.774L225.067 322.154H230.302V335.406H233.777V319.146H221.827L221.819 319.135ZM238.872 335.392H245.788C249.631 335.392 252.179 333.238 252.179 329.833C252.209 329.073 252.064 328.315 251.754 327.62C251.445 326.925 250.979 326.31 250.393 325.824C249.105 324.757 247.463 324.214 245.793 324.301H242.379V319.136H238.861V335.393L238.872 335.392ZM242.391 332.372V327.306H245.63C249.604 327.306 249.771 332.375 245.665 332.375H242.391V332.372ZM256.231 335.383H259.742V328.362H266.728V335.383H270.203V319.129H266.728V325.353H259.742V319.129H256.231V335.383ZM288.184 325.552C288.184 321.28 285.601 318.767 281.531 318.767C280.186 318.707 278.848 318.995 277.647 319.604C276.446 320.212 275.422 321.121 274.676 322.242L276.698 324.29C277.214 323.571 277.888 322.979 278.668 322.56C279.448 322.141 280.313 321.907 281.198 321.874C281.667 321.821 282.142 321.875 282.588 322.031C283.033 322.187 283.438 322.441 283.772 322.775C284.106 323.109 284.36 323.514 284.516 323.959C284.672 324.405 284.726 324.88 284.673 325.349V326.408H280.073C276.396 326.408 274.073 328.229 274.073 331.048C274.073 333.867 276.323 335.748 279.737 335.748C280.713 335.805 281.69 335.637 282.591 335.258C283.493 334.878 284.295 334.297 284.937 333.559V335.38H288.167V325.549L288.184 325.552ZM284.684 329.229C284.658 330.273 284.219 331.264 283.465 331.986C282.71 332.707 281.701 333.101 280.657 333.081H280.482C278.757 333.081 277.637 332.249 277.637 330.927C277.637 329.605 278.6 328.94 280.517 328.94H284.693V329.24L284.684 329.229ZM298.884 319.135C295.146 319.135 292.721 321.254 292.721 324.535C292.708 325.642 293.057 326.723 293.715 327.614C294.372 328.505 295.302 329.157 296.363 329.472L291.695 335.406H295.704L299.904 329.943H302.32V335.406H305.795V319.146H298.879L298.884 319.135ZM302.324 326.979H299.076C295.338 326.979 295.338 322.147 299.041 322.147H302.315V326.979H302.324Z" fill="#E80024"/>
<path d="M68.4529 371.602H71.9629V358.356H78.7479V371.601H82.2579V355.345H68.4529V371.602ZM104.214 363.46C104.214 358.66 100.835 354.986 96.2299 354.986C95.1383 354.912 94.046 355.117 93.0552 355.581C92.0645 356.045 91.2079 356.753 90.5659 357.639V355.354H87.3179V377.564H90.7929V369.615C91.4657 370.386 92.3023 370.996 93.2414 371.402C94.1805 371.808 95.1985 371.999 96.2209 371.961C100.821 371.961 104.205 368.319 104.205 363.452L104.214 363.46ZM95.6699 368.791C92.9209 368.791 90.7699 366.874 90.7699 363.46C90.7699 360.046 92.9239 358.16 95.6699 358.16C102.262 358.16 102.262 368.788 95.6699 368.788V368.791ZM107.191 363.46C107.164 365.163 107.643 366.836 108.566 368.267C109.49 369.697 110.818 370.822 112.381 371.499C113.944 372.175 115.672 372.373 117.348 372.067C119.023 371.761 120.57 370.965 121.793 369.78C123.016 368.595 123.86 367.074 124.219 365.409C124.577 363.744 124.434 362.01 123.807 360.426C123.18 358.843 122.098 357.481 120.697 356.512C119.296 355.544 117.639 355.013 115.936 354.986H115.77C114.651 354.978 113.541 355.191 112.504 355.612C111.467 356.033 110.523 356.655 109.726 357.441C108.93 358.227 108.296 359.163 107.861 360.194C107.426 361.225 107.198 362.332 107.191 363.451V363.469V363.46ZM120.83 363.495C120.873 364.845 120.38 366.157 119.457 367.143C118.535 368.129 117.259 368.709 115.91 368.756H115.761C115.091 368.773 114.426 368.646 113.809 368.383C113.193 368.12 112.64 367.728 112.189 367.233C111.263 366.195 110.751 364.852 110.751 363.46C110.751 362.069 111.263 360.726 112.189 359.687C112.647 359.191 113.205 358.798 113.828 358.535C114.45 358.273 115.121 358.146 115.796 358.164C116.469 358.175 117.133 358.318 117.75 358.586C118.367 358.854 118.926 359.241 119.393 359.725C119.861 360.208 120.228 360.78 120.475 361.406C120.721 362.032 120.842 362.7 120.83 363.373V363.496V363.495ZM128.411 371.61H131.921V358.365H139.87V355.354H128.411V371.61ZM159.961 363.469C159.961 358.669 156.582 354.995 151.986 354.995C150.894 354.921 149.802 355.126 148.811 355.59C147.82 356.054 146.964 356.762 146.322 357.648V355.363H143.074V377.573H146.549V369.624C147.222 370.395 148.058 371.005 148.997 371.411C149.937 371.817 150.954 372.008 151.977 371.97C156.577 371.97 159.961 368.328 159.961 363.461V363.469ZM151.417 368.8C148.668 368.8 146.517 366.883 146.517 363.469C146.517 360.055 148.671 358.169 151.417 358.169C158.009 358.172 158.009 368.8 151.417 368.8ZM176.874 361.779C176.874 357.507 174.291 354.994 170.221 354.994C168.876 354.934 167.538 355.222 166.337 355.831C165.136 356.439 164.112 357.348 163.366 358.469L165.388 360.526C165.904 359.807 166.578 359.215 167.358 358.797C168.138 358.378 169.003 358.143 169.888 358.11C170.357 358.057 170.832 358.111 171.278 358.267C171.723 358.423 172.128 358.677 172.462 359.011C172.796 359.345 173.05 359.75 173.206 360.195C173.362 360.641 173.416 361.116 173.363 361.585V362.644H168.763C165.086 362.644 162.763 364.465 162.763 367.284C162.763 370.103 165.013 371.984 168.427 371.984C169.403 372.041 170.38 371.873 171.281 371.494C172.183 371.114 172.985 370.533 173.627 369.795V371.616H176.875V361.788L176.874 361.779ZM173.364 365.456C173.338 366.5 172.899 367.491 172.145 368.213C171.39 368.934 170.381 369.328 169.337 369.308H169.162C167.437 369.308 166.317 368.476 166.317 367.154C166.317 365.832 167.28 365.167 169.197 365.167H173.364V365.467V365.456ZM181.743 371.608H185.253V362.241L189.989 367.741H191.215L195.986 362.208V371.608H199.461V354.986H198.305L190.628 363.828L182.977 354.986H181.751V371.608H181.743ZM204.557 371.608H208.067V362.241L212.803 367.741H214.029L218.8 362.208V371.608H222.275V354.986H221.119L213.443 363.828L205.792 354.986H204.566V371.608H204.557ZM240.243 361.779C240.243 357.507 237.66 354.994 233.59 354.994C232.245 354.934 230.907 355.222 229.706 355.831C228.505 356.439 227.481 357.348 226.735 358.469L228.757 360.526C229.273 359.807 229.947 359.215 230.727 358.797C231.507 358.378 232.372 358.143 233.257 358.11C233.726 358.057 234.201 358.111 234.647 358.267C235.092 358.423 235.497 358.677 235.831 359.011C236.165 359.345 236.419 359.75 236.575 360.195C236.731 360.641 236.785 361.116 236.732 361.585V362.644H232.132C228.455 362.644 226.132 364.465 226.132 367.284C226.132 370.103 228.382 371.984 231.796 371.984C232.772 372.041 233.749 371.873 234.65 371.494C235.552 371.114 236.354 370.533 236.996 369.795V371.616H240.243V361.788V361.779ZM236.733 365.456C236.707 366.5 236.268 367.491 235.514 368.213C234.759 368.934 233.75 369.328 232.706 369.308H232.531C230.806 369.308 229.686 368.476 229.686 367.154C229.686 365.832 230.649 365.167 232.566 365.167H236.733V365.467V365.456Z" fill="#E80024"/>
<path d="M21.1539 150.382C20.7599 151.611 19.9525 152.666 18.8689 153.367C17.8293 154.091 16.5904 154.473 15.3239 154.461C14.5575 154.532 13.7923 154.313 13.1789 153.848C12.2526 153.476 11.4779 152.805 10.9789 151.94C10.46 151.058 10.0624 150.11 9.79692 149.121C9.52418 148.104 9.35103 147.063 9.27992 146.013C9.2139 145.044 9.08631 144.081 8.89792 143.128C8.90692 142.358 8.89792 141.57 8.86292 140.756C8.82792 139.942 8.81892 139.101 8.83692 138.235C8.85362 136.68 9.07451 135.133 9.49392 133.635C9.71006 132.911 10.0684 132.236 10.5479 131.652C11.0274 131.067 11.6186 130.584 12.2869 130.23C12.9453 129.68 13.7118 129.274 14.5369 129.039C15.3599 128.811 16.1739 128.61 16.9969 128.439C17.7705 128.276 18.5225 128.023 19.2379 127.686C20.0143 127.256 20.6314 126.587 20.9979 125.778C22.8799 122.355 27.7039 113.338 29.9799 108.698C32.2559 104.058 33.5279 99.5281 34.7279 96.7181C35.9279 93.9081 37.7919 89.7321 40.1729 82.7461C42.5539 75.7601 43.1489 74.5781 44.2609 68.7461C45.3729 62.9141 46.0609 60.2811 48.1609 56.7881C49.5013 54.2836 51.5425 52.224 54.0349 50.8612C56.1838 49.618 58.5675 48.8348 61.0349 48.5611C62.701 48.4399 64.3726 48.4105 66.0419 48.4731C67.4872 48.4612 68.925 48.6824 70.2999 49.1281C71.7858 49.7494 72.9979 50.8855 73.7139 52.3281C74.709 53.9331 75.2252 55.7889 75.2019 57.6772C75.3679 59.7772 75.4019 65.7831 75.6309 69.1451C75.8599 72.5071 76.0309 76.2971 76.1559 80.5261C76.5413 91.9501 76.6346 103.319 76.4359 114.633C76.4062 116.34 76.473 118.047 76.6359 119.746C76.8019 121.427 77.0119 123.09 77.2749 124.718C78.6229 124.648 79.7259 124.543 80.5929 124.412C81.7399 124.272 82.8959 124.219 84.0509 124.254C85.3051 124.622 86.4542 125.282 87.4039 126.18C87.9006 126.583 88.3017 127.091 88.5783 127.668C88.855 128.245 89.0004 128.876 89.0039 129.515C88.7868 131.473 88.4417 133.415 87.9709 135.328C87.5069 137.184 87.0429 139.028 86.5789 140.843C86.1149 142.658 85.7039 144.502 85.3359 146.358C84.9612 148.324 84.7605 150.319 84.7359 152.32C84.6668 152.801 84.4921 153.261 84.2243 153.667C83.9565 154.072 83.6022 154.414 83.1869 154.666C82.44 155.315 81.5753 155.814 80.6399 156.137C80.3219 156.27 79.9735 156.312 79.6329 156.26C78.7924 156.231 77.9666 156.031 77.2064 155.671C76.4461 155.311 75.7674 154.8 75.2119 154.168C74.3713 153.104 73.7792 151.866 73.4789 150.544C73.1614 149.173 73.0173 147.767 73.0499 146.359C73.0734 144.841 73.2199 143.328 73.4879 141.833C73.7509 140.354 74.0399 138.988 74.3459 137.745C73.3919 137.631 72.4289 137.545 71.4749 137.482C70.5209 137.419 69.5139 137.377 68.4549 137.359C64.2683 137.289 60.0814 137.482 55.9189 137.937C51.6909 138.392 47.4129 138.921 43.0849 139.522C40.0036 140.143 37.0943 140.645 34.3569 141.028C31.5181 141.422 28.6523 141.589 25.7869 141.528C25.0169 141.519 24.2549 141.475 23.4869 141.414C22.7189 141.353 21.9109 141.265 21.0529 141.16C21.0179 142.981 21.0529 144.347 21.1229 145.266C21.2109 146.439 21.2369 147.621 21.2109 148.794L21.1849 150.379L21.1539 150.382ZM32.2979 129.564C35.2746 129.52 38.1079 129.353 40.7979 129.064C43.4879 128.775 46.1312 128.437 48.7279 128.05C51.3279 127.665 53.9716 127.326 56.6589 127.034C59.3462 126.742 62.1796 126.575 65.1589 126.534C64.5636 116.064 64.2076 105.769 64.0909 95.6492C63.9769 85.5292 65.0629 72.0911 64.6689 61.6301C62.2179 62.9691 56.0109 63.3811 56.0109 63.3811C56.0109 63.3811 51.3999 83.6571 49.4039 88.2281C47.0399 94.3821 43.7219 103.528 41.1219 110.009C38.5219 116.49 35.5719 123.009 32.2979 129.575V129.564ZM144.65 106.006C143.208 109.254 141.417 112.336 139.31 115.198C137.376 117.858 135.137 120.282 132.639 122.42C130.343 124.388 127.742 125.97 124.939 127.104C122.261 128.196 119.391 128.735 116.5 128.689C114.14 128.573 111.826 127.995 109.689 126.989C107.044 125.811 104.635 124.164 102.577 122.128C100.275 119.869 98.3742 117.234 96.9569 114.337C95.3729 111.032 94.6178 107.39 94.7569 103.727C94.9091 99.9936 95.5778 96.2992 96.7439 92.7491C97.985 88.6626 99.6423 84.7142 101.69 80.9661C103.535 77.5054 105.893 74.3442 108.685 71.5901C111.32 69.0428 114.028 67.7938 116.809 67.8431C117.374 67.8323 117.934 67.9396 118.455 68.1581C118.884 68.3581 119.355 68.6042 119.882 68.9022C120.409 69.2002 121.046 69.5942 121.808 70.0842C122.811 70.7054 123.859 71.2525 124.942 71.7212C125.8 72.1152 126.772 72.5442 127.875 72.9992C128.978 73.4542 130.282 73.9271 131.806 74.4351C134.549 75.3652 137.002 76.9944 138.923 79.1621C140.756 81.2312 142.269 83.5622 143.414 86.0781C144.471 88.3818 145.228 90.8122 145.664 93.3091C146.014 95.1861 146.198 97.09 146.216 98.9991C146.251 101.429 145.718 103.833 144.658 106.02L144.65 106.006ZM133.314 95.8781C132.903 92.0351 133.008 90.6341 131.948 88.2711C130.888 85.9081 128.578 84.3581 127.685 84.2441C126.645 84.1197 125.592 84.167 124.568 84.3841C123.634 84.5948 122.807 85.1356 122.239 85.9071C121.679 86.6508 121.19 87.4449 120.777 88.2791C120.225 89.2591 119.49 90.9051 118.072 90.9491C117.302 90.9401 115.63 89.3031 114.588 88.5151C113.762 87.9431 112.792 87.6155 111.788 87.5701C111.244 87.6255 110.721 87.8051 110.258 88.095C109.795 88.3849 109.405 88.7774 109.118 89.2421C108.39 90.3204 107.823 91.4996 107.437 92.7421C106.999 94.0831 106.694 95.4642 106.527 96.8651C106.385 98.2028 106.362 99.5504 106.457 100.892C106.387 103.198 106.737 105.497 107.49 107.677C108.135 109.529 109.024 111.286 110.134 112.903C110.95 114.261 111.965 115.489 113.145 116.545C114.239 117.333 116.962 119.915 118.187 119.959C119.246 120.003 121.374 117.972 123.037 116.396C124.701 114.748 126.279 113.016 127.764 111.205C129.355 109.203 130.667 106.994 131.664 104.639C132.706 102.342 133.258 99.8519 133.284 97.3291L133.319 95.8852L133.314 95.8781ZM215.482 150.522C213.775 149.533 212.882 148.462 212.803 147.309C212.374 144.227 212.068 140.945 211.893 137.434C211.718 133.923 211.657 130.256 211.718 126.421C211.805 121.335 212.223 113.763 212.97 103.704C213.717 93.6455 214.135 86.0265 214.222 80.8471C214.38 73.9669 214.064 67.084 213.277 60.2472C213.198 60.2433 213.12 60.2682 213.058 60.3172C213.028 60.3432 212.993 60.3629 212.956 60.375C212.918 60.387 212.878 60.3911 212.839 60.3872C212.261 60.3782 211.701 59.8352 211.139 58.7762C210.735 57.9362 210.159 57.1905 209.449 56.5871C209.983 53.5231 210.823 52.0091 211.97 52.0261C212.873 51.8571 213.791 51.775 214.71 51.7811C215.48 51.7901 216.391 51.8601 217.441 51.9741C218.491 52.0881 219.641 52.2541 220.89 52.4641C233.33 54.6875 242.636 60.3135 248.807 69.3421C250.767 72.2381 251.766 75.6777 251.661 79.1731C251.607 82.6136 250.762 85.9955 249.192 89.0571C245.41 96.8571 242.203 102.031 239.571 104.578L232.839 111.078C230.405 113.059 227.512 114.396 224.426 114.965C223.951 117.183 223.719 119.447 223.734 121.715C223.699 123.536 223.795 126.32 224.023 130.067C224.25 133.718 224.35 136.405 224.323 138.13C224.218 144.555 222.601 149.42 219.473 152.723L218.473 152.123L215.479 150.495L215.482 150.522ZM240.046 76.6881C240.107 73.2388 238.523 70.5745 235.292 68.6952C234.625 68.3978 233.767 68.0478 232.718 67.6451C231.86 67.2511 230.792 66.7961 229.505 66.2971C228.218 65.7981 226.721 65.1412 225.005 64.3452C225.276 70.9718 225.466 76.8021 225.574 81.8361C225.679 86.8781 225.705 91.2121 225.644 94.8621L225.583 98.4621C225.57 99.4714 225.505 100.479 225.39 101.482C234.065 93.5768 238.947 85.6978 240.036 77.8452L240.054 76.6981L240.046 76.6881Z" fill="#E80024"/>
<path d="M306.858 108.458C305.415 111.706 303.625 114.788 301.518 117.65C299.584 120.31 297.345 122.734 294.847 124.872C292.551 126.84 289.95 128.422 287.147 129.556C284.467 130.649 281.593 131.188 278.699 131.141C276.339 131.025 274.025 130.447 271.888 129.441C269.244 128.261 266.836 126.612 264.78 124.574C262.478 122.315 260.577 119.68 259.16 116.783C257.576 113.478 256.821 109.836 256.96 106.173C257.113 102.443 257.778 98.7523 258.938 95.2041C260.178 91.1165 261.835 87.1672 263.883 83.4181C265.727 79.9573 268.086 76.7961 270.878 74.0421C273.513 71.4948 276.221 70.2458 279.002 70.2951C279.566 70.2843 280.127 70.3916 280.648 70.6101C281.077 70.8101 281.548 71.0561 282.075 71.3541C282.602 71.6521 283.239 72.0461 284.001 72.5361C285.006 73.1591 286.057 73.7063 287.144 74.1731C288.002 74.5671 288.974 74.9961 290.077 75.4511C291.18 75.9061 292.484 76.3791 294.008 76.8871C296.75 77.8189 299.202 79.4495 301.121 81.6181C302.954 83.6871 304.467 86.0181 305.612 88.5341C306.669 90.8378 307.426 93.2681 307.862 95.7651C308.212 97.642 308.396 99.546 308.414 101.455C308.448 103.885 307.915 106.289 306.856 108.476L306.858 108.458ZM295.521 98.3291C295.11 94.4861 295.215 93.0851 294.155 90.7221C293.095 88.3591 290.785 86.8091 289.892 86.6951C288.852 86.5707 287.799 86.618 286.775 86.8351C285.84 87.0457 285.013 87.5865 284.446 88.3581C283.886 89.1018 283.397 89.8959 282.984 90.7301C282.432 91.7101 281.697 93.3561 280.279 93.4001C279.509 93.3911 277.837 91.7541 276.795 90.9661C275.969 90.394 274.999 90.0665 273.995 90.0211C273.451 90.0765 272.928 90.2561 272.465 90.546C272.002 90.8359 271.612 91.2284 271.325 91.6931C270.597 92.7714 270.03 93.9506 269.644 95.1931C269.205 96.5341 268.901 97.9151 268.734 99.3161C268.592 100.654 268.569 102.001 268.664 103.343C268.593 105.646 268.943 107.942 269.697 110.119C270.342 111.971 271.231 113.728 272.341 115.345C273.157 116.703 274.172 117.931 275.352 118.987C276.446 119.775 279.169 122.357 280.395 122.401C281.454 122.445 283.582 120.414 285.245 118.838C286.909 117.19 288.486 115.458 289.972 113.647C291.563 111.645 292.875 109.436 293.872 107.081C294.914 104.784 295.466 102.294 295.492 99.7711L295.518 98.3271L295.521 98.3291Z" fill="#E80024"/>
<path d="M179.869 135.412C177.058 134.913 174.394 133.795 172.069 132.138C167.713 129.183 164.194 125.153 161.853 120.438L161.608 119.948C160.165 117.055 159.058 114.006 158.308 110.861C157.461 107.554 156.8 104.202 156.328 100.821C155.857 97.3875 155.863 93.9051 156.346 90.4731C157.014 86.1672 158.226 81.9635 159.953 77.9631C161.686 73.1041 168.024 65.3041 172.41 61.7501C172.261 61.4701 172.11 61.2071 171.972 60.9361C171.372 59.8361 170.755 58.6951 170.177 57.5661C168.7 54.7906 167.419 51.9153 166.343 48.9611C165.248 45.9572 164.55 42.823 164.268 39.6381C163.852 34.3671 165.429 29.132 168.688 24.9681C170.772 22.1491 172.978 19.3571 175.114 16.6511C176.558 14.8211 178.055 12.9221 179.5 11.0401L179.526 11.0051C181.637 8.50302 183.184 5.57519 184.062 2.42113L184.08 2.35113L184.106 2.29013C184.371 1.70745 184.773 1.19763 185.278 0.804245C185.783 0.410855 186.376 0.145591 187.006 0.0311259H187.059L187.108 0.0211259C191.223 -0.214874 194.47 1.88613 197.596 3.92113L197.762 4.02613C197.971 4.19163 198.141 4.40157 198.259 4.64076C198.377 4.87995 198.441 5.1424 198.445 5.40913C198.492 5.86038 198.432 6.31634 198.27 6.74013C198.104 7.11613 197.946 7.50213 197.78 7.91313C197.27 9.38508 196.522 10.7631 195.565 11.9921C192.58 15.4321 189.437 18.8291 186.399 22.1121C185.016 23.6121 183.589 25.1501 182.199 26.6731C180.623 28.4061 179.039 30.1831 177.507 31.9171C177.113 32.3551 176.728 32.7921 176.334 33.2301L176.316 33.2481C175.308 34.3223 174.584 35.631 174.209 37.0557C173.835 38.4804 173.822 39.9761 174.171 41.4071V41.4421C174.991 45.4249 176.205 49.3163 177.795 53.0591C179.513 56.5936 181.409 60.0384 183.477 63.3801C185.114 66.1201 186.795 68.9561 188.143 71.6091C188.931 73.0801 189.771 74.5501 190.594 75.9691C194.694 83.0771 198.919 90.4221 199.742 104.044C200.012 107.772 199.945 111.516 199.542 115.232C199.133 119.002 198.147 122.687 196.618 126.157C195.814 128.047 194.718 129.799 193.37 131.348C191.956 132.929 190.181 134.145 188.196 134.893C187.143 135.279 186.046 135.532 184.931 135.646C183.239 135.813 181.531 135.733 179.862 135.41L179.869 135.412ZM172.188 77.7301C170.658 79.6268 169.394 81.7239 168.432 83.9631C166.671 88.3626 166.085 93.1446 166.732 97.8391C166.767 98.1451 168.413 110.865 173.403 115.239C174.381 116.158 175.536 116.869 176.797 117.33C178.058 117.79 179.399 117.99 180.739 117.918C182.887 117.757 184.887 116.765 186.315 115.152C186.455 114.898 186.595 114.652 186.735 114.408C187.059 113.839 187.374 113.296 187.635 112.736C189.008 109.397 189.658 105.805 189.543 102.196V102.161C189.602 98.7841 189.142 95.418 188.177 92.1811C187.405 89.813 186.435 87.5141 185.277 85.3091C185.006 84.7661 184.752 84.2501 184.507 83.7331C183.432 81.5644 182.081 79.5437 180.488 77.7211C178.825 75.8831 177.301 74.9281 176.198 75.0211H176.145C174.937 75.1611 173.571 76.0891 172.188 77.7261V77.7301Z" fill="#E80024"/>
</svg>
