<svg xmlns="http://www.w3.org/2000/svg"><symbol fill="none" id="icon-arrow-back" viewBox="0 0 56 35"><path d="M53 18H3m16 14L3 18M19 3 3 18" stroke="#E80024" stroke-width="6" stroke-linecap="round"/></symbol><symbol fill="none" id="icon-arrow-right-bottom" viewBox="0 0 57 57"><path d="m14.142 14.142 28.284 28.284" stroke="currentColor" stroke-width="6" stroke-linecap="round"/><path d="M14.142 42.426h28.284V14.142" stroke="currentColor" stroke-width="6" stroke-linecap="round" stroke-linejoin="round"/></symbol><symbol fill="none" id="icon-tg" viewBox="0 0 36 31"><path d="m35.403 1.569-5.455 27.5a2.02 2.02 0 0 1-2.861.992l-12.589-9.647-4.578-2.212-7.705-2.594s-1.183-.42-1.3-1.335c-.117-.916 1.335-1.411 1.335-1.411L32.885.844s2.518-1.106 2.518.725Z" fill="#000"/><path d="M13.533 28.764s-.367-.034-.825-1.485c-.458-1.45-2.785-9.078-2.785-9.078l18.5-11.75s1.068-.648 1.03 0c0 0 .191.115-.382.649S14.533 20.185 14.533 20.185" fill="#fff"/><path d="m19.326 24.114-4.979 4.54a.872.872 0 0 1-.815.11l.953-8.433" fill="#fff"/></symbol><symbol fill="none" id="icon-vk" viewBox="0 0 39 25"><path d="M21.085 24.244C8.352 24.244.624 15.41.324.729h6.449c.2 10.784 5.107 15.36 8.868 16.293V.729h6.182v9.3c3.628-.4 7.423-4.635 8.7-9.3h6.079a17.91 17.91 0 0 1-8.028 11.723 18.575 18.575 0 0 1 9.44 11.791H31.33c-1.412-4.468-4.872-7.929-9.508-8.4v8.4l-.737.001Z" fill="#000"/></symbol></svg>