<svg width="36" height="31" viewBox="0 0 36 31" fill="none" xmlns="http://www.w3.org/2000/svg">
<path d="M35.403 1.56876L29.948 29.0688C29.8393 29.3337 29.6756 29.5726 29.4675 29.7694C29.2595 29.9662 29.012 30.1166 28.7414 30.2104C28.4708 30.3042 28.1833 30.3394 27.8981 30.3136C27.6129 30.2878 27.3364 30.2016 27.087 30.0608L14.498 20.4138L9.92 18.2018L2.215 15.6078C2.215 15.6078 1.032 15.1888 0.915004 14.2728C0.798004 13.3568 2.25 12.8618 2.25 12.8618L32.885 0.843765C32.885 0.843765 35.403 -0.262237 35.403 1.56876Z" fill="black"/>
<path d="M13.533 28.7635C13.533 28.7635 13.166 28.7295 12.708 27.2795C12.25 25.8295 9.923 18.2005 9.923 18.2005L28.423 6.45153C28.423 6.45153 29.491 5.80253 29.453 6.45153C29.453 6.45153 29.644 6.56553 29.071 7.09953C28.498 7.63353 14.533 20.1845 14.533 20.1845" fill="white"/>
<path d="M19.326 24.1136L14.347 28.6536C14.2307 28.7375 14.0955 28.7915 13.9533 28.8107C13.8111 28.8299 13.6664 28.8137 13.532 28.7636L14.485 20.3306" fill="white"/>
</svg>
