<svg width="39" height="25" viewBox="0 0 39 25" fill="none" xmlns="http://www.w3.org/2000/svg">
<path d="M21.085 24.244C8.352 24.244 0.623998 15.41 0.323997 0.729004H6.77299C6.97299 11.513 11.88 16.089 15.641 17.022V0.729004H21.823V10.029C25.451 9.62901 29.246 5.394 30.523 0.729004H36.602C36.1343 3.1273 35.1808 5.40453 33.8002 7.42059C32.4195 9.43666 30.641 11.1489 28.574 12.452C30.8856 13.6465 32.9204 15.3134 34.5467 17.3446C36.1729 19.3758 37.3542 21.726 38.014 24.243H31.33C29.918 19.775 26.458 16.314 21.822 15.843V24.243L21.085 24.244Z" fill="black"/>
</svg>
