<svg width="1034" height="1146" viewBox="0 0 1034 1146" fill="none" xmlns="http://www.w3.org/2000/svg">
<path opacity="0.589" d="M516.748 1145.66L512.766 1144.35L510.531 1143.61C510.358 1143.56 492.418 1137.93 462.816 1123.1C446.402 1114.87 429.616 1105.43 412.911 1095.02C391.695 1081.76 371.179 1067.41 351.446 1052.03C328.649 1034.3 306.866 1015.3 286.2 995.12C274.228 983.454 262.371 971.167 250.959 958.601C238.659 945.054 226.551 930.832 214.981 916.328C202.6 900.809 190.502 884.555 179.022 868.018C166.815 850.433 154.977 832.053 143.838 813.388C132.054 793.642 120.732 773.041 110.186 752.155C99.0773 730.155 88.5253 707.237 78.8223 684.035C73.4953 671.256 68.3493 657.435 63.5293 642.958C58.9173 629.107 54.4793 614.284 50.3383 598.9C42.6323 570.269 35.6703 538.65 29.6483 504.922C19.4903 448.047 11.7783 384.183 6.72631 315.106C4.73631 287.906 3.15931 259.806 2.03731 231.606C1.13631 208.967 0.52531 186.2 0.22131 163.925C-0.31169 124.969 0.28531 100.942 0.29131 100.717L0.39131 96.49L0.62331 88.613L7.22331 84.779L10.7683 82.758C12.2893 81.869 48.8833 60.772 131.46 40.1C178.169 28.406 230.572 19.1 287.211 12.452C320.672 8.522 356.022 5.482 392.279 3.417C432.066 1.149 473.943 0 516.747 0C559.551 0 601.432 1.149 641.219 3.416C677.475 5.481 712.819 8.521 746.282 12.451C802.915 19.1 855.309 28.4 902.008 40.1C920.539 44.74 938.229 49.778 954.587 55.074C967.845 59.366 980.293 63.846 991.587 68.388C1011.74 76.496 1021.61 82.142 1022.67 82.759L1026.3 84.78L1032.95 88.614L1033.1 96.491L1033.23 100.718C1033.24 100.891 1033.87 124.305 1033.33 163.904C1033.03 186.154 1032.42 208.917 1031.53 231.562C1030.41 259.757 1028.83 287.845 1026.84 315.048C1021.78 384.109 1014.06 447.97 1003.88 504.857C997.844 538.588 990.868 570.214 983.144 598.857C978.995 614.242 974.544 629.072 969.923 642.935C965.091 657.422 959.933 671.251 954.594 684.035C944.914 707.235 934.38 730.152 923.283 752.155C912.75 773.039 901.438 793.641 889.66 813.388C878.529 832.05 866.695 850.43 854.488 868.018C843.012 884.551 830.914 900.805 818.53 916.328C806.96 930.828 794.854 945.053 782.548 958.601C771.139 971.162 759.282 983.449 747.307 995.12C726.648 1015.29 704.878 1034.29 682.098 1052.03C662.367 1067.41 641.852 1081.76 620.636 1095.02C603.936 1105.43 587.142 1114.88 570.736 1123.1C558.806 1129.07 547.365 1134.27 536.73 1138.54C527.574 1142.21 523.007 1143.6 522.965 1143.61L520.782 1144.35L516.748 1145.66ZM188.4 671.748C194.385 685.774 200.755 699.657 207.332 713.013C214.149 726.855 221.381 740.521 228.832 753.633C236.532 767.197 244.688 780.548 253.06 793.317C261.706 806.504 270.832 819.443 280.185 831.776C314.021 874.596 352.719 913.339 395.5 947.224C411.774 960.036 428.531 971.954 445.308 982.649C458.561 991.098 471.829 998.789 484.743 1005.51C484.911 1005.66 485.102 1005.78 485.308 1005.88C504.782 1015.9 516.295 1020.67 516.776 1020.87C516.796 1020.86 519.108 1020.04 523.327 1018.27C537.383 1011.65 551.169 1004.56 564.302 997.202C577.435 989.845 590.258 982.028 602.445 973.949C648.402 942.401 690.304 905.321 727.209 863.544C739.555 849.232 751.533 834.023 762.809 818.344C773.653 803.262 784.143 787.332 793.986 770.998C803.428 755.33 812.532 738.864 821.046 722.057C829.188 705.983 837.01 689.164 844.293 672.067H652.534L517.03 445.635V444.769L516.773 445.189L380.139 671.748H188.4ZM642.726 547.742L644.262 550.289H886.5C892.727 527.573 898.374 503.958 903.283 480.101C907.783 458.24 911.763 435.669 915.119 413.015C920.87 374.198 924.93 334.266 927.186 294.327C928.877 264.405 929.545 234.883 929.172 206.58C928.872 183.537 927.935 167.817 927.548 162.127L927.24 158.661C924.362 157.472 918.002 154.991 907.749 151.733C895.649 147.89 881.869 144.142 866.777 140.594C847.077 135.963 825.377 131.73 802.252 128.012C774.284 123.512 743.952 119.728 712.103 116.757L710.664 119.173L712.308 116.022L548.471 390.053L643.723 549.5L642.723 547.741L642.726 547.742ZM320.363 116.811C181.069 129.911 117.355 153.971 105.997 158.663L105.792 162.129C105.119 171.445 101.97 221.599 106.065 294.319C108.313 334.244 112.365 374.179 118.121 413.013C121.476 435.667 125.458 458.239 129.956 480.102C134.863 503.955 140.51 527.57 146.739 550.291H389L484.174 390.71L320.362 116.81L320.363 116.811ZM516.748 108.278C492.756 108.278 468.948 108.626 445.994 109.312C424.612 109.951 403.354 110.901 382.811 112.137L516.747 336.6L650.761 112.137C630.195 110.902 608.904 109.951 587.482 109.311C564.505 108.626 540.708 108.278 516.748 108.278Z" fill="black"/>
</svg>
