<svg width="294" height="480" viewBox="0 0 294 480" fill="none" xmlns="http://www.w3.org/2000/svg">
<mask id="mask0_2_2417" style="mask-type:luminance" maskUnits="userSpaceOnUse" x="0" y="0" width="294" height="480">
<path d="M293.308 0H0.690918V480H293.308V0Z" fill="white"/>
</mask>
<g mask="url(#mask0_2_2417)">
<path d="M249.059 5.782C256.168 5.79073 262.983 8.61855 268.01 13.6452C273.037 18.6719 275.865 25.4871 275.874 32.596V447.396C275.867 454.506 273.039 461.323 268.012 466.351C262.985 471.379 256.169 474.208 249.059 474.217H44.9088C37.7982 474.209 30.9811 471.381 25.9534 466.352C20.9256 461.324 18.098 454.507 18.0908 447.396V32.596C18.0998 25.4866 20.9283 18.6709 25.9558 13.6442C30.9833 8.6174 37.7994 5.78994 44.9088 5.782H249.059ZM249.059 -0.0039978H44.9088C36.2628 -0.0039978 27.9708 3.43063 21.8572 9.54432C15.7435 15.658 12.3088 23.9499 12.3088 32.596V447.396C12.3088 451.677 13.1521 455.916 14.7904 459.871C16.4287 463.827 18.83 467.421 21.8572 470.448C24.8843 473.475 28.4781 475.876 32.4334 477.514C36.3886 479.153 40.6277 479.996 44.9088 479.996H249.059C253.34 479.996 257.579 479.153 261.534 477.514C265.49 475.876 269.083 473.475 272.111 470.448C275.138 467.421 277.539 463.827 279.177 459.871C280.816 455.916 281.659 451.677 281.659 447.396V32.596C281.659 23.9499 278.224 15.658 272.111 9.54432C265.997 3.43063 257.705 -0.0039978 249.059 -0.0039978Z" fill="white"/>
<path d="M46.4889 64.466C46.1216 64.6629 45.7026 64.7418 45.2889 64.692H37.3589C36.5049 64.692 36.1589 64.318 36.3359 63.57L42.7459 36.206C43.0697 34.8352 43.5667 33.5113 44.2249 32.266C44.8903 30.9867 45.7739 29.8334 46.8359 28.858C47.9696 27.8328 49.2858 27.0296 50.7159 26.49C52.3885 25.8624 54.1647 25.557 55.9509 25.59H72.9339C73.3779 25.59 73.6539 25.654 73.7519 25.79C73.8499 25.926 73.8299 26.298 73.6809 26.933L72.2059 33.248C72.1474 33.6093 71.9884 33.9469 71.7469 34.222C71.4885 34.4148 71.168 34.5052 70.8469 34.476H57.0589C56.4266 34.4536 55.796 34.5556 55.2029 34.776C54.7605 34.9441 54.3572 35.201 54.0179 35.531C53.728 35.8209 53.4959 36.1634 53.3339 36.54C53.1746 36.8991 53.0494 37.2724 52.9599 37.655L52.1599 41.119H66.8379C67.2899 41.119 67.5579 41.197 67.6559 41.338C67.7413 41.7307 67.7118 42.1396 67.5709 42.516L66.2159 48.323C66.0159 49.177 65.5599 49.607 64.8539 49.607H50.1649L46.8919 63.574C46.8448 63.9053 46.7063 64.217 46.4919 64.474" fill="white"/>
<path d="M107.221 45.088C106.562 48.0087 105.56 50.8414 104.236 53.527C103.069 55.9017 101.498 58.0552 99.5929 59.891C97.7225 61.6601 95.5107 63.0287 93.0929 63.913C90.3702 64.884 87.4952 65.3582 84.6049 65.313C82.0259 65.3932 79.4593 64.9249 77.0749 63.939C75.1878 63.1287 73.6065 61.7404 72.5589 59.974C71.4912 58.0282 70.9171 55.8503 70.8869 53.631C70.8172 50.7912 71.1327 47.955 71.8249 45.2C72.481 42.3019 73.5223 39.5047 74.9209 36.883C76.1787 34.5008 77.8157 32.3392 79.7679 30.483C81.637 28.7203 83.8292 27.3355 86.2239 26.405C88.7724 25.4302 91.4825 24.9467 94.2109 24.98C96.7903 24.8915 99.357 25.3782 101.725 26.405C103.622 27.2698 105.218 28.6797 106.311 30.455C107.421 32.3864 108.032 34.564 108.089 36.791C108.186 39.5849 107.891 42.3787 107.214 45.091M96.0799 45.147C96.372 43.7736 96.577 42.3832 96.6939 40.984C96.812 39.8337 96.7332 38.6718 96.4609 37.548C96.2387 36.6365 95.7229 35.8233 94.9929 35.234C94.1106 34.6062 93.0397 34.2999 91.9589 34.366C90.8857 34.3655 89.8324 34.6558 88.9109 35.206C87.9283 35.7932 87.0664 36.5618 86.3709 37.471C85.5842 38.4895 84.93 39.6037 84.4239 40.787C83.8603 42.0666 83.4187 43.3965 83.1049 44.759C82.7322 46.2822 82.4798 47.8323 82.3499 49.395C82.2332 50.5679 82.3349 51.7522 82.6499 52.888C82.9071 53.7722 83.4505 54.546 84.1949 55.088C85.0919 55.6534 86.1421 55.9269 87.2009 55.871C88.3517 55.8919 89.4856 55.5913 90.4749 55.003C91.4577 54.399 92.3081 53.6024 92.9749 52.661C93.7338 51.5981 94.3542 50.4428 94.8209 49.223C95.3378 47.8952 95.7599 46.5325 96.0839 45.145" fill="white"/>
<path d="M179.466 43.36C180.336 43.7506 181.108 44.3316 181.724 45.06C182.279 45.7399 182.703 46.5176 182.973 47.353C183.242 48.2016 183.373 49.0879 183.361 49.978C183.355 50.8903 183.246 51.799 183.036 52.687C182.633 54.4428 181.892 56.1036 180.856 57.577C179.825 59.049 178.551 60.3341 177.088 61.377C175.595 62.45 173.941 63.2787 172.188 63.832C170.378 64.4127 168.488 64.7056 166.588 64.7H152.069C150.545 64.7 149.628 64.411 149.31 63.832C148.992 62.921 148.989 61.9295 149.303 61.017L156.733 29.288C156.913 28.2628 157.367 27.3055 158.048 26.518C158.942 25.8022 160.084 25.4699 161.223 25.594H175.748C177.285 25.579 178.818 25.7663 180.306 26.151C181.56 26.4652 182.719 27.0775 183.686 27.936C184.587 28.7815 185.226 29.8679 185.527 31.066C185.862 32.5796 185.818 34.1523 185.4 35.645C185.014 37.1991 184.275 38.6435 183.241 39.866C182.232 41.1549 180.973 42.2275 179.541 43.02L179.466 43.36ZM164.776 40.009H170.604C171.367 40.0017 172.117 39.8106 172.791 39.452C173.178 39.2177 173.509 38.9009 173.761 38.5241C174.012 38.1473 174.177 37.7198 174.244 37.272C174.358 36.9467 174.39 36.5983 174.338 36.2575C174.286 35.9167 174.15 35.594 173.944 35.318C173.701 35.0773 173.408 34.8927 173.086 34.7769C172.765 34.6612 172.421 34.6172 172.081 34.648H166.032L164.776 40.009ZM172.311 51.961C172.449 51.5198 172.489 51.0537 172.428 50.5954C172.367 50.1371 172.207 49.6977 171.958 49.308C171.651 48.9356 171.256 48.6454 170.81 48.4635C170.363 48.2816 169.878 48.2137 169.398 48.266H162.843L161.128 55.594H167.683C168.339 55.6096 168.991 55.4943 169.602 55.255C170.57 54.8464 171.368 54.1163 171.86 53.188C172.06 52.7985 172.212 52.3861 172.312 51.96" fill="white"/>
<path d="M212.81 64.696H195.545C193.755 64.7814 191.97 64.4583 190.324 63.751C189.188 63.2164 188.243 62.3472 187.615 61.26C187.042 60.2063 186.751 59.023 186.768 57.824C186.762 56.565 186.907 55.3098 187.198 54.085L191.383 36.206C191.707 34.8351 192.205 33.5112 192.864 32.266C193.532 30.9893 194.415 29.8374 195.475 28.861C196.609 27.8357 197.925 27.0315 199.355 26.49C201.028 25.8624 202.804 25.557 204.59 25.59H221.066C221.518 25.59 221.786 25.661 221.892 25.79C221.998 25.919 221.963 26.305 221.821 26.933L220.346 33.248C220.289 33.6098 220.13 33.9478 219.887 34.222C219.628 34.4137 219.308 34.504 218.987 34.476H205.695C205.059 34.4538 204.426 34.5592 203.832 34.786C203.39 34.9506 202.988 35.208 202.654 35.541C202.364 35.8278 202.132 36.1672 201.97 36.541C201.815 36.9017 201.69 37.2747 201.596 37.656L201.046 40.006H216.021C216.473 40.006 216.741 40.084 216.839 40.225C216.924 40.6177 216.895 41.0266 216.754 41.403L215.395 47.212C215.195 48.066 214.739 48.496 214.033 48.496H199.059L198.085 52.687C197.926 53.2316 197.878 53.8025 197.944 54.366C197.984 54.7209 198.155 55.048 198.424 55.283C198.705 55.4998 199.039 55.6378 199.391 55.683C199.829 55.7359 200.269 55.7619 200.71 55.761H214.91C215.355 55.761 215.623 55.832 215.728 55.961C215.833 56.09 215.806 56.476 215.657 57.104L214.175 63.419C213.975 64.273 213.519 64.703 212.813 64.703" fill="white"/>
<path d="M254.623 34.477H245.069L238.264 63.525C238.212 63.8622 238.074 64.1803 237.864 64.449C237.497 64.6601 237.071 64.7468 236.65 64.696H228.722C227.868 64.696 227.53 64.308 227.722 63.525L234.514 34.477H225.187C224.404 34.477 224.108 34.047 224.312 33.193L225.773 26.935C225.819 26.5077 226.002 26.1068 226.295 25.792C226.592 25.6356 226.927 25.5662 227.262 25.592H256.704C257.008 25.5538 257.315 25.6247 257.572 25.792C257.713 25.926 257.706 26.3 257.558 26.935L256.098 33.193C256.06 33.5538 255.887 33.8869 255.613 34.1251C255.339 34.3634 254.986 34.4891 254.623 34.477Z" fill="white"/>
<path d="M122.951 43.529L118.174 63.529C118.123 63.868 117.981 64.1871 117.765 64.453C117.4 64.6644 116.976 64.7511 116.558 64.7H108.628C107.767 64.7 107.436 64.312 107.619 63.529L115.619 30.015C115.82 28.6962 116.415 27.4689 117.326 26.494C118.333 25.8189 119.539 25.5055 120.748 25.605H123.655C124.134 25.6002 124.612 25.6286 125.087 25.69C125.457 25.7362 125.815 25.8486 126.145 26.022C126.483 26.209 126.776 26.4665 127.006 26.777C127.313 27.1988 127.58 27.6477 127.806 28.118L132.942 40.065L135.673 46.881H136.061L140.858 26.772C140.914 26.4332 141.057 26.1147 141.274 25.848C141.636 25.6363 142.058 25.5495 142.474 25.601H150.412C151.266 25.601 151.604 25.989 151.412 26.772L143.412 60.286C143.165 61.4461 142.64 62.5286 141.881 63.44C141.41 63.8985 140.845 64.2485 140.224 64.4655C139.604 64.6824 138.944 64.7611 138.29 64.696H135.383C134.915 64.7024 134.447 64.674 133.983 64.611C133.6 64.5711 133.229 64.4584 132.889 64.279C132.547 64.089 132.247 63.8323 132.007 63.524C131.691 63.114 131.432 62.6628 131.238 62.183L126.158 50.457L123.35 43.528L122.951 43.529Z" fill="white"/>
<path d="M293.223 112.096L293.188 110.932L293.139 108.752L291.255 107.687L290.225 107.13C288.574 106.185 248.533 84.206 146.996 84.206C45.4589 84.206 5.39289 106.183 3.73889 107.129L2.73889 107.686L0.873889 108.751L0.802889 110.931L0.774889 112.096C0.746889 113.126 -1.74411 215.581 23.0069 273.676C45.6269 326.614 77.4549 358.357 100.195 375.608C125.031 394.524 144.427 400.74 145.238 400.98L145.866 401.18L146.995 401.54L148.138 401.18L148.752 400.98C149.578 400.74 168.973 394.524 193.809 375.608C216.521 358.357 248.377 326.614 270.955 273.676C295.77 215.538 293.255 113.126 293.222 112.096M259.808 269.111C238.761 318.246 209.424 347.911 188.532 364.15C165.832 381.775 148.322 387.673 147.609 387.927L147.2 388.054L146.791 387.927C146.085 387.673 128.591 381.774 105.883 364.15C84.9829 347.908 55.6539 318.25 34.5999 269.111C11.4859 215.178 12.7699 118.798 12.7999 117.846V116.717L13.8229 116.188C15.3539 115.377 52.3609 96.757 147.195 96.729C242.051 96.757 279.043 115.377 280.574 116.188L281.604 116.717V117.846C281.646 118.799 282.916 215.178 259.809 269.111" fill="white"/>
<path d="M137.759 192.431L91.3828 116.562C52.4008 120.146 34.2588 126.715 30.6978 128.154L30.6338 129.114C30.1338 136.014 27.4868 184.021 42.2258 236.634H110.822L137.759 192.431ZM88.8588 205.653L75.1698 185.312L68.6148 192.77V205.654H51.7238V152.214H68.6148V171.624L86.1058 152.214H104.189L85.3008 173.776L106.722 205.653H88.8588Z" fill="white"/>
<path d="M263.202 128.153C259.646 126.714 241.428 120.117 202.302 116.547L201.902 117.21L202.361 116.342L155.977 192.242L182.944 236.41L182.655 235.91L183.092 236.63H251.673C266.419 184.016 263.773 136.01 263.294 129.11L263.202 128.153ZM241.963 205.688H224.855V165.041H212.014V179.215C211.174 206.471 189.775 206.715 189.775 206.715L182.649 195.015C184.874 194.713 186.99 193.867 188.809 192.553C190.629 191.238 192.097 189.495 193.083 187.478C193.146 187.372 193.175 187.309 193.203 187.252C194.328 184.671 194.895 181.882 194.868 179.067V151.388H241.963V205.688Z" fill="white"/>
<path d="M184.927 115.263C173.666 114.6 161.065 114.191 146.989 114.191C132.889 114.191 120.312 114.6 109.065 115.263L146.989 177.445L184.927 115.263Z" fill="white"/>
<path d="M187.58 270.353H185.435L147.065 207.636V207.396L146.987 207.516L108.31 270.269H54.0239C60.8171 286.065 69.5459 300.957 80.0099 314.601C102.292 342.047 125.49 356.384 137.922 362.72C137.969 362.766 138.024 362.802 138.084 362.826C143.714 365.655 146.984 366.975 146.984 366.975C146.984 366.975 147.64 366.756 148.854 366.255C156.603 362.703 164.087 358.6 171.249 353.978C184.229 345.269 196.091 334.999 206.569 323.399C220.321 307.557 231.505 289.659 239.716 270.355H187.58V270.353ZM175.727 334.053H156.859L147.207 320.553L137.541 334.053H118.665L137.757 307.376L118.597 280.612H137.478L147.208 294.201L156.931 280.612H175.798L156.642 307.374L175.727 334.053Z" fill="white"/>
<path d="M38.8619 452.952V447.173L48.1519 434.664C48.6961 433.96 48.9846 433.092 48.9699 432.202V429.295C48.9699 427.834 48.2859 427.157 46.9699 427.157H40.8159L39.3159 425.657V421.103H48.6519C49.5206 421.046 50.3915 421.176 51.2061 421.483C52.0208 421.79 52.7605 422.267 53.3759 422.883C53.9912 423.499 54.468 424.239 54.7742 425.054C55.0805 425.868 55.2093 426.739 55.1519 427.608V432.025C55.1514 434.313 54.3275 436.524 52.8309 438.255L46.5939 446.581V446.899H55.1519V452.953L38.8619 452.952Z" fill="white"/>
<path d="M71.0149 453.404C70.1436 453.462 69.2698 453.335 68.4518 453.029C67.6338 452.723 66.8903 452.247 66.2707 451.631C65.6512 451.016 65.1699 450.276 64.8589 449.46C64.5479 448.644 64.4142 447.771 64.4669 446.899V427.15C64.4142 426.278 64.5479 425.405 64.8589 424.589C65.1699 423.773 65.6512 423.033 66.2707 422.418C66.8903 421.802 67.6338 421.326 68.4518 421.02C69.2698 420.714 70.1436 420.587 71.0149 420.645H76.0279C76.8956 420.592 77.7646 420.725 78.5774 421.033C79.3902 421.341 80.1283 421.819 80.7427 422.434C81.3572 423.049 81.8341 423.787 82.1418 424.6C82.4496 425.413 82.5812 426.282 82.5279 427.15V446.899C82.5812 447.767 82.4496 448.636 82.1418 449.449C81.8341 450.262 81.3572 451 80.7427 451.615C80.1283 452.23 79.3902 452.708 78.5774 453.016C77.7646 453.324 76.8956 453.457 76.0279 453.404H71.0149ZM74.3379 447.491C75.6569 447.491 76.2919 446.807 76.2919 445.353V428.695C76.2919 427.242 75.6569 426.564 74.3379 426.564H72.6519C71.3819 426.564 70.6979 427.241 70.6979 428.695V445.354C70.6979 446.807 71.3819 447.492 72.6519 447.492L74.3379 447.491Z" fill="white"/>
<path d="M90.3818 452.952V447.173L99.6698 434.664C100.214 433.96 100.503 433.092 100.488 432.202V429.295C100.488 427.834 99.8038 427.157 98.4878 427.157H92.3358L90.8358 425.657V421.103H100.17C101.039 421.046 101.909 421.176 102.724 421.483C103.539 421.79 104.278 422.267 104.894 422.883C105.509 423.499 105.986 424.239 106.292 425.054C106.598 425.868 106.727 426.739 106.67 427.608V432.025C106.669 434.313 105.845 436.524 104.349 438.255L98.1118 446.581V446.899H106.67V452.953L90.3818 452.952Z" fill="white"/>
<path d="M123.492 452.951V446.445H113.573V440.575L121.539 421.102H126.908V423.967L120.352 439.983V440.442H124.402V433.842H129.821V440.347H132.227V446.447H129.821V452.952L123.492 452.951Z" fill="white"/>
<path d="M137.492 455.226V452.178L150.227 418.826H155.596V421.874L142.861 455.226H137.492Z" fill="white"/>
<path d="M161.679 452.952V447.173L170.962 434.664C171.506 433.96 171.795 433.092 171.78 432.202V429.295C171.78 427.834 171.096 427.157 169.78 427.157H163.633L162.133 425.657V421.103H171.462C172.331 421.046 173.202 421.174 174.018 421.481C174.833 421.788 175.573 422.265 176.189 422.881C176.805 423.497 177.282 424.237 177.589 425.052C177.896 425.868 178.024 426.739 177.967 427.608V432.025C177.966 434.313 177.143 436.524 175.646 438.255L169.416 446.581V446.899H177.967V452.953L161.679 452.952Z" fill="white"/>
<path d="M193.832 453.404C192.961 453.462 192.087 453.335 191.269 453.029C190.451 452.723 189.707 452.247 189.088 451.631C188.468 451.016 187.987 450.276 187.676 449.46C187.365 448.644 187.231 447.771 187.284 446.899V427.15C187.231 426.278 187.365 425.405 187.676 424.589C187.987 423.773 188.468 423.033 189.088 422.418C189.707 421.802 190.451 421.326 191.269 421.02C192.087 420.714 192.961 420.587 193.832 420.645H198.832C199.701 420.591 200.571 420.722 201.385 421.03C202.199 421.337 202.938 421.815 203.554 422.43C204.17 423.045 204.648 423.784 204.956 424.597C205.265 425.411 205.397 426.281 205.344 427.15V446.899C205.397 447.767 205.265 448.637 204.957 449.45C204.649 450.263 204.171 451.002 203.556 451.617C202.941 452.232 202.202 452.709 201.389 453.017C200.576 453.325 199.706 453.457 198.838 453.404H193.832ZM197.155 447.491C198.474 447.491 199.109 446.807 199.109 445.353V428.695C199.109 427.242 198.474 426.564 197.155 426.564H195.469C194.199 426.564 193.515 427.241 193.515 428.695V445.354C193.515 446.807 194.199 447.492 195.469 447.492L197.155 447.491Z" fill="white"/>
<path d="M213.199 452.952V447.173L222.48 434.664C223.024 433.96 223.313 433.092 223.298 432.202V429.295C223.298 427.834 222.614 427.157 221.298 427.157H215.153L213.653 425.657V421.103H222.981C223.85 421.046 224.721 421.174 225.537 421.481C226.352 421.788 227.092 422.265 227.708 422.881C228.324 423.497 228.801 424.237 229.108 425.052C229.414 425.868 229.543 426.739 229.486 427.608V432.025C229.485 434.313 228.661 436.524 227.165 438.255L220.935 446.581V446.899H229.49V452.953L213.199 452.952Z" fill="white"/>
<path d="M238.447 452.952V446.898H246.497C247.774 446.898 248.451 446.221 248.451 444.76V440.986C248.451 439.533 247.774 438.848 246.497 438.848H238.897V421.103H254.047V425.654L252.547 427.154H245.175V432.933H248.223C249.093 432.875 249.965 433.003 250.781 433.309C251.597 433.615 252.338 434.092 252.955 434.708C253.571 435.324 254.049 436.065 254.356 436.881C254.663 437.696 254.792 438.568 254.735 439.438V446.444C254.792 447.314 254.662 448.185 254.355 449.001C254.047 449.816 253.57 450.556 252.953 451.172C252.337 451.788 251.596 452.265 250.78 452.572C249.964 452.878 249.092 453.007 248.223 452.949L238.447 452.952Z" fill="white"/>
</g>
</svg>
