<svg width="352" height="480" viewBox="0 0 352 480" fill="none" xmlns="http://www.w3.org/2000/svg">
<mask id="mask0_2_2660" style="mask-type:luminance" maskUnits="userSpaceOnUse" x="0" y="0" width="352" height="480">
<path d="M351.815 0H0V480H351.815V0Z" fill="white"/>
</mask>
<g mask="url(#mask0_2_2660)">
<path d="M140.329 239.193C148.776 236.653 161.795 235.024 176.413 235.024C184.064 234.997 191.708 235.483 199.293 236.479V233.443C191.708 232.446 184.064 231.959 176.413 231.986C161.795 231.986 148.776 233.616 140.329 236.155V239.193Z" fill="white"/>
<path d="M193.472 178.607C190.182 176.977 183.702 175.59 176.413 175.59C169.124 175.59 162.644 176.976 159.354 178.607C156.647 179.949 153.533 181.857 153.533 185.783V187.08C153.533 191.096 158.938 194.865 164 195.292C165.819 193.659 170.69 192.492 176.413 192.492C182.136 192.492 187.007 193.661 188.825 195.292C193.888 194.865 199.293 191.092 199.293 187.08V185.78C199.293 181.854 196.178 179.946 193.472 178.604" fill="white"/>
<path d="M165.582 25.357C165.582 22.182 170.743 20.003 177.11 20.003C183.477 20.003 188.638 22.182 188.638 25.357C188.638 25.357 192.41 23.106 192.41 13.725C192.41 7.657 190.066 4.784 190.066 4.784C190.066 4.784 185.389 1.111 177.11 0C168.83 1.111 164.154 4.784 164.154 4.784C164.154 4.784 161.81 7.657 161.81 13.725C161.81 23.106 165.582 25.357 165.582 25.357Z" fill="white"/>
<path d="M179.132 197.916C176.365 197.774 173.865 198.31 173.712 204.985C173.551 211.891 170.963 225.342 170.963 225.342V225.411C172.52 225.366 174.104 225.343 175.715 225.342C181.65 225.31 187.581 225.619 193.481 226.267C189.581 219.309 185.853 210.085 184.681 205.151C183.45 200 182 198.063 179.137 197.917" fill="white"/>
<path d="M222.527 247.365C222.527 245.557 220.697 243.852 217.476 242.344V245.205L217.487 245.216H217.476V253.19L218.049 263.639C213.765 262.241 209.364 261.227 204.9 260.61V246.665C207.36 247.157 209.466 247.688 211.235 248.222V243.013C202.784 240.68 190.335 239.198 176.412 239.198C157.545 239.198 141.335 241.91 134.196 245.798C134.196 244.846 134.177 243.833 134.124 242.891C134.149 242.877 134.171 242.862 134.197 242.848V238.588C133.777 238.817 133.397 239.051 133.041 239.288C133.024 239.293 133.007 239.299 132.991 239.306C132.694 239.483 132.417 239.693 132.165 239.93C131.341 240.526 130.725 241.365 130.404 242.33L130.392 242.356V242.368C130.336 242.582 130.307 242.803 130.304 243.024V247.284C130.307 247.066 130.335 246.85 130.388 246.639C130.378 248.192 130.355 249.595 130.304 249.686H130.362C130.324 249.866 130.305 250.049 130.304 250.233L129.013 273.791C129.013 279.359 150.234 283.874 176.413 283.874C202.592 283.874 223.813 279.359 223.813 273.791L222.542 250.624L222.527 247.365ZM176.413 281.331C153.385 281.331 134.72 277.857 134.72 273.571C134.72 272.231 136.545 270.971 139.757 269.871L140.729 252.611C142.668 251.751 144.748 251.254 146.866 251.146L145.972 268.271C153.581 266.759 164.401 265.811 176.414 265.811C199.44 265.811 218.107 269.285 218.107 273.571C218.107 277.857 199.44 281.331 176.414 281.331" fill="white"/>
<path d="M144.036 229.179L144.775 230.179C147.786 229.095 150.885 228.276 154.039 227.733C157.976 222.707 166.582 207.812 166.645 201.42C166.666 199.281 164.115 200.093 163.573 202.234C162.418 206.801 159.56 210.901 155.173 217.401C151.994 221.798 148.249 225.757 144.035 229.176" fill="white"/>
<path d="M199.635 227.053C202.679 227.537 205.653 228.386 208.494 229.582L208.884 229.053C204.414 225.499 200.446 221.355 197.09 216.734C193.771 212.047 191.074 206.948 189.066 201.567C188.225 199.167 185.479 198.667 185.958 200.753C187.969 209.495 194.73 221.075 199.147 226.688L199.635 227.053Z" fill="white"/>
<path d="M239.556 51.524C231.694 51.524 225.646 55.39 223.056 61.601C222.739 62.06 222.456 62.54 222.182 63.026C222.699 55.558 222.356 48.467 201.464 40.597C194.358 37.922 188.1 34.797 188.1 29.751C188.1 26.651 183.308 24.145 177.1 24.145C170.892 24.145 166.1 26.656 166.1 29.751C166.1 34.794 159.842 37.922 152.736 40.597C131.856 48.465 131.511 55.556 132.028 63.024C131.758 62.538 131.471 62.059 131.156 61.6C128.57 55.387 122.521 51.524 114.656 51.524C95.8459 51.524 82.2019 66.903 82.2019 86.907C82.2019 114.445 99.8819 140.86 132.597 160.266C142.284 166.013 148.568 168.247 160.135 172.571L160.817 174.691C163.69 172.782 169.902 171.451 177.105 171.422C184.305 171.451 190.52 172.782 193.395 174.691L194.077 172.571C205.644 168.246 211.927 166.012 221.614 160.266C254.33 140.86 272.009 114.445 272.009 86.907C272.009 66.907 258.368 51.524 239.556 51.524ZM240.73 57.564H241.003C249.603 57.564 256.973 62.275 261.236 70.486C261.28 70.5709 261.29 70.6695 261.264 70.7615C261.238 70.8535 261.177 70.932 261.095 70.981C261.037 71.0168 260.97 71.0355 260.902 71.035C260.841 71.0351 260.781 71.0205 260.728 70.9924C260.674 70.9644 260.628 70.9238 260.593 70.874C259.702 69.5826 258.698 68.3728 257.593 67.259C255.438 65.0571 252.862 63.3115 250.018 62.1261C247.174 60.9407 244.121 60.3397 241.04 60.359H240.74C235.735 60.403 231.54 62.359 228.94 65.859C228.905 65.9057 228.86 65.9437 228.808 65.9701C228.756 65.9964 228.698 66.0104 228.64 66.011C228.577 66.0112 228.514 65.995 228.459 65.964C228.379 65.9201 228.319 65.849 228.287 65.7637C228.256 65.6785 228.257 65.5848 228.289 65.5C230.174 60.6 234.827 57.631 240.735 57.562M223.289 68.215C223.937 60.842 228.089 58.775 229.841 58.228C229.877 58.2166 229.915 58.2106 229.953 58.21C230.026 58.2105 230.097 58.2323 230.158 58.2726C230.219 58.313 230.267 58.3702 230.296 58.4372C230.325 58.5043 230.334 58.5783 230.322 58.6504C230.309 58.7224 230.277 58.7893 230.227 58.843C229.003 60.155 227.352 62.443 227.133 67.149C227.003 69.955 228.991 72.292 230.416 72.67C232.072 73.108 232.877 74.048 232.877 75.543C232.851 76.294 232.529 77.0044 231.981 77.5186C231.433 78.0328 230.704 78.3091 229.953 78.287C229.012 78.2859 228.087 78.047 227.264 77.5924C226.441 77.1378 225.746 76.4823 225.244 75.687C223.676 73.5295 222.979 70.8607 223.29 68.212M232.649 81.06C232.399 81.5832 232.004 82.023 231.51 82.3261C231.016 82.6292 230.444 82.7827 229.865 82.768C227.34 82.768 224.865 82.225 223.829 78.289C223.807 78.2048 223.815 78.1156 223.851 78.0366C223.888 77.9576 223.951 77.8938 224.029 77.856C224.081 77.8318 224.137 77.8191 224.194 77.819C224.252 77.8185 224.309 77.8315 224.361 77.8568C224.413 77.8821 224.459 77.9192 224.494 77.965C225.21 78.8924 226.139 79.6332 227.202 80.1245C228.265 80.6159 229.432 80.8431 230.602 80.787C231.149 80.7809 231.691 80.6933 232.212 80.527C232.248 80.516 232.285 80.5103 232.322 80.51C232.386 80.5102 232.45 80.5271 232.506 80.5589C232.562 80.5907 232.609 80.6364 232.642 80.6917C232.676 80.7469 232.694 80.8098 232.696 80.8743C232.698 80.9388 232.684 81.0028 232.654 81.06M211.47 65.358C212.009 65.8088 212.679 66.0736 213.38 66.113C213.8 66.0875 214.205 65.9521 214.556 65.7205C214.907 65.4888 215.191 65.169 215.38 64.793C215.405 64.7504 215.439 64.7133 215.479 64.684C215.518 64.6546 215.564 64.6335 215.612 64.622C215.641 64.6143 215.672 64.6106 215.702 64.611C215.77 64.611 215.837 64.6297 215.896 64.665L216.524 65.044L217.702 65.409C217.781 65.4344 217.85 65.4854 217.897 65.554C217.944 65.6226 217.967 65.7049 217.962 65.788C217.402 75.566 214.492 89.149 211.407 103.527L210.825 106.246C210.811 106.313 210.778 106.375 210.731 106.425C210.684 106.475 210.624 106.511 210.558 106.529C210.525 106.538 210.492 106.543 210.458 106.543C210.407 106.543 210.356 106.532 210.309 106.512C210.262 106.491 210.219 106.461 210.184 106.424C209.63 105.823 209.046 105.251 208.432 104.711C207.848 104.21 207.175 103.824 206.449 103.571C206.394 103.558 206.343 103.534 206.299 103.499C206.255 103.465 206.219 103.421 206.194 103.371C206.169 103.321 206.156 103.267 206.154 103.211C206.153 103.156 206.164 103.101 206.186 103.05C209.186 96.33 210.629 85.925 211.317 78.327L209.571 75.81C201.393 71.569 189.571 69.137 177.114 69.137C164.04 69.137 151.526 72.013 141.876 77.237C141.821 77.2666 141.759 77.2821 141.697 77.282C141.642 77.2823 141.588 77.27 141.539 77.246C141.485 77.2214 141.439 77.1844 141.402 77.1382C141.366 77.0919 141.341 77.0377 141.33 76.98L140.791 74.286C140.775 74.209 140.784 74.1289 140.816 74.0571C140.848 73.9853 140.902 73.9255 140.97 73.886C150.088 68.577 162.586 65.771 177.115 65.771C189.215 65.771 200.476 67.958 208.835 71.93C208.87 71.9354 208.903 71.9462 208.935 71.962C209.595 72.3238 210.331 72.5253 211.084 72.55C211.581 72.5401 212.07 72.4197 212.515 72.1977C212.961 71.9756 213.351 71.6574 213.658 71.266C212.942 71.1664 212.267 70.8724 211.707 70.416C209.269 68.587 207.234 64.242 206.755 59.852C206.747 59.7824 206.759 59.7121 206.789 59.649C206.82 59.5859 206.867 59.5325 206.926 59.495C206.986 59.4571 207.055 59.4366 207.126 59.436C207.194 59.4357 207.262 59.4548 207.32 59.491L207.769 59.76C207.842 59.8044 207.897 59.872 207.927 59.952C208.602 62.0388 209.828 63.9046 211.476 65.352M140.784 70.852C138.845 70.852 137.402 68.874 137.016 65.691C137.007 65.62 137.019 65.548 137.05 65.4835C137.081 65.419 137.13 65.3647 137.191 65.327L137.625 65.058C137.685 65.0201 137.754 65.0002 137.825 65.001C137.887 65.0009 137.949 65.0165 138.004 65.0464C138.059 65.0763 138.105 65.1195 138.139 65.172C138.338 65.5367 138.625 65.8454 138.975 66.0695C139.324 66.2936 139.725 66.4258 140.139 66.454C140.514 66.4463 140.882 66.3569 141.219 66.192C142.819 65.446 144.349 63.277 145.319 60.392C145.346 60.309 145.402 60.2381 145.476 60.192L147.066 59.205C147.126 59.1686 147.195 59.1495 147.266 59.15C147.334 59.1499 147.401 59.1686 147.459 59.204C147.518 59.2394 147.567 59.2906 147.599 59.3518C147.631 59.4131 147.646 59.482 147.641 59.551C147.294 64.514 144.949 69.228 142.19 70.518C141.753 70.73 141.275 70.8437 140.79 70.851M148.456 59.13C148.437 59.0337 148.457 58.9339 148.511 58.852C148.565 58.7701 148.649 58.7127 148.745 58.692L149.459 58.538C149.523 58.5242 149.59 58.5275 149.653 58.5475C149.715 58.5675 149.771 58.6035 149.816 58.652C150.404 59.2986 151.121 59.8138 151.922 60.1636C152.723 60.5135 153.588 60.6901 154.462 60.682C154.756 60.6819 155.051 60.6635 155.343 60.627C156.757 60.3999 158.103 59.8598 159.281 59.0461C160.46 58.2324 161.442 57.1658 162.156 55.924C162.182 55.8803 162.217 55.8426 162.259 55.813C162.3 55.7834 162.347 55.7626 162.397 55.752L165.018 55.187C165.044 55.1816 165.07 55.1789 165.097 55.179C165.15 55.179 165.202 55.1903 165.25 55.212C165.299 55.2337 165.342 55.2654 165.377 55.305C165.412 55.3446 165.438 55.3912 165.454 55.4417C165.47 55.4922 165.475 55.5454 165.469 55.598C164.903 60.431 160.969 64.647 156.518 65.198C156.193 65.2378 155.867 65.2582 155.54 65.259C153.823 65.2518 152.166 64.6307 150.867 63.5079C149.568 62.3851 148.714 60.8347 148.459 59.137M167.585 55.161C167.574 55.1063 167.575 55.0499 167.588 54.9957C167.601 54.9414 167.626 54.8909 167.662 54.8476C167.697 54.8043 167.741 54.7694 167.792 54.7455C167.842 54.7215 167.897 54.709 167.953 54.709H168.767C168.821 54.709 168.874 54.7206 168.923 54.743C168.972 54.7654 169.016 54.7982 169.051 54.839C170.687 56.7176 172.996 57.8772 175.48 58.067C175.746 58.088 176.011 58.099 176.272 58.099C177.604 58.1171 178.923 57.8344 180.131 57.2721C181.339 56.7097 182.404 55.8821 183.248 54.851C183.283 54.8072 183.327 54.7718 183.378 54.7474C183.428 54.723 183.484 54.7102 183.54 54.71H186.533C186.586 54.7101 186.639 54.7216 186.688 54.7438C186.737 54.766 186.78 54.7983 186.815 54.8387C186.851 54.879 186.877 54.9264 186.892 54.9777C186.908 55.0289 186.912 55.0829 186.905 55.136C186.555 57.3541 185.406 59.3678 183.675 60.798C181.943 62.2283 179.749 62.9765 177.505 62.902C177.224 62.902 176.939 62.891 176.651 62.868C174.515 62.721 172.481 61.8935 170.85 60.507C169.218 59.1204 168.073 57.2476 167.583 55.163M189.035 55.363C189.024 55.3007 189.029 55.2368 189.05 55.1771C189.07 55.1173 189.105 55.0636 189.152 55.021C189.22 54.957 189.31 54.9212 189.404 54.921C189.438 54.9199 189.471 54.924 189.504 54.933L190.218 55.126C190.309 55.1502 190.387 55.2076 190.438 55.287C191.747 57.4613 193.737 59.1432 196.099 60.072C196.92 60.3806 197.788 60.543 198.665 60.552C199.44 60.5667 200.209 60.4122 200.918 60.0993C201.628 59.7863 202.26 59.3224 202.772 58.74C202.807 58.6994 202.851 58.6667 202.899 58.6443C202.948 58.6219 203.001 58.6102 203.055 58.61C203.089 58.6105 203.122 58.6146 203.155 58.622L205.775 59.332C205.862 59.3558 205.938 59.4103 205.988 59.4854C206.038 59.5605 206.06 59.6513 206.049 59.741C205.602 63.328 203.133 65.648 199.755 65.648C198.787 65.6388 197.829 65.4608 196.923 65.122C194.897 64.2841 193.114 62.9515 191.736 61.2463C190.359 59.5411 189.43 57.5176 189.037 55.361M142.355 50.766C142.361 50.7033 142.382 50.6431 142.417 50.5907C142.452 50.5383 142.499 50.4955 142.555 50.466C151.202 45.787 163.799 43.104 177.119 43.104C188.988 43.104 200.219 45.204 208.738 49.025C208.807 49.0556 208.866 49.1067 208.906 49.1714C208.946 49.2362 208.965 49.3115 208.961 49.3874C208.957 49.4633 208.93 49.5363 208.884 49.5965C208.838 49.6568 208.774 49.7016 208.702 49.725C207.962 49.97 207.123 50.256 206.202 50.575C206.119 50.6053 206.027 50.6053 205.944 50.575C197.883 47.467 187.644 45.756 177.123 45.756C163.832 45.756 151.308 48.436 142.762 53.111C142.702 53.1432 142.635 53.1587 142.568 53.1561C142.5 53.1535 142.435 53.1327 142.378 53.096C142.321 53.059 142.276 53.0074 142.246 52.9467C142.216 52.886 142.203 52.8184 142.209 52.751L142.355 50.766ZM137.015 59.324C144.766 52.377 160.096 48.06 177.024 48.06C185.349 47.997 193.64 49.1385 201.639 51.449C201.715 51.4717 201.781 51.5178 201.83 51.5807C201.878 51.6437 201.904 51.7202 201.906 51.7993C201.908 51.8785 201.885 51.9562 201.84 52.0213C201.795 52.0865 201.731 52.1357 201.656 52.162C200.523 52.562 199.349 52.99 198.156 53.422C198.115 53.4362 198.071 53.4437 198.028 53.444C197.998 53.4437 197.967 53.4401 197.938 53.433C191.085 51.8101 184.065 51.0045 177.023 51.033C160.593 51.033 145.587 55.161 137.859 61.803C137.791 61.8615 137.704 61.8938 137.615 61.894C137.573 61.8943 137.531 61.8868 137.491 61.872C137.429 61.8505 137.373 61.8127 137.33 61.7626C137.287 61.7125 137.259 61.6519 137.247 61.587L136.896 59.674C136.884 59.6109 136.888 59.5457 136.909 59.4849C136.93 59.4241 136.966 59.3697 137.014 59.327M123.948 58.386C123.982 58.3323 124.028 58.288 124.084 58.2573C124.139 58.2265 124.202 58.2102 124.265 58.21C124.303 58.2105 124.341 58.2166 124.378 58.228C126.131 58.775 130.278 60.844 130.927 68.215C131.239 70.8636 130.541 73.5324 128.974 75.69C128.472 76.4853 127.777 77.1408 126.954 77.5954C126.13 78.0499 125.205 78.2889 124.265 78.29C123.513 78.3124 122.784 78.0363 122.235 77.522C121.687 77.0078 121.365 76.2973 121.339 75.546C121.339 74.046 122.145 73.111 123.802 72.673C125.227 72.295 127.214 69.958 127.085 67.151C126.869 62.5 125.318 60.27 123.992 58.851C123.935 58.7906 123.9 58.7131 123.892 58.6305C123.884 58.548 123.904 58.4651 123.948 58.395M130.389 78.302C129.355 82.237 126.877 82.78 124.353 82.78C123.773 82.7947 123.202 82.6412 122.708 82.3381C122.214 82.035 121.818 81.5952 121.569 81.072C121.535 81.0064 121.521 80.9323 121.529 80.8589C121.537 80.7855 121.566 80.716 121.613 80.659C121.66 80.6014 121.723 80.5591 121.795 80.5378C121.866 80.5164 121.942 80.5168 122.013 80.539C122.534 80.705 123.076 80.7926 123.623 80.799C124.793 80.855 125.959 80.6278 127.022 80.1366C128.086 79.6455 129.015 78.905 129.731 77.978C129.784 77.9093 129.859 77.861 129.943 77.8413C130.027 77.8216 130.116 77.8317 130.194 77.8698C130.271 77.908 130.333 77.9719 130.369 78.0507C130.405 78.1294 130.413 78.2182 130.391 78.302M92.9789 70.481C97.2399 62.27 104.616 57.559 113.212 57.559H113.485C119.393 57.628 124.046 60.595 125.931 65.497C125.964 65.5815 125.965 65.675 125.934 65.7602C125.903 65.8454 125.842 65.9165 125.763 65.9604C125.684 66.0043 125.591 66.0181 125.503 65.999C125.414 65.98 125.335 65.9296 125.281 65.857C122.672 62.357 118.481 60.398 113.481 60.357H113.208C110.123 60.336 107.066 60.9362 104.218 62.1216C101.371 63.307 98.7905 65.0535 96.6319 67.257C95.5246 68.3707 94.5183 69.5804 93.6249 70.872C93.5706 70.9498 93.4888 71.0041 93.396 71.0239C93.3032 71.0438 93.2063 71.0277 93.1249 70.979C93.0432 70.9296 92.9834 70.8509 92.9576 70.759C92.9318 70.667 92.9419 70.5687 92.9859 70.484M156.253 157.233C144.674 157.674 124.706 147.333 111.332 133.3L111.412 133.224C98.9189 119.848 91.6799 104.077 91.5409 89.953C91.4619 81.878 94.1869 74.475 99.0159 69.64C100.889 67.7209 103.136 66.2066 105.618 65.1909C108.101 64.1752 110.765 63.6797 113.446 63.735C118.083 63.775 122.738 66.074 124.114 71.024C123.95 71.01 123.79 70.979 123.622 70.979C122.351 70.9423 121.108 71.357 120.114 72.1495C119.12 72.942 118.439 74.061 118.191 75.308C117.597 76.9051 117.453 78.6344 117.773 80.308C118.473 83.855 121.052 86.147 124.354 86.147C130.448 86.147 132.819 82.573 133.747 78.852C135.111 88.075 137.322 99.025 141.047 114.232C146.041 134.632 151.766 148.032 156.711 156.665C156.541 156.84 156.385 157.029 156.245 157.229M191.326 171.169C191.311 171.219 191.286 171.266 191.253 171.306C191.22 171.346 191.178 171.378 191.132 171.402C191.08 171.428 191.023 171.441 190.965 171.441C190.918 171.441 190.871 171.432 190.827 171.415C187.493 170.099 182.493 169.344 177.109 169.344C172.926 169.277 168.755 169.816 164.726 170.944C164.69 170.955 164.652 170.961 164.614 170.961C164.551 170.961 164.49 170.946 164.435 170.916C164.391 170.892 164.352 170.859 164.321 170.819C164.289 170.78 164.266 170.735 164.253 170.686L163.768 168.918C163.742 168.826 163.752 168.727 163.797 168.642C163.842 168.558 163.918 168.493 164.009 168.463C168.255 167.186 172.675 166.578 177.109 166.663C180.475 166.64 183.834 166.964 187.134 167.629C187.271 167.668 187.412 167.687 187.554 167.687C188.928 167.687 190.831 166.087 191.628 164.273C191.657 164.206 191.705 164.149 191.766 164.109C191.827 164.069 191.898 164.047 191.971 164.047C192.01 164.047 192.048 164.054 192.085 164.066L192.902 164.325C192.995 164.355 193.072 164.419 193.118 164.505C193.164 164.591 193.175 164.691 193.149 164.785L191.326 171.169ZM194.172 155.005C194.122 155.005 194.072 154.995 194.026 154.976C190.133 153.343 183.651 152.33 177.108 152.33C170.673 152.33 164.601 153.295 160.45 154.977C160.405 154.995 160.357 155.005 160.309 155.005C160.253 155.005 160.198 154.992 160.148 154.968C160.1 154.946 160.058 154.914 160.023 154.875C159.989 154.835 159.963 154.788 159.948 154.738L159.092 151.898C159.07 151.825 159.071 151.747 159.094 151.674C159.118 151.601 159.163 151.537 159.224 151.491C161.944 149.428 169.13 148.04 177.106 148.04C180.119 148.026 183.127 148.294 186.09 148.84L186.272 148.879C186.679 148.978 187.096 149.031 187.515 149.038C187.991 149.054 188.463 148.955 188.892 148.749C189.321 148.543 189.694 148.236 189.979 147.854C192.573 144.469 199.479 131.425 202.972 120.268C204.412 115.673 203.629 114.568 202.572 114.053C202.227 113.873 201.845 113.773 201.456 113.761C200.038 113.761 198.856 115.461 197.521 119.443C195.393 125.868 192.929 132.176 190.141 138.343C190.11 138.407 190.062 138.461 190.003 138.5C189.943 138.538 189.873 138.558 189.802 138.558C189.768 138.558 189.734 138.553 189.702 138.544L188.802 138.289C188.752 138.275 188.705 138.251 188.665 138.218C188.625 138.185 188.592 138.144 188.569 138.098C188.545 138.052 188.532 138.001 188.529 137.949C188.526 137.897 188.534 137.846 188.553 137.797C190.559 132.222 192.241 126.536 193.59 120.767L193.99 119.167C195.469 113.337 194.384 111.624 191.717 110.355C191.074 110.043 190.369 109.88 189.655 109.878C187.506 109.878 184.942 111.489 184.185 116.008C181.602 131.442 180.439 137.537 179.301 142.852C179.284 142.936 179.238 143.012 179.172 143.067C179.105 143.121 179.022 143.151 178.936 143.152C178.924 143.152 177.763 143.052 177.763 143.052C177.667 143.044 177.578 142.998 177.515 142.926C177.451 142.853 177.418 142.759 177.423 142.663L177.584 138.823C177.907 131.254 178.239 123.423 178.331 116.285C178.393 115.25 178.25 114.213 177.91 113.234C177.57 112.255 177.039 111.352 176.349 110.579C175.733 109.982 175.001 109.518 174.199 109.215C173.396 108.911 172.541 108.775 171.684 108.815C171.051 108.818 170.419 108.876 169.796 108.987C166.02 109.644 164.332 112.256 164.635 116.975C164.744 118.675 165.458 125.069 165.465 125.132C165.471 125.185 165.466 125.238 165.449 125.288C165.433 125.339 165.407 125.385 165.371 125.425C165.336 125.464 165.293 125.496 165.245 125.517C165.196 125.539 165.144 125.55 165.091 125.55C165.057 125.55 165.023 125.545 164.991 125.536L162.261 124.792C162.196 124.775 162.137 124.74 162.091 124.692C162.044 124.644 162.011 124.584 161.996 124.519C161.708 123.332 160.634 117.719 160.473 116.731C159.92 113.37 158.528 111.665 156.336 111.665C155.654 111.68 154.981 111.812 154.345 112.058C151.204 113.206 150.191 115.258 150.738 119.358C150.746 119.425 150.737 119.493 150.71 119.555C150.683 119.618 150.64 119.671 150.585 119.711C150.522 119.758 150.445 119.783 150.366 119.783C150.309 119.783 150.254 119.77 150.203 119.746L148.886 119.116C148.84 119.094 148.8 119.064 148.766 119.026C148.733 118.988 148.708 118.944 148.692 118.896C147.578 115.494 146.724 112.012 146.138 108.481C146.127 108.405 146.139 108.328 146.173 108.26C146.207 108.191 146.261 108.135 146.328 108.098C153.397 104.205 164.903 101.881 177.108 101.881C190.641 101.881 203.253 104.964 210.022 109.925C210.079 109.967 210.123 110.024 210.149 110.089C210.175 110.155 210.182 110.227 210.169 110.296L209.808 112.254C206.492 127.015 201.353 141.306 194.508 154.797C194.477 154.859 194.429 154.91 194.37 154.947C194.311 154.983 194.243 155.002 194.174 155.002M242.894 133.293C229.52 147.329 209.554 157.667 197.973 157.226C197.833 157.026 197.677 156.837 197.507 156.662C202.452 148.032 208.177 134.624 213.171 114.229C216.896 99.022 219.108 88.072 220.471 78.848C221.401 82.57 223.771 86.148 229.864 86.148C233.164 86.148 235.749 83.856 236.443 80.309C236.765 78.6357 236.621 76.9061 236.027 75.309C235.779 74.062 235.098 72.943 234.104 72.1504C233.109 71.3578 231.867 70.9428 230.596 70.979C230.427 70.979 230.268 71.011 230.104 71.024C231.481 66.074 236.136 63.775 240.772 63.735C243.451 63.6945 246.111 64.1969 248.591 65.2117C251.071 66.2265 253.32 67.7329 255.203 69.64C260.032 74.475 262.757 81.878 262.678 89.953C262.539 104.078 255.299 119.848 242.813 133.221L242.894 133.293Z" fill="white"/>
<path d="M38.943 379.041C38.4318 379.317 37.8475 379.426 37.271 379.355H26.216C25.024 379.355 24.544 378.835 24.791 377.795L33.72 339.641C34.1733 337.731 34.8672 335.886 35.785 334.15C36.715 332.368 37.9473 330.762 39.427 329.402C41.0068 327.969 42.8425 326.846 44.838 326.092C47.169 325.223 49.6426 324.799 52.13 324.843H75.81C76.433 324.843 76.81 324.937 76.952 325.12C77.094 325.303 77.052 325.83 76.852 326.71L74.794 335.51C74.7195 336.016 74.4996 336.49 74.161 336.873C73.8 337.136 73.3562 337.26 72.911 337.223H53.679C52.7956 337.195 51.9152 337.342 51.088 337.653C50.4714 337.884 49.9096 338.24 49.438 338.7C49.0356 339.103 48.7117 339.578 48.483 340.1C48.2639 340.602 48.0899 341.122 47.963 341.655L46.837 346.484H67.315C67.938 346.484 68.315 346.592 68.449 346.793C68.583 346.994 68.543 347.551 68.336 348.43L66.436 356.53C66.159 357.722 65.526 358.323 64.541 358.323H44.063L39.504 377.791C39.4358 378.251 39.2405 378.682 38.94 379.037" fill="white"/>
<path d="M123.6 352.021C122.681 356.09 121.285 360.037 119.441 363.779C117.816 367.091 115.626 370.094 112.968 372.653C110.359 375.117 107.277 377.025 103.908 378.261C100.114 379.612 96.1093 380.271 92.083 380.208C88.4879 380.326 84.9088 379.678 81.583 378.308C78.9552 377.175 76.7531 375.24 75.292 372.78C73.8023 370.067 73.0015 367.03 72.96 363.936C72.8638 359.976 73.3041 356.02 74.269 352.178C75.1855 348.136 76.6377 344.235 78.587 340.578C80.3409 337.259 82.6215 334.246 85.34 331.657C87.9482 329.203 91.0036 327.273 94.34 325.972C97.8926 324.619 101.669 323.947 105.47 323.992C109.066 323.871 112.644 324.547 115.947 325.972C118.591 327.177 120.816 329.142 122.339 331.617C123.888 334.312 124.741 337.35 124.822 340.457C124.955 344.35 124.543 348.243 123.598 352.022M108.079 352.099C108.488 350.186 108.773 348.249 108.931 346.299C109.096 344.696 108.988 343.076 108.613 341.509C108.301 340.238 107.582 339.104 106.565 338.28C105.333 337.406 103.84 336.98 102.333 337.071C100.838 337.067 99.3702 337.471 98.088 338.24C96.7191 339.06 95.5174 340.131 94.546 341.397C93.4497 342.82 92.5375 344.376 91.831 346.028C91.0464 347.81 90.4301 349.662 89.99 351.559C89.4748 353.682 89.1254 355.842 88.945 358.02C88.7799 359.655 88.9224 361.306 89.365 362.889C89.7178 364.127 90.4777 365.211 91.522 365.964C92.7695 366.756 94.2334 367.139 95.709 367.058C97.3128 367.084 98.8924 366.664 100.271 365.844C101.643 365.002 102.829 363.89 103.758 362.575C104.813 361.095 105.674 359.486 106.319 357.787C107.042 355.936 107.63 354.035 108.079 352.099Z" fill="white"/>
<path d="M224.328 349.609C225.54 350.155 226.614 350.965 227.472 351.979C228.248 352.928 228.841 354.013 229.22 355.179C229.595 356.361 229.777 357.597 229.759 358.837C229.751 360.108 229.599 361.375 229.306 362.612C228.743 365.059 227.712 367.375 226.271 369.432C224.832 371.483 223.055 373.275 221.017 374.732C218.933 376.225 216.627 377.38 214.184 378.155C211.663 378.964 209.031 379.371 206.384 379.361H186.135C184.006 379.361 182.724 378.961 182.289 378.155C181.854 377.349 181.855 376.04 182.275 374.225L192.628 329.985C192.886 328.559 193.522 327.229 194.469 326.133C195.289 325.272 196.769 324.842 198.894 324.842H219.143C221.287 324.82 223.424 325.082 225.499 325.622C227.248 326.059 228.864 326.913 230.21 328.111C231.467 329.289 232.357 330.803 232.775 332.474C233.239 334.584 233.178 336.775 232.6 338.856C232.06 341.022 231.03 343.034 229.589 344.739C228.178 346.531 226.427 348.026 224.437 349.139L224.328 349.609ZM203.847 344.933H211.974C213.038 344.922 214.083 344.655 215.021 344.153C215.561 343.826 216.022 343.385 216.372 342.859C216.721 342.334 216.95 341.738 217.043 341.114C217.202 340.661 217.248 340.175 217.177 339.7C217.106 339.225 216.92 338.775 216.635 338.388C216.294 338.054 215.884 337.798 215.434 337.637C214.984 337.476 214.505 337.414 214.029 337.456H205.599L203.847 344.933ZM214.347 361.596C214.54 360.981 214.597 360.331 214.512 359.692C214.428 359.053 214.205 358.44 213.858 357.896C213.427 357.379 212.876 356.977 212.252 356.726C211.628 356.474 210.952 356.38 210.283 356.453H201.148L198.764 366.653H207.903C208.816 366.675 209.724 366.517 210.575 366.188C211.284 365.894 211.933 365.471 212.489 364.942C212.986 364.466 213.403 363.913 213.722 363.303C213.997 362.759 214.208 362.184 214.35 361.591" fill="white"/>
<path d="M270.808 379.355H246.745C244.249 379.475 241.759 379.022 239.466 378.031C237.88 377.29 236.56 376.081 235.682 374.566C234.889 373.094 234.484 371.445 234.504 369.773C234.501 368.016 234.702 366.265 235.104 364.555L240.936 339.64C241.389 337.73 242.084 335.885 243.002 334.149C243.934 332.369 245.166 330.763 246.644 329.401C248.224 327.969 250.06 326.846 252.055 326.091C254.389 325.222 256.865 324.799 259.355 324.844H282.325C282.953 324.844 283.325 324.944 283.467 325.122C283.609 325.3 283.567 325.834 283.367 326.711L281.315 335.519C281.236 336.024 281.014 336.496 280.674 336.878C280.314 337.142 279.871 337.266 279.427 337.228H260.892C260.008 337.2 259.128 337.346 258.301 337.658C257.683 337.89 257.121 338.249 256.651 338.711C256.247 339.113 255.923 339.588 255.696 340.111C255.478 340.614 255.304 341.134 255.176 341.667L254.406 344.937H275.284C275.906 344.937 276.284 345.045 276.418 345.247C276.54 345.793 276.5 346.364 276.301 346.887L274.409 354.987C274.126 356.179 273.493 356.775 272.509 356.776H251.639L250.276 362.617C250.058 363.377 249.99 364.171 250.076 364.957C250.134 365.453 250.373 365.91 250.749 366.239C251.141 366.54 251.607 366.729 252.098 366.786C252.709 366.866 253.325 366.903 253.941 366.898H273.724C274.347 366.898 274.724 366.998 274.867 367.176C275.01 367.354 274.974 367.889 274.767 368.765L272.704 377.573C272.427 378.765 271.786 379.361 270.804 379.361" fill="white"/>
<path d="M329.095 337.23H315.782L306.302 377.723C306.229 378.194 306.032 378.638 305.733 379.009C305.226 379.309 304.633 379.433 304.048 379.36H292.987C291.795 379.36 291.328 378.814 291.587 377.723L301.063 337.23H288.053C286.963 337.23 286.558 336.634 286.839 335.443L288.873 326.719C288.935 326.12 289.191 325.559 289.602 325.119C290.016 324.904 290.481 324.809 290.946 324.845H331.991C332.415 324.793 332.844 324.89 333.205 325.119C333.398 325.302 333.388 325.832 333.183 326.719L331.143 335.443C331.091 335.945 330.85 336.409 330.469 336.741C330.088 337.073 329.596 337.247 329.091 337.23" fill="white"/>
<path d="M145.533 349.844L138.875 377.721C138.803 378.194 138.605 378.638 138.302 379.008C137.797 379.309 137.205 379.432 136.622 379.358H125.566C124.366 379.358 123.903 378.815 124.166 377.721L135.319 331.003C135.902 328.564 136.69 326.924 137.702 326.094C139.103 325.147 140.785 324.707 142.47 324.847H146.518C147.187 324.841 147.855 324.88 148.518 324.964C149.035 325.032 149.536 325.191 149.997 325.435C150.466 325.693 150.873 326.051 151.189 326.484C151.616 327.072 151.989 327.697 152.301 328.353L159.459 345.016L163.265 354.516H163.812L170.5 326.485C170.576 326.013 170.775 325.57 171.077 325.199C171.581 324.898 172.172 324.774 172.754 324.848H183.812C185.004 324.848 185.475 325.395 185.212 326.485L174.063 373.203C173.715 374.821 172.982 376.33 171.925 377.603C170.925 378.773 169.254 379.357 166.913 379.356H162.865C162.21 379.362 161.555 379.323 160.905 379.239C160.374 379.178 159.858 379.021 159.382 378.776C158.907 378.51 158.489 378.152 158.154 377.722C157.712 377.151 157.35 376.522 157.079 375.853L150.005 359.504L146.077 349.847L145.533 349.844Z" fill="white"/>
<path d="M191.375 478.887C191.44 475.672 191.44 472.399 191.44 469.233C191.44 466.067 191.44 462.819 191.375 459.603H205.359L205.369 460.851C205.425 461.342 205.285 461.836 204.979 462.224C204.604 462.526 204.125 462.666 203.646 462.615H195.446C195.379 462.615 195.315 462.641 195.267 462.688C195.219 462.735 195.192 462.799 195.191 462.866V463.074C195.191 463.074 195.166 464.405 195.166 465.549V467.324C195.166 467.391 195.193 467.456 195.241 467.504C195.289 467.551 195.354 467.578 195.421 467.578H199.329C204.493 467.578 206.898 469.443 206.898 473.446C206.898 477.363 204.755 478.887 199.256 478.887H191.375ZM195.417 470.156C195.383 470.156 195.35 470.163 195.319 470.176C195.288 470.189 195.26 470.208 195.236 470.232C195.212 470.256 195.193 470.284 195.181 470.315C195.168 470.346 195.162 470.379 195.162 470.413L195.19 476.044C195.191 476.111 195.218 476.176 195.265 476.223C195.313 476.271 195.378 476.298 195.445 476.298H198.662C201.442 476.298 202.852 475.182 202.852 472.982C202.852 471.188 201.299 470.157 198.589 470.157L195.417 470.156Z" fill="white"/>
<path d="M97.7851 478.882C97.8751 475.726 97.8941 471.865 97.8941 469.147C97.8941 467.147 97.8941 464.873 97.8441 462.671V462.461C97.8418 462.395 97.814 462.332 97.7664 462.286C97.7189 462.24 97.6554 462.213 97.5891 462.213H90.3421C90.2751 462.213 90.2108 462.24 90.1631 462.287C90.1154 462.334 90.0881 462.398 90.0871 462.465V462.674C90.0641 464.874 90.0641 467.145 90.0641 469.146C90.0641 472.155 90.0641 475.877 90.1481 478.881H86.2251C86.3011 476.118 86.3351 473.133 86.3351 469.251C86.3351 466.638 86.3231 463.194 86.2251 459.596H101.678C101.593 462.496 101.593 466.077 101.593 469.251C101.593 472.236 101.593 475.927 101.678 478.881L97.7851 478.882Z" fill="white"/>
<path d="M178.451 478.882C178.499 475.575 178.542 472.372 178.542 469.464C178.542 466.873 178.509 464.093 178.494 463.019V462.809C178.492 462.742 178.465 462.679 178.417 462.633C178.369 462.586 178.306 462.56 178.239 462.56H178.031C176.814 462.56 174.998 462.577 173.347 462.625V459.597H187.596V462.623C186.01 462.576 184.096 462.56 182.862 462.56H182.654C182.587 462.56 182.523 462.586 182.476 462.633C182.428 462.679 182.4 462.742 182.399 462.809V463.017C182.373 464.417 182.348 468.632 182.348 469.917C182.348 472.917 182.37 475.927 182.415 478.884L178.451 478.882Z" fill="white"/>
<path d="M113.603 479.17C107.456 479.17 104.715 476.086 104.715 469.17C104.715 462.383 107.489 459.223 113.447 459.223C119.527 459.223 122.36 462.418 122.36 469.275C122.36 475.934 119.496 479.175 113.603 479.175M113.493 462.175C110.13 462.175 108.493 464.468 108.493 469.184C108.493 473.984 110.105 476.226 113.567 476.226C116.937 476.226 118.577 473.944 118.577 469.25C118.577 464.49 116.912 462.175 113.49 462.175" fill="white"/>
<path d="M140.066 480L140.084 478.7C140.085 478.666 140.079 478.633 140.066 478.602C140.054 478.571 140.035 478.543 140.011 478.519C139.988 478.495 139.96 478.476 139.929 478.462C139.899 478.449 139.865 478.442 139.832 478.442C133.803 478.389 131.114 475.531 131.114 469.175C131.114 462.888 133.883 459.956 139.829 459.951C139.897 459.95 139.961 459.923 140.009 459.875C140.057 459.827 140.083 459.762 140.083 459.694L140.066 458.494H143.85L143.833 459.694C143.832 459.727 143.839 459.761 143.851 459.791C143.864 459.822 143.882 459.85 143.906 459.874C143.93 459.898 143.958 459.918 143.989 459.931C144.02 459.944 144.053 459.951 144.087 459.951C150.034 459.957 152.802 462.888 152.802 469.175C152.802 475.531 150.113 478.389 144.084 478.442C144.051 478.442 144.017 478.449 143.987 478.462C143.956 478.476 143.928 478.495 143.905 478.519C143.881 478.543 143.862 478.571 143.85 478.602C143.837 478.633 143.831 478.666 143.832 478.7L143.85 480H140.066ZM144.056 462.653C143.989 462.653 143.924 462.679 143.877 462.727C143.829 462.774 143.802 462.838 143.801 462.905C143.787 465.031 143.786 467.152 143.786 469.231C143.786 471.289 143.786 473.385 143.8 475.485C143.801 475.553 143.829 475.618 143.877 475.666C143.9 475.689 143.928 475.708 143.959 475.72C143.989 475.733 144.022 475.739 144.055 475.739C147.394 475.692 149.019 473.548 149.019 469.183C149.019 464.803 147.394 462.667 144.054 462.653H144.056ZM139.856 462.653C136.514 462.667 134.889 464.803 134.889 469.183C134.889 473.548 136.512 475.692 139.853 475.739C139.92 475.739 139.984 475.713 140.031 475.666C140.079 475.618 140.107 475.553 140.108 475.485C140.12 473.385 140.122 471.285 140.122 469.231C140.122 467.153 140.122 465.031 140.108 462.907C140.108 462.84 140.081 462.775 140.033 462.727C139.985 462.68 139.92 462.653 139.853 462.653H139.856Z" fill="white"/>
<path d="M218.425 479.12C212.28 479.12 209.539 476.036 209.539 469.12C209.539 462.333 212.313 459.172 218.27 459.172C224.35 459.172 227.184 462.367 227.184 469.224C227.184 475.883 224.319 479.124 218.426 479.124M218.317 462.124C214.954 462.124 213.317 464.417 213.317 469.133C213.317 473.933 214.929 476.175 218.391 476.175C221.761 476.175 223.401 473.893 223.401 469.199C223.401 464.439 221.736 462.124 218.314 462.124" fill="white"/>
<path d="M228.576 478.89L234.184 459.606H236.727L236.863 459.595L246.563 459.584C246.479 462.484 246.479 466.065 246.479 469.239C246.479 472.221 246.479 475.913 246.563 478.868H242.67C242.754 475.842 242.754 472.13 242.754 469.133C242.754 467.171 242.754 465.259 242.731 463.057V462.848C242.73 462.781 242.703 462.717 242.655 462.67C242.607 462.623 242.543 462.597 242.476 462.597H237.619C237.564 462.597 237.51 462.615 237.466 462.648C237.422 462.682 237.39 462.729 237.375 462.782L233.839 475.375C232.939 478.032 232.072 478.889 230.261 478.889L228.576 478.89Z" fill="white"/>
<path d="M159.707 478.882L162.19 472.12C162.204 472.082 162.209 472.041 162.204 472C162.199 471.96 162.184 471.921 162.161 471.888C162.138 471.854 162.106 471.827 162.07 471.808C162.034 471.788 161.993 471.778 161.952 471.778H158.876L154.123 459.597H156.481C156.974 459.603 157.454 459.76 157.854 460.049C158.255 460.337 158.557 460.741 158.719 461.207L162.185 470.835C162.203 470.884 162.235 470.927 162.277 470.957C162.32 470.987 162.371 471.003 162.423 471.003C162.475 471.003 162.526 470.987 162.568 470.957C162.611 470.927 162.643 470.885 162.661 470.836L166.789 459.597H170.659L165.059 475.351C163.983 478 163.314 478.883 161.477 478.883L159.707 478.882Z" fill="white"/>
<path d="M254.637 478.882L257.12 472.12C257.134 472.082 257.139 472.041 257.134 472C257.129 471.96 257.114 471.921 257.091 471.888C257.067 471.854 257.036 471.827 257 471.808C256.963 471.788 256.923 471.778 256.882 471.778H253.806L249.053 459.597H251.412C251.905 459.603 252.384 459.761 252.783 460.049C253.183 460.337 253.485 460.742 253.647 461.207L257.113 470.835C257.131 470.884 257.163 470.926 257.206 470.956C257.248 470.986 257.299 471.003 257.351 471.003C257.403 471.003 257.454 470.987 257.496 470.957C257.539 470.927 257.571 470.885 257.589 470.836L261.717 459.597H265.587L259.987 475.351C258.911 478 258.242 478.883 256.405 478.883L254.637 478.882Z" fill="white"/>
<path d="M84.848 430.73C84.848 423.914 80.791 420.738 72.079 420.738H65.7V417.838C65.7 415.976 65.74 413.807 65.74 413.807L65.747 413.467H79.129C81.429 413.467 82.37 412.497 82.357 410.167L82.338 407.717H58.676C58.789 413.1 58.789 418.563 58.789 423.85C58.789 429.159 58.789 434.642 58.676 440.027H71.96C81.114 440.027 84.848 437.333 84.848 430.727M70.993 434.966H65.742L65.7 425.774H70.876C75.033 425.774 77.415 427.304 77.415 429.974C77.415 433.335 75.315 434.974 70.996 434.974" fill="white"/>
<path d="M173.997 439.723C173.928 437.787 173.891 433.923 173.891 431.072V430.726H182.041C189.378 430.726 192.797 426.961 192.797 418.875C192.797 410.948 188.971 407.413 180.391 407.413H166.741C166.782 412.737 166.818 417.99 166.818 423.59C166.818 429.151 166.782 434.4 166.741 439.723H173.997ZM173.897 412.517H179.149C183.501 412.517 185.53 414.54 185.53 418.887C185.53 423.198 183.468 425.295 179.23 425.295H173.852L173.897 412.517Z" fill="white"/>
<path d="M102.217 440.593C112.117 440.593 116.927 435.174 116.927 424.026C116.927 412.547 112.171 407.202 101.962 407.202C91.9569 407.202 87.2959 412.494 87.2959 423.854C87.2959 435.43 91.8959 440.593 102.217 440.593ZM102.038 412.845C107.345 412.845 109.925 416.486 109.925 423.978C109.925 431.359 107.386 434.948 102.163 434.948C96.7959 434.948 94.2979 431.428 94.2979 423.869C94.2979 416.452 96.8299 412.845 102.038 412.845Z" fill="white"/>
<path d="M225.79 423.19C225.79 411.713 221.034 406.367 210.826 406.367C200.819 406.367 196.158 411.658 196.158 423.018C196.158 434.594 200.758 439.757 211.081 439.757C220.981 439.757 225.79 434.338 225.79 423.19ZM203.161 423.034C203.161 415.615 205.693 412.01 210.901 412.01C216.21 412.01 218.788 415.651 218.788 423.141C218.788 430.524 216.249 434.112 211.028 434.112C205.661 434.112 203.162 430.591 203.162 423.033" fill="white"/>
<path d="M244.155 440.265C252.146 440.265 256.594 436.33 257.738 428.239H250.438C249.638 432.474 247.501 434.621 244.096 434.621C239.445 434.621 237.278 431.101 237.278 423.542C237.278 416.123 239.478 412.518 243.987 412.518C245.013 412.443 246.04 412.658 246.949 413.14C247.858 413.622 248.612 414.351 249.126 415.242C249.359 415.659 249.568 416.088 249.753 416.528H257.09C257.079 416.111 257.015 415.697 256.898 415.297C255.236 409.553 251.11 406.879 243.913 406.879C234.46 406.879 230.058 412.17 230.058 423.531C230.058 435.106 234.405 440.269 244.158 440.269" fill="white"/>
<path d="M288.904 428.242H281.604C280.804 432.477 278.667 434.624 275.262 434.624C270.611 434.624 268.444 431.103 268.444 423.545C268.444 416.126 270.644 412.52 275.153 412.52C276.178 412.445 277.204 412.66 278.112 413.142C279.021 413.623 279.775 414.351 280.288 415.242C280.52 415.658 280.73 416.086 280.916 416.525H288.253C288.241 416.109 288.176 415.696 288.06 415.296C286.398 409.552 282.272 406.877 275.075 406.877C265.624 406.877 261.22 412.169 261.22 423.531C261.22 435.106 265.567 440.269 275.32 440.269C283.312 440.269 287.759 436.333 288.904 428.243" fill="white"/>
<path d="M40.7881 428.401L36.5291 439.995H40.0191C43.2331 439.995 44.4501 438.409 46.2581 433.955L55.5921 407.687H48.3971L41.5591 426.303L35.9021 410.589C35.6073 409.749 35.0613 409.021 34.3382 408.502C33.6151 407.983 32.75 407.699 31.8601 407.689H27.4021L35.4851 428.403L40.7881 428.401Z" fill="white"/>
<path d="M319.636 407.392H315.867L301.667 423.627L298.69 428.714L298.527 428.697C298.726 426.987 298.828 425.268 298.834 423.547C298.834 419.056 298.897 416.254 298.948 411.517C298.965 409.961 298.98 408.553 298.991 407.392H292.391C292.468 412.651 292.508 417.961 292.508 423.179C292.508 428.201 292.471 433.536 292.432 439.185V439.702H297.069L310.586 423.757L313.316 419.09L313.479 419.107C313.309 420.579 313.212 422.149 313.19 423.692C313.18 429.432 313.143 434.946 313.078 439.702H319.637C319.553 434.519 319.48 429.088 319.48 420.455C319.48 416.455 319.554 411.826 319.636 407.393" fill="white"/>
<path d="M345.26 439.701H351.819C351.736 434.518 351.663 429.087 351.663 420.454C351.663 416.454 351.736 411.825 351.817 407.392H348.048L333.848 423.627L330.871 428.714L330.71 428.697C330.907 426.987 331.01 425.268 331.016 423.547C331.016 419.056 331.079 416.252 331.13 411.517C331.148 409.961 331.162 408.553 331.173 407.392H324.573C324.649 412.651 324.689 417.961 324.689 423.179C324.689 428.201 324.653 433.536 324.613 439.185V439.702H329.251L342.768 423.757L345.498 419.09L345.661 419.107C345.491 420.579 345.394 422.149 345.372 423.692C345.362 429.432 345.325 434.945 345.26 439.702" fill="white"/>
<path d="M7.147 439.995V426.011H11.609L17.25 437.505C17.592 438.226 18.1254 438.839 18.7919 439.277C19.4585 439.716 20.2327 439.963 21.03 439.991H26.945L18.609 424.565L14.924 422.977V422.624L18.606 421.097L25.748 407.682H20.82C20.0239 407.686 19.2448 407.913 18.5701 408.335C17.8954 408.758 17.3517 409.36 17 410.074L11.649 420.621L9.749 420.581H7.149V407.681H0C0.083 413.414 0.156 418.955 0.156 423.865C0.156 428.811 0.083 434.316 0 439.998L7.147 439.995Z" fill="white"/>
<path d="M139.018 424.601L135.258 422.98V422.627L139.027 421.063L146.14 407.685H141.212C140.416 407.689 139.637 407.914 138.962 408.336C138.287 408.758 137.743 409.359 137.39 410.073L132.04 420.62L130.14 420.58H127.534V407.68H120.392C120.475 413.408 120.548 418.948 120.548 423.857C120.548 428.802 120.475 434.308 120.392 439.99H127.534V426.011H131.998L137.637 437.511C137.979 438.232 138.513 438.845 139.18 439.284C139.847 439.722 140.621 439.969 141.419 439.997H147.334L139.018 424.601Z" fill="white"/>
</g>
</svg>
