<svg width="325" height="480" viewBox="0 0 325 480" fill="none" xmlns="http://www.w3.org/2000/svg">
<path d="M152.038 377.551H166.518V298.574H173.099V377.548H187.579V285.415H152.038V377.551Z" fill="white"/>
<mask id="mask0_2_2887" style="mask-type:luminance" maskUnits="userSpaceOnUse" x="0" y="0" width="325" height="480">
<path d="M324.27 0H0V480H324.27V0Z" fill="white"/>
</mask>
<g mask="url(#mask0_2_2887)">
<path d="M239.739 285.419H225.26V377.555H239.739V348.823C252.497 348.75 261.456 339.578 261.456 317.123C261.456 294.668 252.497 285.493 239.739 285.423M240.388 337.034H239.739V297.258H240.388C243.681 297.258 246.977 300.207 246.977 317.144C246.977 334.081 243.677 337.03 240.388 337.03" fill="white"/>
<path d="M86.6462 358.466C86.6462 365.706 85.3302 367.022 83.3552 367.022C81.3802 367.022 80.0662 365.706 80.0662 358.466V304.507C80.0662 297.267 81.3822 295.951 83.3552 295.951C85.3282 295.951 86.6462 297.262 86.6462 304.507V324.249H102.235C102.235 285.422 91.9942 284.104 83.3572 284.104C72.8262 284.104 63.6152 293.321 63.6152 331.489C63.6152 369.657 72.8262 378.867 83.3572 378.867C91.7142 378.867 102.276 377.551 102.276 337.408H86.6462V358.466Z" fill="white"/>
<path d="M129.908 285.417L126.947 340.768H126.458L119.139 285.417H103.348L113.995 347.275H126.241C126.241 347.275 126.217 367.025 120.624 367.025C116.324 367.025 117.25 357.043 117.54 352.725H104.717C104.393 354.843 104.234 356.983 104.242 359.125C104.242 372.284 110.689 378.867 120.691 378.867C131.224 378.867 138.068 371.625 139.776 349.91L145.043 285.417H129.908Z" fill="white"/>
<path d="M219.993 298.574L220.737 285.413H192.608V377.548H219.993V364.388H207.088V338.094H217.788V323.555H207.088V298.574H219.993Z" fill="white"/>
<path d="M314.004 125.902C303.651 87.71 280.957 56.127 242.586 34.572C232.671 28.999 217.91 22.047 206.259 17.01L172.359 24.803C203.677 33.827 282.803 63.095 301.634 132.245C304.923 144.345 311.149 178.494 311.149 238.884V241.115C311.149 301.505 304.923 335.654 301.634 347.754C282.042 419.701 200.894 447.732 172.223 455.509C169.223 456.322 127.077 466.391 125.357 466.788C145.237 474.76 162.136 479.998 162.136 479.998C162.136 479.998 213.644 464.034 242.587 445.432C279.627 421.656 303.652 392.282 314.005 354.093C318.126 339.082 324.27 301.993 324.27 240.005C324.27 178.017 318.125 140.914 314.005 125.905" fill="white"/>
<path d="M93.9331 115.126C107.504 103.115 127.36 104.514 144.067 106.647C153.14 107.811 162.467 108.742 171.653 107.747C176.373 107.176 180.986 105.923 185.346 104.028C185.573 103.937 186.188 103.661 186.759 103.397C186.936 103.337 187.094 103.232 187.217 103.093C187.341 102.953 187.426 102.783 187.464 102.601C187.502 102.418 187.491 102.229 187.433 102.052C187.376 101.874 187.272 101.715 187.134 101.59C172.854 84.914 151.311 72.439 128.852 74.472C127.819 74.577 126.818 74.886 125.905 75.381C114.074 82.0576 104.388 91.9626 97.9761 103.939C96.8441 105.967 95.9081 108.072 94.9671 110.197C94.5211 111.308 94.0831 112.434 93.6931 113.61C93.3481 114.654 93.0681 115.259 93.3501 115.419C93.4501 115.472 93.6261 115.401 93.9321 115.125" fill="white"/>
<path d="M207.649 154.987C205.274 156.946 202.887 158.858 200.659 160.975C197.589 163.851 194.816 166.903 192.083 169.987C184.525 178.64 178.011 188.07 168.824 195.144C162.073 200.327 154.19 204.282 145.665 205.411C144.892 205.525 144.032 205.611 143.165 205.669C142.818 205.691 142.559 205.643 142.577 205.829C142.591 205.973 142.877 206.184 144.589 206.585C147.439 207.234 150.324 207.713 153.23 208.021C166.653 209.433 180.2 207.001 192.294 201.01C193.203 200.539 194.025 199.917 194.726 199.171C205.393 187.447 209.617 171.202 208.958 155.571C208.958 154.697 208.384 154.456 207.658 154.985" fill="white"/>
<path d="M63.876 166.404C64.1438 166.993 64.5505 167.508 65.0611 167.905C65.5718 168.303 66.1712 168.57 66.808 168.685C70.495 169.679 74.557 169.405 78.254 169.176C82.9302 168.88 87.5861 168.322 92.2 167.505C92.606 167.442 93.056 167.339 93.465 167.278C117.066 163.051 140.06 155.95 161.934 146.133C168.888 142.988 175.716 139.605 182.343 135.916C185.695 134.071 188.999 132.145 192.254 130.138C193.86 129.138 195.46 128.145 197.008 127.108C198.042 126.421 199.178 125.802 200.208 125.048C200.546 124.763 200.781 124.376 200.879 123.945C200.977 123.515 200.932 123.064 200.751 122.661C198.567 118.033 196.005 113.594 193.093 109.386C192.855 109.04 192.497 108.795 192.088 108.7C191.679 108.605 191.249 108.666 190.883 108.871C186.86 111.085 182.589 112.817 178.16 114.03C172.091 115.591 165.829 116.274 159.566 116.056C146.806 115.845 134.128 113.521 121.325 115.103C113.876 116.032 106.225 118.11 100.149 122.671C97.1731 124.9 94.7248 127.758 92.978 131.04C91.1831 134.617 90.1577 138.531 89.968 142.529C90.069 146.99 90.7216 151.421 91.911 155.721C92.418 157.546 92.921 158.933 95.03 158.872C96.494 158.821 97.995 158.685 99.364 158.55C102.777 158.201 106.178 157.75 109.564 157.236C111.018 157.036 112.507 156.794 113.964 156.583C114.55 156.483 115.181 156.383 115.82 156.295C116.27 156.234 116.436 156.37 115.881 156.603C115.249 156.877 114.601 157.116 113.942 157.317C112.52 157.794 111.091 158.199 109.606 158.574C106.878 159.337 104.094 159.979 101.306 160.565C95.638 161.765 89.95 162.855 84.239 163.665C81.43 164.046 78.616 164.381 75.772 164.49C74.4828 164.582 73.1877 164.548 71.905 164.39C71.019 164.28 69.538 164.153 69.037 163.283C68.151 161.76 71.11 159.588 72.093 158.854C73.1404 158.076 74.237 157.367 75.376 156.731C75.623 156.591 75.792 156.506 75.913 156.443C76.485 156.143 76.783 155.973 76.713 155.8C76.643 155.627 75.74 155.857 75.74 155.857C75.2292 155.985 74.728 156.148 74.24 156.346C73.0763 156.803 71.9465 157.341 70.859 157.958C68.9956 158.901 67.2727 160.099 65.74 161.517C64.533 162.774 63.195 164.581 63.88 166.402" fill="white"/>
<path d="M202.85 131.709C192.25 138.853 181.106 144.866 169.734 150.788C152.117 159.914 134.257 167.967 115.215 173.43C108.78 175.269 102.364 176.877 95.8911 178.321C92.9201 178.97 89.9511 179.651 86.9761 180.243C85.4491 180.578 83.9601 180.843 82.4191 181.095C81.0191 181.338 79.6191 181.559 78.2131 181.762C77.5361 181.876 76.9461 181.945 76.3131 182.056C75.8731 182.121 75.6841 182.18 75.6991 182.33C75.7151 182.502 75.9401 182.537 76.3241 182.569C78.0241 182.669 80.8241 182.597 81.7891 182.581C85.5651 182.638 89.3231 182.555 93.1191 182.34C95.4091 182.265 97.7351 182.115 100.019 181.902C102.071 181.724 103.408 181.326 104.927 183.23C105.69 184.171 106.5 185.072 107.354 185.93C107.744 186.324 108.215 186.629 108.735 186.822C109.255 187.015 109.81 187.092 110.363 187.047C114.496 187.088 125.814 184.354 126.323 184.38C126.475 184.39 126.487 184.441 126.374 184.528C125.285 185.372 112.531 189.528 101.469 190.521C100.469 190.608 99.4691 190.764 98.4191 190.876C97.8271 190.955 97.5371 191.002 97.5411 191.168C97.5451 191.334 97.8781 191.363 98.5181 191.363C101.874 191.422 106.593 191.294 111.053 191.256C112.477 191.204 113.886 191.567 115.107 192.302C115.993 192.902 117.492 193.665 118.173 194.034C123.053 196.52 128.411 197.929 133.883 198.165C144.645 198.711 155.168 194.951 163.929 188.733C174.793 180.986 182.458 169.727 191.878 160.388C194.391 157.888 197.145 155.507 199.86 153.227C201.26 152.067 202.679 150.976 204.117 149.842C204.806 149.327 205.457 148.836 206.179 148.319C206.631 147.995 206.885 147.81 207.219 147.554C207.547 147.266 207.785 146.889 207.904 146.469C208.023 146.048 208.018 145.603 207.89 145.185C207.199 140.809 206.121 136.503 204.668 132.318C204.625 132.132 204.535 131.959 204.406 131.818C204.278 131.676 204.116 131.569 203.934 131.508C203.753 131.446 203.559 131.432 203.371 131.466C203.183 131.501 203.007 131.582 202.859 131.704" fill="white"/>
<path d="M225.852 113.039C221.022 117.634 215.906 121.919 210.533 125.866C210.267 126.093 210.073 126.393 209.976 126.729C209.878 127.065 209.881 127.422 209.983 127.756C211.47 131.934 212.642 136.218 213.489 140.571C213.534 140.798 213.651 141.571 213.767 142.371C213.77 142.513 213.811 142.652 213.885 142.772C213.96 142.893 214.066 142.991 214.192 143.057C214.319 143.122 214.46 143.152 214.602 143.144C214.744 143.136 214.88 143.09 214.998 143.01C217.123 141.947 219.314 141.022 221.558 140.242C224.365 139.226 227.295 138.589 230.27 138.348C230.416 138.349 230.561 138.321 230.696 138.266C230.831 138.21 230.953 138.128 231.056 138.024C231.158 137.92 231.239 137.797 231.293 137.662C231.347 137.526 231.373 137.381 231.37 137.235C231.362 134.998 231.218 132.935 230.993 130.666C230.489 124.716 229.177 118.862 227.093 113.266C226.856 112.635 226.328 112.572 225.85 113.045" fill="white"/>
<path d="M202.287 111.261L202.451 111.555C203.921 114.084 205.276 116.668 206.515 119.308C206.572 119.448 206.661 119.574 206.774 119.674C206.888 119.774 207.023 119.847 207.169 119.887C207.315 119.927 207.468 119.933 207.617 119.904C207.765 119.875 207.905 119.812 208.026 119.72C209.413 118.755 211.826 117.053 212.94 116.232C213.692 115.658 214.44 115.086 215.177 114.524L217.31 112.806C218.687 111.656 219.995 110.518 221.187 109.406C221.94 108.698 222.647 108.004 223.31 107.325C223.544 107.06 223.696 106.733 223.75 106.384C223.803 106.034 223.754 105.677 223.61 105.354C220.191 98.6543 215.729 92.5402 210.392 87.24C209.913 86.767 209.425 86.928 209.269 87.583C209.113 88.238 208.926 88.883 208.701 89.536C207.952 91.7058 206.935 93.7729 205.671 95.689C204.293 97.7928 202.694 99.7438 200.903 101.509C200.349 102.048 199.346 102.914 198.603 103.541C198.355 103.758 198.194 104.058 198.151 104.384C198.107 104.711 198.184 105.043 198.366 105.317C199.466 106.917 201.406 109.847 202.29 111.261" fill="white"/>
<path d="M226.476 144.648C222.58 145.625 218.872 147.242 215.505 149.432C215.253 149.619 215.051 149.867 214.92 150.153C214.789 150.438 214.731 150.752 214.753 151.066C214.8 151.597 214.832 152.052 214.838 152.181C215.493 165.963 212.609 180.051 205.457 191.9C205.218 192.263 205.092 192.45 205.197 192.549C205.302 192.648 205.467 192.51 205.805 192.223C206.521 191.623 207.21 191.006 207.884 190.373C220.832 178.752 229.042 162.767 230.946 145.473C230.972 145.325 230.969 145.172 230.936 145.025C230.903 144.878 230.841 144.739 230.755 144.616C230.668 144.492 230.558 144.387 230.431 144.307C230.303 144.226 230.161 144.171 230.013 144.145C228.817 144.151 227.627 144.319 226.476 144.645" fill="white"/>
<path d="M196.81 97.179C198.372 95.779 199.782 94.2177 201.016 92.521C202.102 91.0367 202.997 89.4221 203.681 87.715C204.075 86.7272 204.373 85.7038 204.571 84.659C204.61 84.442 204.662 83.943 204.709 83.45C204.72 83.0785 204.648 82.7092 204.497 82.3692C204.347 82.0293 204.123 81.7271 203.841 81.485C189.491 70.306 171.389 65.0781 153.288 66.885C150.723 67.1449 148.173 67.5408 145.649 68.071C143.373 68.489 141.134 69.0893 138.954 69.866C138.826 69.921 138.788 69.947 138.794 70.012C138.8 70.077 138.906 70.077 138.944 70.081C141.939 70.2385 144.921 70.5909 147.871 71.136C164.835 74.348 180.171 83.989 191.713 96.802C191.987 97.108 192.613 97.848 193.157 98.502C193.365 98.7538 193.661 98.9163 193.986 98.9559C194.31 98.9955 194.637 98.9093 194.899 98.715C195.546 98.22 196.355 97.587 196.807 97.182" fill="white"/>
<path d="M264.028 92.716C264.022 92.716 265.318 92.527 265.328 91.895C265.338 91.263 264.02 91.076 264.028 91.082C252.862 88.624 249.252 85.004 246.797 73.84C246.797 73.84 246.606 72.54 245.976 72.54C245.346 72.54 245.169 73.856 245.165 73.84C242.697 85 239.093 88.622 227.925 91.078C227.925 91.078 226.633 91.232 226.625 91.891C226.641 92.546 227.925 92.718 227.925 92.718C239.093 95.17 242.705 98.782 245.165 109.941C245.165 109.941 245.274 111.241 245.976 111.247C246.676 111.237 246.797 109.939 246.797 109.939C249.251 98.792 252.873 95.171 264.028 92.716Z" fill="white"/>
<path d="M305.627 242.651C305.62 242.504 305.555 242.366 305.446 242.266C305.338 242.166 305.194 242.113 305.047 242.118H264.391V250.548C304.97 260.876 302.851 298.793 302.851 298.793C302.851 298.793 306.305 265.23 305.627 242.651Z" fill="white"/>
<path d="M181.324 238.024H176.696L175.735 242.124H180.194C180.778 242.119 181.352 241.972 181.867 241.696C182.163 241.517 182.416 241.275 182.608 240.988C182.8 240.7 182.926 240.374 182.978 240.032C183.066 239.784 183.092 239.517 183.053 239.257C183.014 238.996 182.912 238.749 182.755 238.537C182.568 238.353 182.343 238.212 182.096 238.123C181.849 238.035 181.585 238.001 181.324 238.024Z" fill="white"/>
<path d="M179.27 248.449H174.255L172.945 254.049H177.958C178.459 254.06 178.958 253.973 179.426 253.793C180.167 253.48 180.778 252.922 181.156 252.211C181.306 251.912 181.422 251.596 181.499 251.27C181.605 250.933 181.636 250.576 181.589 250.225C181.543 249.875 181.421 249.538 181.231 249.24C180.994 248.957 180.692 248.737 180.349 248.599C180.007 248.461 179.637 248.409 179.27 248.449Z" fill="white"/>
<path d="M122.34 238.472C121.664 237.993 120.844 237.759 120.016 237.809C119.196 237.807 118.391 238.029 117.688 238.452C116.936 238.9 116.276 239.487 115.743 240.182C115.142 240.964 114.641 241.817 114.252 242.723C113.822 243.702 113.483 244.718 113.24 245.759C112.958 246.925 112.766 248.111 112.666 249.306C112.576 250.203 112.655 251.109 112.899 251.977C113.092 252.656 113.509 253.25 114.081 253.664C114.767 254.098 115.571 254.308 116.381 254.264C117.26 254.279 118.126 254.049 118.881 253.599C119.634 253.137 120.284 252.527 120.793 251.806C121.372 250.994 121.845 250.11 122.2 249.178C122.596 248.162 122.918 247.119 123.165 246.057C123.389 245.007 123.546 243.943 123.633 242.873C123.722 241.993 123.664 241.105 123.459 240.245C123.288 239.547 122.892 238.925 122.333 238.473" fill="white"/>
<path d="M248.707 222.725H75.1599C73.7494 222.725 72.3527 223.003 71.0496 223.543C69.7465 224.083 68.5625 224.874 67.5652 225.872C66.5679 226.869 65.7768 228.053 65.2372 229.357C64.6975 230.66 64.4198 232.056 64.4199 233.467V259.467C64.4199 262.315 65.5515 265.047 67.5656 267.061C68.5629 268.059 69.7469 268.85 71.0499 269.389C72.3529 269.929 73.7495 270.207 75.1599 270.207H248.707C251.555 270.207 254.287 269.075 256.301 267.061C258.315 265.047 259.447 262.315 259.447 259.467V233.467C259.447 232.056 259.169 230.66 258.63 229.357C258.09 228.053 257.299 226.869 256.302 225.872C255.304 224.874 254.12 224.083 252.817 223.543C251.514 223.003 250.117 222.725 248.707 222.725ZM100.797 242.98C101.138 242.98 101.345 243.039 101.42 243.15C101.488 243.45 101.467 243.763 101.357 244.05L100.317 248.493C100.165 249.148 99.8169 249.479 99.2769 249.479H88.0369L85.5369 260.16C85.4994 260.412 85.392 260.649 85.2269 260.843C84.9458 260.994 84.6247 261.054 84.3079 261.015H78.2399C77.5849 261.015 77.3209 260.729 77.4569 260.159L82.3569 239.222C82.6062 238.173 82.9879 237.159 83.4929 236.206C84.0036 235.23 84.6804 234.35 85.4929 233.606C86.3588 232.818 87.3663 232.201 88.4619 231.789C89.7405 231.312 91.0974 231.08 92.4619 231.104H105.462C105.803 231.104 106.014 231.157 106.089 231.256C106.164 231.355 106.146 231.645 106.032 232.13L104.904 236.959C104.862 237.236 104.741 237.496 104.557 237.707C104.358 237.851 104.115 237.92 103.87 237.9H93.3119C92.8265 237.885 92.3428 237.965 91.8879 238.135C91.5511 238.262 91.2445 238.458 90.9879 238.711C90.7672 238.933 90.5898 239.193 90.4649 239.48C90.3445 239.756 90.2488 240.043 90.1789 240.336L89.5619 242.984L100.797 242.98ZM129.407 252.469C128.514 254.286 127.312 255.935 125.854 257.34C124.421 258.69 122.729 259.737 120.881 260.416C118.798 261.157 116.6 261.519 114.39 261.485C112.416 261.549 110.452 261.192 108.627 260.439C107.185 259.817 105.976 258.755 105.173 257.405C104.355 255.917 103.916 254.25 103.895 252.552C103.841 250.378 104.083 248.208 104.613 246.099C105.116 243.881 105.913 241.74 106.982 239.733C107.945 237.912 109.198 236.26 110.691 234.84C112.123 233.494 113.799 232.435 115.629 231.719C117.579 230.976 119.652 230.607 121.739 230.632C123.712 230.565 125.676 230.936 127.488 231.719C128.939 232.382 130.161 233.461 130.998 234.819C131.849 236.297 132.317 237.965 132.361 239.67C132.433 241.806 132.207 243.942 131.688 246.015C131.184 248.249 130.419 250.415 129.407 252.469ZM158.207 260.052C157.847 260.403 157.414 260.672 156.939 260.838C156.464 261.004 155.958 261.065 155.457 261.015H153.234C152.875 261.018 152.515 260.997 152.159 260.952C151.866 260.917 151.583 260.83 151.321 260.695C151.06 260.549 150.832 260.353 150.648 260.117C150.405 259.803 150.207 259.458 150.058 259.091L146.174 250.119L144.02 244.819H143.72L140.066 260.119C140.026 260.378 139.918 260.622 139.752 260.825C139.474 260.991 139.148 261.059 138.827 261.018H132.761C132.102 261.018 131.846 260.718 131.99 260.118L138.11 234.483C138.259 233.472 138.716 232.532 139.418 231.79C140.187 231.269 141.111 231.027 142.036 231.105H144.257C144.625 231.101 144.992 231.123 145.357 231.17C145.641 231.207 145.916 231.295 146.17 231.428C146.428 231.57 146.651 231.767 146.825 232.004C147.059 232.327 147.262 232.67 147.433 233.03L151.363 242.174L153.452 247.386H153.752L157.423 232.004C157.466 231.745 157.575 231.502 157.741 231.298C158.018 231.132 158.342 231.064 158.662 231.105H164.732C165.385 231.105 165.645 231.405 165.499 232.005L159.381 257.642C159.189 258.529 158.786 259.357 158.207 260.055M191.507 238.796C191.21 239.984 190.644 241.089 189.854 242.025C189.08 243.008 188.119 243.829 187.027 244.44L186.964 244.696C187.629 244.994 188.219 245.439 188.69 245.996C189.115 246.516 189.441 247.11 189.649 247.748C189.856 248.398 189.957 249.076 189.949 249.758C189.944 250.455 189.861 251.15 189.7 251.829C189.391 253.172 188.825 254.442 188.035 255.571C187.244 256.695 186.269 257.678 185.151 258.477C184.007 259.296 182.742 259.93 181.401 260.355C180.018 260.799 178.573 261.023 177.12 261.018H166.014C164.844 261.018 164.14 260.799 163.901 260.355C163.656 259.657 163.654 258.897 163.895 258.197L169.579 233.925C169.72 233.143 170.068 232.414 170.587 231.812C170.925 231.54 171.313 231.338 171.73 231.216C172.146 231.095 172.583 231.057 173.014 231.104H184.129C185.305 231.092 186.478 231.236 187.617 231.532C188.577 231.772 189.465 232.24 190.205 232.897C190.894 233.545 191.382 234.379 191.61 235.297C191.863 236.454 191.829 237.656 191.51 238.797M219.372 232.129L218.254 236.957C218.212 237.235 218.09 237.494 217.903 237.703C217.705 237.848 217.462 237.917 217.218 237.896H207.048C206.562 237.88 206.079 237.96 205.624 238.131C205.287 238.259 204.981 238.456 204.724 238.709C204.502 238.93 204.325 239.191 204.201 239.478C204.081 239.754 203.985 240.04 203.915 240.332L203.495 242.127H214.944C215.285 242.127 215.492 242.186 215.565 242.297C215.634 242.597 215.612 242.91 215.502 243.197L214.464 247.638C214.31 248.293 213.963 248.62 213.422 248.619H201.963L201.217 251.825C201.098 252.243 201.061 252.679 201.11 253.111C201.141 253.382 201.272 253.631 201.477 253.811C201.693 253.975 201.949 254.079 202.219 254.111C202.554 254.153 202.891 254.174 203.229 254.172H214.087C214.43 254.172 214.637 254.223 214.716 254.324C214.795 254.425 214.775 254.715 214.661 255.198L213.529 260.029C213.377 260.684 213.029 261.011 212.487 261.011H199.278C197.907 261.077 196.538 260.829 195.278 260.285C194.408 259.878 193.683 259.215 193.201 258.385C192.766 257.578 192.543 256.674 192.554 255.757C192.553 254.793 192.664 253.832 192.885 252.894L196.085 239.22C196.334 238.172 196.716 237.16 197.221 236.208C197.732 235.23 198.409 234.347 199.221 233.6C200.089 232.815 201.096 232.199 202.19 231.783C203.471 231.307 204.829 231.075 206.195 231.1H218.803C219.148 231.1 219.355 231.151 219.43 231.252C219.505 231.353 219.487 231.643 219.377 232.124M246.724 232.124L245.605 236.912C245.577 237.188 245.444 237.443 245.235 237.626C245.025 237.808 244.754 237.904 244.477 237.894H237.17L231.97 260.114C231.929 260.373 231.822 260.617 231.658 260.822C231.379 260.986 231.054 261.053 230.733 261.013H224.654C224.001 261.013 223.743 260.713 223.887 260.113L229.087 237.893H221.954C221.354 237.893 221.132 237.566 221.287 236.911L222.404 232.123C222.438 231.795 222.579 231.488 222.804 231.247C223.031 231.13 223.287 231.078 223.542 231.097H246.068C246.301 231.069 246.536 231.122 246.735 231.247C246.84 231.347 246.835 231.638 246.723 232.123" fill="white"/>
<path d="M46.641 393.279C39.5003 384.548 33.4864 374.954 28.741 364.722C26.271 359.234 24.2315 353.562 22.641 347.758C22.095 345.75 21.469 343.122 20.806 339.883C15.969 312.664 21.581 277.704 59.053 250.666V241.822H13.176C13.168 240.25 13.162 238.888 13.162 238.888C13.162 178.496 19.351 144.347 22.641 132.247C40.707 65.888 111.148 36.884 144.479 26.678C152.248 24.299 195.079 14.147 197.686 13.578C177.751 5.575 162.136 0 162.136 0C162.136 0 110.626 15.966 81.683 34.572C44.649 58.344 20.618 87.711 10.267 125.9C6.183 140.918 0 178.011 0 240.007C0 302.003 6.183 339.086 10.267 354.1C20.618 392.286 43.288 423.241 81.683 444.751C91.906 450.478 105.637 458.476 117.328 463.524L152.069 455.248C128.837 448.57 77.443 430.343 46.64 393.282" fill="white"/>
<path d="M199.439 391.481H173.882V417.238H187.982V401.39H195.582L199.439 391.481Z" fill="white"/>
<path d="M215.604 417.238H228.834L217.585 391.477H204.704L194.33 417.238H206.045L208.32 411.996H213.155L215.604 417.238Z" fill="white"/>
<path d="M95.4229 407.337V417.769C109.118 417.769 113.316 414.155 113.316 401.393H116.987V417.237H131.147V391.48H101.659C101.659 405.526 100.085 407.332 95.4229 407.332" fill="white"/>
<path d="M150.124 400.922V391.48H136.024V417.237H137.764L154.847 407.566V417.237H168.947V391.48H167.009L150.124 400.922Z" fill="white"/>
<path d="M19.121 204.668C19.431 196.278 20.751 183.494 21.046 180.368C21.0535 180.275 21.0845 180.185 21.1361 180.107C21.1877 180.03 21.2583 179.966 21.3411 179.923C21.4239 179.88 21.5163 179.858 21.6097 179.861C21.7031 179.863 21.7944 179.889 21.875 179.936C31.108 185.75 53.541 199.086 88.361 204.354C88.361 204.354 88.907 204.429 88.907 204.854C88.907 205.233 88.526 205.306 88.159 205.306H19.748C19.6644 205.308 19.5813 205.292 19.5039 205.26C19.4264 205.229 19.3563 205.182 19.2976 205.122C19.2389 205.063 19.193 204.992 19.1627 204.914C19.1323 204.836 19.1181 204.752 19.121 204.668Z" fill="white"/>
<path d="M305.146 204.668C304.836 196.278 303.974 183.494 303.678 180.368C303.67 180.275 303.639 180.185 303.588 180.107C303.536 180.03 303.466 179.966 303.383 179.923C303.3 179.88 303.207 179.858 303.114 179.861C303.021 179.863 302.929 179.889 302.849 179.936C293.616 185.75 271.183 199.086 236.365 204.354C236.365 204.354 235.819 204.429 235.819 204.854C235.819 205.233 236.198 205.306 236.565 205.306H304.519C304.602 205.308 304.686 205.292 304.763 205.26C304.84 205.229 304.911 205.182 304.969 205.122C305.028 205.063 305.074 204.992 305.104 204.914C305.135 204.836 305.149 204.752 305.146 204.668Z" fill="white"/>
</g>
</svg>
