<svg width="325" height="480" viewBox="0 0 325 480" fill="none" xmlns="http://www.w3.org/2000/svg">
<mask id="mask0_2_5364" style="mask-type:luminance" maskUnits="userSpaceOnUse" x="0" y="0" width="325" height="480">
<path d="M324.27 0H0V480H324.27V0Z" fill="white"/>
</mask>
<g mask="url(#mask0_2_5364)">
<path d="M314.004 125.902C303.652 87.71 280.957 56.122 242.586 34.572C232.671 28.999 217.91 22.047 206.259 17.01L172.359 24.803C203.677 33.827 282.803 63.095 301.634 132.245C304.923 144.345 311.149 178.494 311.149 238.884V241.115C311.149 301.505 304.923 335.654 301.634 347.754C282.042 419.701 200.894 447.732 172.223 455.509C169.223 456.322 127.077 466.391 125.357 466.788C145.237 474.76 162.136 479.998 162.136 479.998C162.136 479.998 213.644 464.034 242.587 445.432C279.627 421.656 303.652 392.282 314.005 354.093C318.126 339.082 324.27 301.993 324.27 240.005C324.27 178.017 318.125 140.914 314.005 125.905" fill="white"/>
<path d="M93.9331 115.126C107.504 103.115 127.36 104.514 144.067 106.647C153.14 107.811 162.467 108.742 171.653 107.747C176.373 107.176 180.986 105.923 185.346 104.028C185.573 103.937 186.188 103.661 186.759 103.397C186.936 103.337 187.094 103.232 187.217 103.093C187.341 102.953 187.426 102.783 187.464 102.601C187.502 102.418 187.491 102.229 187.433 102.052C187.376 101.874 187.272 101.715 187.134 101.59C172.854 84.914 151.311 72.439 128.852 74.472C127.819 74.5767 126.818 74.8854 125.905 75.38C114.074 82.0569 104.387 91.9622 97.9761 103.939C96.8441 105.967 95.9071 108.072 94.9671 110.197C94.5211 111.308 94.0831 112.434 93.6931 113.61C93.3481 114.654 93.0681 115.259 93.3501 115.419C93.4501 115.472 93.6261 115.401 93.9321 115.125" fill="white"/>
<path d="M207.649 154.987C205.274 156.946 202.887 158.858 200.659 160.976C197.589 163.852 194.817 166.904 192.083 169.988C184.525 178.641 178.011 188.071 168.825 195.145C162.074 200.328 154.191 204.283 145.666 205.412C144.893 205.526 144.033 205.612 143.166 205.67C142.819 205.692 142.56 205.644 142.578 205.83C142.592 205.974 142.878 206.185 144.59 206.586C147.44 207.235 150.325 207.714 153.231 208.022C166.654 209.434 180.201 207.002 192.295 201.011C193.204 200.54 194.026 199.918 194.727 199.172C205.394 187.448 209.618 171.203 208.959 155.572C208.959 154.698 208.385 154.457 207.659 154.986" fill="white"/>
<path d="M63.876 166.404C64.1438 166.993 64.5505 167.508 65.0611 167.905C65.5718 168.303 66.1712 168.57 66.808 168.685C70.495 169.679 74.557 169.405 78.254 169.176C82.9302 168.88 87.5861 168.322 92.2 167.505C92.606 167.442 93.056 167.339 93.465 167.278C117.065 163.051 140.06 155.95 161.934 146.133C168.888 142.988 175.716 139.605 182.343 135.916C185.695 134.071 188.999 132.145 192.254 130.138C193.86 129.138 195.46 128.145 197.008 127.108C198.042 126.421 199.178 125.802 200.208 125.048C200.546 124.763 200.782 124.376 200.88 123.946C200.978 123.515 200.933 123.064 200.752 122.661C198.568 118.033 196.006 113.594 193.094 109.386C192.856 109.04 192.498 108.795 192.089 108.7C191.68 108.605 191.25 108.666 190.884 108.871C186.861 111.085 182.59 112.817 178.161 114.03C172.092 115.591 165.83 116.274 159.567 116.056C146.807 115.845 134.129 113.521 121.326 115.103C113.877 116.032 106.226 118.11 100.15 122.671C97.1741 124.9 94.7257 127.758 92.979 131.04C91.1837 134.617 90.158 138.531 89.968 142.529C90.0689 146.99 90.7216 151.421 91.911 155.721C92.418 157.546 92.921 158.933 95.03 158.872C96.494 158.821 97.995 158.685 99.364 158.55C102.777 158.201 106.178 157.75 109.564 157.236C111.018 157.036 112.507 156.794 113.964 156.583C114.55 156.483 115.181 156.383 115.82 156.295C116.27 156.234 116.436 156.37 115.881 156.603C115.249 156.877 114.601 157.116 113.942 157.317C112.52 157.794 111.091 158.199 109.606 158.574C106.878 159.337 104.094 159.979 101.306 160.565C95.638 161.765 89.949 162.855 84.239 163.665C81.43 164.046 78.616 164.381 75.772 164.49C74.4828 164.582 73.1877 164.548 71.905 164.39C71.019 164.281 69.538 164.153 69.037 163.283C68.151 161.76 71.11 159.588 72.093 158.854C73.1404 158.076 74.237 157.367 75.376 156.731C75.623 156.591 75.792 156.506 75.913 156.443C76.485 156.143 76.783 155.973 76.713 155.8C76.643 155.627 75.74 155.857 75.74 155.857C75.2292 155.985 74.728 156.148 74.24 156.346C73.0763 156.803 71.9465 157.341 70.859 157.958C68.9959 158.901 67.2734 160.099 65.741 161.517C64.534 162.774 63.196 164.581 63.881 166.402" fill="white"/>
<path d="M202.849 131.709C192.249 138.853 181.105 144.866 169.733 150.788C152.116 159.914 134.256 167.967 115.214 173.43C108.779 175.269 102.363 176.878 95.8901 178.321C92.9191 178.97 89.9501 179.651 86.9751 180.244C85.4481 180.579 83.9591 180.844 82.4181 181.096C81.0181 181.339 79.6181 181.56 78.2121 181.763C77.5351 181.877 76.9451 181.946 76.3121 182.057C75.8721 182.122 75.6831 182.181 75.6981 182.331C75.7141 182.503 75.9391 182.538 76.3231 182.57C78.0231 182.67 80.8231 182.598 81.7881 182.582C85.5641 182.639 89.3221 182.556 93.1181 182.341C95.4081 182.266 97.7341 182.116 100.018 181.903C102.07 181.725 103.407 181.327 104.926 183.231C105.689 184.172 106.499 185.073 107.353 185.931C107.743 186.325 108.214 186.63 108.734 186.823C109.254 187.016 109.809 187.093 110.362 187.048C114.495 187.089 125.813 184.355 126.322 184.381C126.474 184.391 126.486 184.442 126.373 184.529C125.284 185.373 112.53 189.529 101.468 190.522C100.468 190.609 99.4681 190.765 98.4181 190.877C97.8261 190.956 97.5361 191.003 97.5401 191.169C97.5441 191.335 97.8771 191.364 98.5171 191.364C101.873 191.423 106.592 191.295 111.052 191.257C112.476 191.205 113.885 191.568 115.106 192.303C115.992 192.903 117.491 193.666 118.172 194.035C123.052 196.521 128.41 197.93 133.882 198.166C144.644 198.712 155.167 194.952 163.928 188.734C174.792 180.987 182.457 169.728 191.877 160.389C194.39 157.889 197.144 155.508 199.859 153.228C201.259 152.068 202.678 150.977 204.116 149.843C204.805 149.328 205.456 148.837 206.178 148.32C206.63 147.996 206.884 147.811 207.218 147.555C207.546 147.267 207.784 146.89 207.903 146.469C208.022 146.049 208.017 145.604 207.889 145.186C207.198 140.81 206.12 136.504 204.667 132.319C204.624 132.133 204.534 131.96 204.405 131.819C204.277 131.677 204.115 131.57 203.933 131.509C203.752 131.447 203.558 131.433 203.37 131.467C203.182 131.502 203.006 131.583 202.858 131.705" fill="white"/>
<path d="M225.852 113.039C221.022 117.635 215.906 121.919 210.533 125.866C210.267 126.093 210.073 126.393 209.976 126.729C209.878 127.065 209.881 127.422 209.983 127.756C211.47 131.934 212.642 136.218 213.489 140.571C213.534 140.798 213.651 141.571 213.767 142.371C213.77 142.513 213.811 142.652 213.885 142.772C213.96 142.893 214.066 142.991 214.192 143.057C214.319 143.122 214.46 143.152 214.602 143.144C214.744 143.136 214.88 143.09 214.998 143.01C217.123 141.947 219.314 141.022 221.558 140.242C224.365 139.226 227.295 138.589 230.27 138.348C230.416 138.349 230.561 138.321 230.696 138.266C230.831 138.21 230.953 138.128 231.056 138.024C231.158 137.92 231.239 137.797 231.293 137.662C231.347 137.526 231.373 137.381 231.37 137.235C231.362 134.998 231.218 132.935 230.993 130.667C230.489 124.717 229.177 118.863 227.093 113.267C226.856 112.636 226.328 112.573 225.85 113.046" fill="white"/>
<path d="M202.287 111.261L202.451 111.555C203.921 114.084 205.276 116.668 206.515 119.308C206.572 119.448 206.661 119.574 206.774 119.674C206.888 119.774 207.023 119.847 207.169 119.887C207.315 119.927 207.468 119.933 207.617 119.904C207.765 119.875 207.905 119.812 208.026 119.72C209.413 118.755 211.826 117.053 212.94 116.232C213.692 115.658 214.44 115.086 215.177 114.524L217.31 112.806C218.687 111.656 219.995 110.519 221.187 109.406C221.94 108.698 222.647 108.004 223.31 107.325C223.544 107.06 223.696 106.733 223.75 106.384C223.803 106.034 223.754 105.677 223.61 105.354C220.191 98.6543 215.729 92.5402 210.392 87.24C209.913 86.767 209.425 86.928 209.269 87.583C209.113 88.238 208.926 88.883 208.701 89.536C207.953 91.7058 206.935 93.773 205.671 95.689C204.293 97.7928 202.694 99.7438 200.903 101.509C200.349 102.048 199.346 102.914 198.603 103.541C198.355 103.758 198.194 104.058 198.151 104.384C198.107 104.711 198.184 105.043 198.366 105.317C199.466 106.917 201.406 109.847 202.29 111.261" fill="white"/>
<path d="M226.476 144.647C222.58 145.624 218.872 147.241 215.505 149.431C215.253 149.618 215.051 149.866 214.92 150.152C214.789 150.437 214.731 150.751 214.753 151.065C214.8 151.596 214.832 152.051 214.838 152.18C215.493 165.962 212.609 180.05 205.457 191.899C205.218 192.262 205.092 192.449 205.197 192.548C205.302 192.647 205.467 192.509 205.805 192.222C206.521 191.622 207.21 191.005 207.884 190.372C220.832 178.751 229.042 162.766 230.946 145.472C230.972 145.324 230.969 145.171 230.936 145.024C230.903 144.877 230.841 144.738 230.755 144.615C230.668 144.491 230.558 144.386 230.431 144.305C230.303 144.225 230.161 144.17 230.013 144.144C228.817 144.15 227.627 144.318 226.476 144.644" fill="white"/>
<path d="M196.81 97.179C198.372 95.779 199.782 94.2177 201.016 92.521C202.102 91.0367 202.997 89.4221 203.681 87.715C204.075 86.7272 204.373 85.7038 204.571 84.659C204.61 84.442 204.662 83.943 204.709 83.45C204.72 83.0785 204.648 82.7092 204.497 82.3692C204.347 82.0293 204.123 81.7271 203.841 81.485C189.491 70.306 171.389 65.0781 153.288 66.885C150.723 67.1449 148.173 67.5408 145.649 68.071C143.373 68.489 141.134 69.0893 138.954 69.866C138.826 69.921 138.788 69.947 138.794 70.012C138.8 70.077 138.906 70.077 138.944 70.081C141.939 70.2385 144.921 70.5909 147.871 71.136C164.835 74.348 180.171 83.989 191.713 96.802C191.987 97.108 192.613 97.848 193.157 98.502C193.365 98.7538 193.661 98.9163 193.986 98.9559C194.31 98.9955 194.637 98.9093 194.899 98.715C195.546 98.22 196.355 97.587 196.807 97.182" fill="white"/>
<path d="M264.028 92.716C264.022 92.716 265.318 92.527 265.328 91.895C265.338 91.263 264.02 91.076 264.028 91.082C252.862 88.624 249.252 85.004 246.797 73.84C246.797 73.84 246.606 72.54 245.976 72.54C245.346 72.54 245.169 73.856 245.165 73.84C242.697 85 239.093 88.622 227.925 91.078C227.925 91.078 226.633 91.232 226.625 91.891C226.641 92.546 227.925 92.718 227.925 92.718C239.093 95.17 242.705 98.782 245.165 109.941C245.165 109.941 245.275 111.241 245.976 111.247C246.676 111.237 246.797 109.939 246.797 109.939C249.251 98.792 252.873 95.171 264.028 92.716Z" fill="white"/>
<path d="M305.627 242.651C305.619 242.504 305.554 242.366 305.446 242.266C305.337 242.166 305.194 242.113 305.047 242.118H264.391V250.548C304.97 260.876 302.851 298.793 302.851 298.793C302.851 298.793 306.305 265.231 305.627 242.651Z" fill="white"/>
<path d="M181.324 238.024H176.696L175.735 242.124H180.194C180.778 242.119 181.352 241.972 181.867 241.696C182.163 241.517 182.416 241.275 182.608 240.988C182.8 240.7 182.926 240.374 182.978 240.032C183.066 239.784 183.092 239.517 183.053 239.257C183.014 238.996 182.912 238.749 182.755 238.537C182.568 238.353 182.343 238.212 182.096 238.123C181.849 238.035 181.585 238.001 181.324 238.024Z" fill="white"/>
<path d="M179.27 248.449H174.255L172.945 254.049H177.958C178.459 254.06 178.958 253.973 179.426 253.793C180.167 253.48 180.778 252.922 181.156 252.211C181.306 251.912 181.422 251.596 181.499 251.27C181.605 250.933 181.636 250.576 181.589 250.225C181.543 249.875 181.421 249.538 181.231 249.24C180.994 248.957 180.692 248.737 180.349 248.599C180.007 248.461 179.637 248.409 179.27 248.449Z" fill="white"/>
<path d="M122.34 238.472C121.664 237.993 120.844 237.759 120.016 237.809C119.196 237.807 118.391 238.029 117.688 238.452C116.936 238.9 116.276 239.487 115.743 240.182C115.142 240.964 114.641 241.817 114.252 242.723C113.822 243.702 113.483 244.718 113.24 245.759C112.958 246.925 112.766 248.111 112.666 249.306C112.576 250.203 112.655 251.109 112.899 251.977C113.092 252.656 113.509 253.25 114.081 253.664C114.767 254.098 115.571 254.308 116.381 254.264C117.26 254.279 118.126 254.049 118.881 253.599C119.634 253.137 120.284 252.527 120.793 251.806C121.372 250.994 121.845 250.11 122.2 249.178C122.596 248.162 122.918 247.119 123.165 246.057C123.389 245.007 123.546 243.943 123.633 242.873C123.722 241.993 123.664 241.105 123.459 240.245C123.288 239.547 122.893 238.924 122.334 238.472" fill="white"/>
<path d="M248.707 222.725H75.1599C73.7494 222.725 72.3527 223.003 71.0496 223.543C69.7465 224.083 68.5625 224.874 67.5652 225.872C66.5679 226.869 65.7768 228.053 65.2372 229.357C64.6975 230.66 64.4198 232.056 64.4199 233.467V259.467C64.4199 262.315 65.5515 265.047 67.5656 267.061C68.5629 268.059 69.7469 268.85 71.0499 269.389C72.3529 269.929 73.7495 270.207 75.1599 270.207H248.707C251.555 270.207 254.287 269.075 256.301 267.061C258.315 265.047 259.447 262.315 259.447 259.467V233.467C259.447 232.056 259.169 230.66 258.63 229.357C258.09 228.053 257.299 226.869 256.302 225.872C255.304 224.874 254.12 224.083 252.817 223.543C251.514 223.003 250.117 222.725 248.707 222.725ZM100.797 242.98C101.138 242.98 101.345 243.039 101.42 243.15C101.488 243.45 101.467 243.763 101.357 244.05L100.317 248.493C100.165 249.148 99.8169 249.479 99.2769 249.479H88.0369L85.5369 260.16C85.4994 260.412 85.3921 260.649 85.2269 260.843C84.9458 260.994 84.6247 261.054 84.3079 261.015H78.2399C77.5849 261.015 77.3209 260.729 77.4569 260.159L82.3569 239.222C82.6062 238.173 82.9879 237.159 83.4929 236.206C84.0036 235.23 84.6804 234.35 85.4929 233.606C86.3588 232.818 87.3662 232.201 88.4619 231.789C89.7405 231.312 91.0974 231.08 92.4619 231.104H105.462C105.803 231.104 106.014 231.157 106.089 231.256C106.164 231.355 106.146 231.645 106.032 232.13L104.904 236.958C104.862 237.235 104.741 237.495 104.557 237.706C104.358 237.85 104.115 237.919 103.87 237.899H93.3119C92.8265 237.884 92.3428 237.964 91.8879 238.134C91.551 238.261 91.2445 238.457 90.9879 238.71C90.7672 238.932 90.5899 239.192 90.4649 239.479C90.3445 239.755 90.2488 240.042 90.1789 240.335L89.5629 242.983L100.797 242.98ZM129.407 252.469C128.514 254.286 127.312 255.935 125.854 257.34C124.421 258.69 122.729 259.737 120.881 260.416C118.798 261.157 116.6 261.519 114.39 261.485C112.416 261.549 110.452 261.192 108.627 260.439C107.185 259.817 105.976 258.755 105.173 257.405C104.355 255.917 103.916 254.25 103.895 252.552C103.841 250.378 104.083 248.208 104.613 246.099C105.116 243.881 105.913 241.74 106.982 239.733C107.945 237.912 109.198 236.26 110.691 234.84C112.123 233.494 113.799 232.435 115.629 231.719C117.579 230.976 119.652 230.607 121.739 230.632C123.712 230.565 125.676 230.936 127.488 231.719C128.939 232.382 130.161 233.461 130.998 234.819C131.849 236.297 132.317 237.965 132.361 239.67C132.433 241.806 132.207 243.942 131.688 246.015C131.184 248.249 130.419 250.415 129.407 252.469ZM158.207 260.052C157.847 260.403 157.414 260.672 156.939 260.838C156.464 261.004 155.958 261.065 155.457 261.015H153.234C152.875 261.018 152.515 260.997 152.159 260.952C151.866 260.917 151.582 260.83 151.321 260.694C151.06 260.548 150.831 260.352 150.648 260.116C150.405 259.802 150.207 259.457 150.058 259.09L146.174 250.118L144.02 244.818H143.72L140.066 260.118C140.026 260.377 139.918 260.621 139.752 260.824C139.474 260.99 139.148 261.058 138.827 261.017H132.761C132.102 261.017 131.846 260.717 131.99 260.117L138.11 234.482C138.259 233.471 138.716 232.531 139.418 231.789C140.187 231.268 141.111 231.027 142.036 231.104H144.257C144.625 231.1 144.992 231.122 145.357 231.169C145.641 231.206 145.916 231.293 146.17 231.426C146.428 231.568 146.651 231.765 146.825 232.002C147.059 232.325 147.262 232.668 147.433 233.028L151.363 242.172L153.452 247.384H153.752L157.423 232.002C157.466 231.743 157.575 231.5 157.741 231.296C158.018 231.13 158.342 231.062 158.662 231.103H164.732C165.385 231.103 165.645 231.403 165.499 232.003L159.381 257.64C159.189 258.527 158.786 259.355 158.207 260.053M191.507 238.794C191.21 239.982 190.644 241.087 189.854 242.023C189.08 243.006 188.119 243.827 187.027 244.438L186.964 244.694C187.629 244.992 188.219 245.437 188.69 245.994C189.115 246.514 189.441 247.108 189.649 247.746C189.856 248.396 189.957 249.074 189.949 249.756C189.944 250.453 189.861 251.148 189.7 251.827C189.39 253.17 188.825 254.44 188.035 255.569C187.244 256.693 186.269 257.676 185.151 258.475C184.007 259.294 182.742 259.928 181.401 260.353C180.018 260.797 178.573 261.021 177.12 261.016H166.014C164.844 261.016 164.14 260.797 163.901 260.353C163.656 259.655 163.654 258.895 163.895 258.195L169.579 233.923C169.72 233.141 170.068 232.412 170.587 231.81C170.925 231.538 171.313 231.336 171.73 231.214C172.146 231.093 172.583 231.055 173.014 231.102H184.129C185.305 231.09 186.478 231.234 187.617 231.53C188.577 231.77 189.465 232.239 190.205 232.897C190.893 233.544 191.381 234.375 191.61 235.292C191.863 236.449 191.829 237.651 191.51 238.792M219.372 232.124L218.254 236.957C218.212 237.235 218.09 237.494 217.903 237.703C217.705 237.848 217.462 237.917 217.218 237.896H207.048C206.562 237.88 206.079 237.96 205.624 238.131C205.287 238.259 204.981 238.456 204.724 238.709C204.502 238.93 204.325 239.191 204.201 239.478C204.081 239.754 203.985 240.04 203.915 240.332L203.495 242.127H214.944C215.285 242.127 215.492 242.186 215.565 242.297C215.634 242.597 215.612 242.91 215.502 243.197L214.464 247.638C214.31 248.293 213.963 248.621 213.422 248.62H201.963L201.217 251.826C201.097 252.244 201.061 252.68 201.109 253.112C201.14 253.383 201.271 253.632 201.476 253.812C201.692 253.976 201.948 254.08 202.218 254.112C202.553 254.154 202.89 254.175 203.228 254.173H214.086C214.429 254.173 214.636 254.224 214.715 254.325C214.794 254.426 214.774 254.716 214.66 255.199L213.528 260.03C213.376 260.685 213.028 261.012 212.486 261.012H199.278C197.907 261.078 196.538 260.83 195.278 260.286C194.408 259.879 193.683 259.216 193.201 258.386C192.766 257.579 192.543 256.675 192.554 255.758C192.553 254.794 192.664 253.833 192.885 252.895L196.085 239.221C196.334 238.173 196.716 237.161 197.221 236.21C197.732 235.232 198.409 234.349 199.221 233.602C200.089 232.817 201.096 232.201 202.19 231.785C203.471 231.309 204.829 231.077 206.195 231.102H218.803C219.148 231.102 219.355 231.153 219.43 231.254C219.505 231.355 219.487 231.645 219.377 232.126M246.724 232.126L245.605 236.914C245.577 237.19 245.444 237.445 245.235 237.628C245.025 237.81 244.754 237.906 244.477 237.896H237.17L231.97 260.116C231.929 260.375 231.822 260.619 231.658 260.824C231.379 260.988 231.054 261.055 230.733 261.015H224.654C224.001 261.015 223.743 260.715 223.887 260.115L229.087 237.895H221.954C221.354 237.895 221.132 237.568 221.287 236.913L222.404 232.125C222.438 231.797 222.579 231.49 222.804 231.249C223.031 231.132 223.287 231.08 223.542 231.099H246.068C246.301 231.071 246.536 231.124 246.735 231.249C246.84 231.349 246.835 231.64 246.723 232.125" fill="white"/>
<path d="M46.641 393.279C39.5002 384.548 33.4863 374.954 28.741 364.722C26.271 359.234 24.2315 353.562 22.641 347.758C22.095 345.75 21.469 343.122 20.806 339.883C15.969 312.664 21.581 277.704 59.053 250.666V241.822H13.176C13.168 240.25 13.162 238.888 13.162 238.888C13.162 178.496 19.351 144.347 22.641 132.247C40.707 65.888 111.147 36.884 144.479 26.678C152.248 24.299 195.079 14.147 197.686 13.578C177.751 5.575 162.136 0 162.136 0C162.136 0 110.626 15.966 81.683 34.572C44.649 58.344 20.618 87.711 10.267 125.9C6.183 140.918 0 178.011 0 240.007C0 302.003 6.183 339.086 10.267 354.1C20.618 392.286 43.288 423.241 81.683 444.751C91.906 450.478 105.637 458.476 117.328 463.524L152.069 455.248C128.837 448.57 77.443 430.343 46.64 393.282" fill="white"/>
<path d="M19.121 204.668C19.431 196.278 20.751 183.494 21.046 180.368C21.0535 180.275 21.0845 180.185 21.1361 180.107C21.1877 180.03 21.2583 179.966 21.3411 179.923C21.4239 179.88 21.5163 179.858 21.6097 179.861C21.7031 179.863 21.7944 179.889 21.875 179.936C31.108 185.75 53.541 199.086 88.361 204.354C88.361 204.354 88.907 204.429 88.907 204.854C88.907 205.233 88.526 205.306 88.159 205.306H19.748C19.6644 205.308 19.5813 205.292 19.5039 205.26C19.4264 205.229 19.3563 205.182 19.2976 205.122C19.2389 205.063 19.193 204.992 19.1627 204.914C19.1323 204.836 19.1181 204.752 19.121 204.668Z" fill="white"/>
<path d="M305.146 204.668C304.836 196.278 303.974 183.494 303.678 180.368C303.67 180.275 303.639 180.185 303.588 180.107C303.536 180.03 303.466 179.966 303.383 179.923C303.3 179.88 303.207 179.858 303.114 179.861C303.021 179.863 302.929 179.889 302.849 179.936C293.616 185.75 271.183 199.086 236.365 204.354C236.365 204.354 235.819 204.429 235.819 204.854C235.819 205.233 236.198 205.306 236.565 205.306H304.519C304.602 205.308 304.686 205.292 304.763 205.26C304.84 205.229 304.911 205.182 304.969 205.122C305.028 205.063 305.074 204.992 305.104 204.914C305.135 204.836 305.149 204.752 305.146 204.668Z" fill="white"/>
<path d="M205.497 378.509H175.786V408.462H192.186V390.029H201.022L205.497 378.509Z" fill="white"/>
<path d="M224.298 408.462H239.682L226.602 378.507H211.625L199.561 408.462H213.183L215.829 402.362H221.455L224.298 408.462Z" fill="white"/>
<path d="M84.5532 396.941V409.07C100.478 409.07 105.353 404.87 105.353 390.03H109.622V408.461H126.093V378.507H91.8032C91.8032 394.84 89.9742 396.941 84.5532 396.941Z" fill="white"/>
<path d="M148.161 389.488V378.508H131.761V408.462H133.788L153.654 397.213V408.462H170.054V378.508H167.797L148.161 389.488Z" fill="white"/>
<path d="M66.7289 324.004C72.7949 321.57 75.9289 315.783 75.9289 305.712C75.9289 293.974 69.0239 287.185 58.6489 287.112H46.9609V361.521H58.6539C69.8139 361.521 76.7249 354.721 76.7249 341.856C76.7249 332.341 73.2899 326.438 66.7249 324.006M59.1139 296.679C61.9629 296.679 64.2449 298.804 64.2449 306.779C64.2449 316.45 61.9639 318.47 59.1139 318.47H58.6539V296.68L59.1139 296.679ZM59.1809 351.953H58.6539V329.633H59.1849C62.2669 329.633 65.0299 332.29 65.0299 340.263C65.0299 349.297 62.2679 351.954 59.1849 351.954" fill="white"/>
<path d="M199.566 350.889H194.784V287.111H183.091V350.89H178.307V287.111H166.614V361.518H211.255V287.111H199.566V350.889Z" fill="white"/>
<path d="M221.358 287.11L214.98 361.519H226.671L227.521 347.699H234.321L235.171 361.519H246.871L240.493 287.11H221.358ZM230.926 295.735L230.95 296.092H230.901L230.926 295.735ZM228.162 337.071L230.715 298.871H231.135L233.688 337.071H228.162Z" fill="white"/>
<path d="M266.571 287.112C256.271 287.169 249.031 294.579 249.031 312.712C249.031 323.393 251.546 330.345 255.713 334.273L247.66 361.514H259.213L266.195 335.276H266.57V361.514H278.263V287.112H266.571ZM266.046 296.676H266.571V328.797H266.046C263.385 328.797 260.725 326.416 260.725 312.736C260.725 299.056 263.386 296.677 266.046 296.677" fill="white"/>
<path d="M149.001 346.162C149.001 352.008 147.938 353.071 146.344 353.071C144.75 353.071 143.685 352.008 143.685 346.162V302.581C143.685 296.734 144.748 295.672 146.344 295.672C147.94 295.672 149.001 296.735 149.001 302.581V318.523H161.593C161.593 287.167 153.323 286.102 146.349 286.102C137.842 286.102 130.405 293.545 130.405 324.369C130.405 355.193 137.841 362.634 146.349 362.634C153.098 362.634 161.626 361.573 161.626 329.153H149.001V346.162Z" fill="white"/>
<path d="M93.772 310.326C93.628 310.326 93.484 310.314 93.338 310.314V287.114H81.645V361.521H93.338C103.638 361.464 110.878 354.054 110.878 335.921C110.878 322.129 106.69 314.546 100.154 311.677L113.396 296.013V361.526H125.085V287.112H113.397L93.772 310.326ZM93.863 351.956H93.338V319.834H93.863C96.524 319.834 99.184 322.213 99.184 335.895C99.184 349.577 96.523 351.954 93.863 351.954" fill="white"/>
</g>
</svg>
