<svg width="309" height="480" viewBox="0 0 309 480" fill="none" xmlns="http://www.w3.org/2000/svg">
<mask id="mask0_2_7786" style="mask-type:luminance" maskUnits="userSpaceOnUse" x="0" y="0" width="309" height="480">
<path d="M308.847 0H0.5V480H308.847V0Z" fill="white"/>
</mask>
<g mask="url(#mask0_2_7786)">
<path d="M93.8094 31.723C109.177 34.453 124.999 36.799 140.725 35.852C148.816 35.2635 156.778 33.5053 164.363 30.632C164.763 30.492 165.825 30.078 166.829 29.671C167.135 29.5836 167.412 29.4179 167.634 29.1903C167.855 28.9628 168.014 28.6812 168.093 28.3736C168.172 28.066 168.17 27.7431 168.086 27.4367C168.002 27.1303 167.839 26.8512 167.614 26.627C159.929 16.7358 151.016 7.86254 141.09 0.221008H141.084C83.6203 2.13101 36.6634 14.968 34.5384 15.556L27.0514 17.629L26.9464 18.264L25.7734 25.29C25.6594 26.09 25.2784 28.581 24.7354 32.013C46.2804 24.039 71.5934 27.799 93.8094 31.721" fill="white"/>
<path d="M198.207 119.294C193.993 122.437 189.775 125.502 185.8 128.929C180.331 133.573 175.364 138.556 170.446 143.583C156.863 157.708 144.998 173.242 128.762 184.547C116.834 192.821 103.082 198.923 88.4619 200.147C87.1189 200.275 85.6529 200.356 84.1619 200.386C83.5739 200.394 83.1319 200.286 83.1499 200.605C83.1599 200.85 83.6269 201.234 86.5179 202.059C91.3181 203.398 96.1933 204.453 101.118 205.217C110.932 206.719 120.892 207.021 130.779 206.117C143.708 204.921 156.361 201.661 168.259 196.462C169.848 195.736 171.3 194.742 172.552 193.524C191.69 174.424 200.219 147.088 200.375 120.404C200.446 118.911 199.481 118.453 198.201 119.293" fill="white"/>
<path d="M189.312 64.027C185.894 55.8364 181.822 47.9348 177.134 40.399C176.756 39.7903 176.165 39.3447 175.476 39.1495C174.787 38.9543 174.049 39.0237 173.409 39.344C166.372 42.7908 158.951 45.3893 151.302 47.085C140.949 49.45 130.035 49.699 119.453 49.024C97.7297 47.624 76.3147 42.624 54.3697 44.268C43.4757 45.099 31.2207 47.705 21.5007 52.868C19.0117 69.549 14.1837 108.053 12.9117 118.234C12.7117 119.84 12.5527 121.081 12.5527 121.081C100.933 118.881 186.376 69.255 188.177 68.052C188.776 67.5947 189.211 66.9544 189.414 66.2281C189.617 65.5018 189.578 64.7291 189.303 64.027" fill="white"/>
<path d="M175.812 18.85C176.252 19.389 177.258 20.699 178.136 21.855C178.469 22.3003 178.961 22.6012 179.509 22.6958C180.057 22.7905 180.621 22.6717 181.085 22.364C182.227 21.571 183.663 20.557 184.464 19.902C187.243 17.648 189.772 15.1017 192.008 12.307C193.98 9.86897 195.636 7.19101 196.936 4.337C197.283 3.572 197.591 2.816 197.857 2.074C185.144 0.84 171.654 0.112 157.475 0C157.491 0.016 157.507 0.028 157.524 0.043C164.153 5.77075 170.272 12.0634 175.812 18.85Z" fill="white"/>
<path d="M209.658 98.294C209.652 98.5362 209.712 98.7753 209.831 98.9864C209.95 99.1975 210.123 99.3729 210.333 99.4941C210.543 99.6153 210.781 99.6779 211.023 99.6754C211.265 99.673 211.503 99.6055 211.71 99.48C215.415 97.8406 219.222 96.4424 223.107 95.294C227.972 93.7915 233.017 92.947 238.107 92.783C238.356 92.7978 238.606 92.7623 238.841 92.6786C239.076 92.5948 239.292 92.4646 239.476 92.2956C239.66 92.1265 239.807 91.9222 239.91 91.6948C240.014 91.4674 240.07 91.2216 240.076 90.972C240.252 87.159 240.167 83.639 239.976 79.753C239.566 69.4064 237.767 59.1619 234.63 49.294C234.597 49.0643 234.495 48.8501 234.337 48.6794C234.18 48.5088 233.975 48.3897 233.748 48.3379C233.522 48.2861 233.286 48.3039 233.07 48.389C232.854 48.4742 232.669 48.6227 232.539 48.815C222.239 59.078 206.389 69.273 205.488 69.902C205.017 70.2675 204.664 70.7631 204.473 71.3274C204.281 71.8916 204.26 72.4996 204.411 73.076C206.601 80.3178 208.247 87.7135 209.333 95.201C209.39 95.59 209.533 96.925 209.657 98.288" fill="white"/>
<path d="M190.949 183.099C191.119 183.275 191.417 183.06 192.018 182.588C193.289 181.641 194.51 180.637 195.709 179.613C218.723 160.873 234.023 134.308 238.682 104.997C238.739 104.746 238.746 104.487 238.703 104.233C238.659 103.98 238.566 103.738 238.428 103.52C238.291 103.303 238.112 103.115 237.901 102.967C237.691 102.819 237.453 102.715 237.202 102.659C235.16 102.565 233.114 102.751 231.122 103.211C224.406 104.557 217.961 107.011 212.051 110.473C211.604 110.772 211.239 111.179 210.99 111.655C210.74 112.132 210.614 112.663 210.623 113.201C210.664 114.101 210.684 114.88 210.684 115.101C210.668 138.633 204.61 162.401 191.449 182.021C191.011 182.613 190.782 182.921 190.949 183.098" fill="white"/>
<path d="M19.7962 238.277C20.1142 229.683 21.4652 216.586 21.7672 213.377C21.7751 213.282 21.807 213.19 21.86 213.11C21.913 213.03 21.9853 212.965 22.0702 212.921C22.1551 212.877 22.2498 212.855 22.3455 212.858C22.4411 212.86 22.5346 212.887 22.6172 212.935C32.0752 218.891 55.0542 232.551 90.7172 237.948C90.7172 237.948 91.2772 238.025 91.2772 238.461C91.2772 238.85 90.8882 238.925 90.5102 238.925H20.4372C20.3518 238.926 20.267 238.91 20.1879 238.878C20.1089 238.846 20.0372 238.798 19.9773 238.737C19.9173 238.676 19.8704 238.604 19.8393 238.524C19.8081 238.444 19.7935 238.359 19.7962 238.274" fill="white"/>
<path d="M290.221 238.277C289.903 229.683 289.021 216.586 288.721 213.377C288.713 213.282 288.681 213.19 288.627 213.11C288.574 213.03 288.502 212.966 288.417 212.921C288.332 212.877 288.237 212.855 288.141 212.858C288.045 212.86 287.952 212.887 287.869 212.935C278.413 218.891 255.432 232.551 219.769 237.948C219.769 237.948 219.211 238.025 219.211 238.461C219.211 238.85 219.6 238.925 219.975 238.925H289.58C289.665 238.926 289.75 238.91 289.829 238.878C289.908 238.846 289.98 238.798 290.04 238.737C290.1 238.676 290.147 238.604 290.178 238.524C290.209 238.444 290.224 238.359 290.221 238.274" fill="white"/>
<path d="M199.399 102.616C198.582 95.1027 197.094 87.6776 194.952 80.43C194.896 80.1094 194.758 79.8085 194.553 79.5563C194.347 79.304 194.08 79.1088 193.777 78.9893C193.475 78.8699 193.146 78.8302 192.824 78.8741C192.501 78.918 192.196 79.044 191.936 79.24C191.936 79.24 110.725 130.924 9.90381 142.84L9.20381 149.323C1.25581 225.686 -5.24619 317.864 8.47981 365.212C18.4088 399.472 41.5898 429.082 78.1618 448.275C87.6348 453.248 100.762 460.112 111.562 464.531L143.642 455.997C143.642 455.997 85.8418 443.412 46.7628 405.061C24.9688 383.679 -5.44819 322.289 61.8058 282.472V274.458H13.7438C13.7438 274.458 13.1358 257.858 15.3378 221.817L16.8378 199.94C17.8618 185.566 19.1838 172.514 20.5528 158.645C20.6528 158.765 20.7438 158.882 20.8408 159.016C20.8408 159.016 26.7408 168.967 42.5198 178.516C50.5992 183.225 59.6297 186.068 68.9498 186.835C87.2498 188.652 105.489 183.108 120.922 173.227C140.066 160.919 154.055 142.36 170.872 127.213C175.498 123.035 180.557 119.077 185.52 115.313C188.02 113.419 190.574 111.613 193.169 109.854C194.169 109.173 195.154 108.503 196.225 107.814C197.014 107.307 197.468 107.014 198.048 106.603C199.474 105.619 199.557 104.123 199.399 102.62" fill="white"/>
<path d="M284.428 25.29L283.134 17.628L275.664 15.555C253.118 9.66606 230.158 5.49181 206.982 3.06799L205.345 7.84799C203.894 11.4883 201.989 14.9306 199.675 18.093C197.157 21.5631 194.276 24.7542 191.081 27.612C190.043 28.529 188.151 30.012 186.81 31.029C186.417 31.3343 186.149 31.7728 186.057 32.2618C185.965 32.7508 186.055 33.2567 186.31 33.684C188.026 36.462 191.21 41.806 192.637 44.347L192.901 44.864C195.234 49.344 197.353 53.917 199.257 58.583C199.337 58.8027 199.466 59.0012 199.634 59.1636C199.803 59.3259 200.006 59.4479 200.228 59.5201C200.451 59.5924 200.687 59.6131 200.918 59.5807C201.15 59.5483 201.371 59.4636 201.565 59.333C211.223 53.2928 220.255 46.3053 228.528 38.474C228.948 38.04 229.234 37.4944 229.353 36.9022C229.471 36.3101 229.417 35.6963 229.197 35.134C226.227 28.6723 222.644 22.5106 218.497 16.734C236.351 19.2518 254.059 22.7123 271.548 27.101C272.459 32.619 278.127 70.866 283.657 116.138C259.044 195.258 187.837 225.744 187.837 225.744C187.837 225.744 187.103 226.054 187.237 226.612C187.444 227.464 188.47 227.112 188.47 227.112C205.197 221.27 248.221 206.326 288.626 158.939C290.309 175.173 291.942 182.861 293.219 199.871L294.708 221.955C296.716 256.055 297.318 289.406 295.199 317.24L294.99 320.04C293.953 333.364 291.771 346.574 288.47 359.524C271.766 422.855 203.952 446.963 171.906 454.955C165.163 456.636 122.481 467.593 119.713 468.062C138.818 475.262 155.099 480.005 155.099 480.005C155.099 480.005 204.311 465.68 232.011 448.986C267.425 427.654 290.385 399.478 300.326 365.218C325.828 277.246 286.114 35.539 284.428 25.29Z" fill="white"/>
<path d="M291.266 274.965C291.261 274.826 291.202 274.695 291.101 274.6C291 274.504 290.866 274.453 290.727 274.456H247.912V282.556C285.557 292.503 288.676 328.602 288.676 328.602C288.676 328.602 291.894 296.536 291.264 274.963" fill="white"/>
<path d="M174.516 230.571C174.508 230.571 175.907 230.364 175.916 229.685C175.91 229.008 174.505 228.799 174.516 228.809C162.474 226.154 158.582 222.251 155.934 210.215C155.934 210.215 155.727 208.815 155.048 208.815C154.369 208.815 154.178 210.234 154.172 210.215C151.511 222.249 147.624 226.157 135.582 228.805C135.582 228.805 134.189 228.971 134.182 229.681C134.198 230.387 135.582 230.573 135.582 230.573C147.624 233.217 151.522 237.113 154.172 249.151C154.172 249.151 154.29 250.551 155.048 250.556C155.806 250.546 155.934 249.145 155.934 249.145C158.58 237.119 162.482 233.215 174.516 230.569" fill="white"/>
<path d="M192.92 393.657H166.745V420.041H181.194V403.807H188.977L192.92 393.657Z" fill="white"/>
<path d="M209.483 420.041H223.033L211.51 393.653H198.317L187.688 420.041H199.688L202.02 414.671H206.97L209.483 420.041Z" fill="white"/>
<path d="M86.377 409.896V420.581C100.404 420.581 104.704 416.881 104.704 403.806H108.466V420.041H122.971V393.658H92.763C92.763 408.046 91.153 409.896 86.377 409.896Z" fill="white"/>
<path d="M142.41 403.329V393.658H127.964V420.041H129.747L147.247 410.13V420.041H161.694V393.658H159.705L142.41 403.329Z" fill="white"/>
<path d="M172.475 271.58H168.316L167.45 275.269H171.461C171.985 275.263 172.499 275.131 172.961 274.884C173.228 274.723 173.456 274.505 173.628 274.245C173.801 273.986 173.915 273.692 173.961 273.384C174.04 273.161 174.063 272.922 174.028 272.688C173.993 272.454 173.902 272.232 173.761 272.042C173.593 271.877 173.391 271.751 173.169 271.671C172.947 271.592 172.71 271.561 172.475 271.582" fill="white"/>
<path d="M170.629 280.951H166.123L164.943 285.984H169.454C169.904 285.994 170.351 285.915 170.77 285.753C171.12 285.609 171.44 285.4 171.713 285.138C171.961 284.904 172.168 284.632 172.327 284.331C172.462 284.062 172.565 283.779 172.635 283.487C172.73 283.183 172.757 282.863 172.715 282.548C172.673 282.232 172.563 281.93 172.392 281.662C172.18 281.407 171.909 281.209 171.602 281.085C171.295 280.961 170.962 280.914 170.632 280.95" fill="white"/>
<path d="M119.459 271.981C118.852 271.548 118.115 271.337 117.37 271.381C116.633 271.38 115.909 271.579 115.277 271.959C114.601 272.362 114.008 272.89 113.529 273.514C112.989 274.215 112.539 274.983 112.191 275.797C111.802 276.676 111.497 277.59 111.28 278.527C111.027 279.574 110.855 280.639 110.765 281.713C110.684 282.519 110.755 283.333 110.974 284.113C111.148 284.724 111.523 285.258 112.037 285.63C112.653 286.02 113.375 286.209 114.103 286.169C114.895 286.182 115.674 285.974 116.354 285.569C117.03 285.153 117.616 284.605 118.074 283.957C118.595 283.226 119.02 282.432 119.339 281.594C119.694 280.682 119.984 279.747 120.207 278.794C120.408 277.85 120.548 276.895 120.627 275.933C120.708 275.142 120.656 274.342 120.471 273.568C120.316 272.941 119.961 272.382 119.459 271.976" fill="white"/>
<path d="M233.042 257.827H77.0505C74.4899 257.827 72.0343 258.845 70.2237 260.655C68.4131 262.466 67.3958 264.921 67.3955 267.482V290.856C67.3956 292.124 67.6455 293.379 68.1308 294.55C68.616 295.722 69.3273 296.786 70.2238 297.682C71.1204 298.578 72.1847 299.289 73.356 299.775C74.5273 300.26 75.7827 300.509 77.0505 300.509H233.042C234.309 300.509 235.565 300.26 236.736 299.775C237.907 299.289 238.972 298.578 239.868 297.682C240.765 296.786 241.476 295.722 241.961 294.55C242.447 293.379 242.696 292.124 242.697 290.856V267.482C242.696 264.921 241.679 262.466 239.868 260.655C238.058 258.845 235.602 257.827 233.042 257.827ZM100.095 276.034C100.401 276.034 100.588 276.087 100.653 276.186C100.718 276.285 100.7 276.559 100.598 276.993L99.6625 280.993C99.5245 281.581 99.2145 281.877 98.7255 281.877H88.6255L86.3765 291.477C86.3425 291.704 86.2455 291.917 86.0965 292.092C85.8448 292.228 85.5572 292.281 85.2735 292.246H79.8165C79.2285 292.246 78.9935 291.991 79.1165 291.477L83.5165 272.658C83.7404 271.715 84.0832 270.805 84.5365 269.949C84.9945 269.07 85.6019 268.278 86.3315 267.607C87.1108 266.899 88.0171 266.345 89.0025 265.974C90.1531 265.544 91.3744 265.335 92.6025 265.357H104.284C104.592 265.357 104.779 265.404 104.848 265.495C104.917 265.586 104.899 265.844 104.797 266.28L103.783 270.622C103.744 270.871 103.636 271.103 103.471 271.293C103.291 271.422 103.072 271.483 102.852 271.465H93.3655C92.929 271.451 92.4941 271.524 92.0855 271.678C91.7813 271.791 91.5043 271.968 91.2725 272.195C91.0745 272.394 90.9151 272.629 90.8025 272.886C90.6948 273.134 90.6091 273.39 90.5465 273.653L89.9905 276.036L100.095 276.034ZM125.809 284.561C125.008 286.195 123.928 287.677 122.617 288.939C121.329 290.154 119.808 291.095 118.147 291.705C116.275 292.371 114.299 292.696 112.313 292.664C110.539 292.722 108.774 292.402 107.134 291.725C105.838 291.166 104.753 290.211 104.034 288.997C103.297 287.66 102.902 286.161 102.884 284.635C102.836 282.681 103.053 280.73 103.529 278.835C103.982 276.842 104.698 274.918 105.658 273.114C106.524 271.477 107.65 269.991 108.992 268.714C110.279 267.506 111.786 266.555 113.431 265.914C115.183 265.246 117.047 264.914 118.923 264.937C120.697 264.876 122.462 265.21 124.092 265.914C125.396 266.508 126.494 267.477 127.245 268.698C128.009 270.027 128.43 271.525 128.47 273.058C128.535 274.977 128.333 276.895 127.87 278.758C127.417 280.766 126.728 282.713 125.818 284.558M151.711 291.374C151.387 291.69 150.998 291.931 150.57 292.081C150.143 292.231 149.689 292.285 149.239 292.24H147.239C146.915 292.242 146.592 292.223 146.272 292.183C146.01 292.152 145.755 292.074 145.522 291.952C145.286 291.822 145.08 291.646 144.916 291.433C144.697 291.151 144.518 290.841 144.385 290.51L140.895 282.447L138.952 277.69H138.682L135.397 291.44C135.361 291.673 135.264 291.892 135.115 292.075C134.865 292.223 134.573 292.284 134.286 292.247H128.833C128.241 292.247 128.012 291.979 128.141 291.44L133.641 268.399C133.774 267.49 134.185 266.645 134.817 265.978C135.507 265.51 136.337 265.292 137.169 265.361H139.169C139.498 265.358 139.828 265.378 140.155 265.42C140.41 265.452 140.657 265.53 140.885 265.651C141.116 265.779 141.317 265.956 141.473 266.17C141.684 266.459 141.868 266.768 142.023 267.091L145.554 275.31L147.432 279.994H147.702L151.002 266.17C151.039 265.936 151.138 265.717 151.288 265.533C151.536 265.385 151.827 265.325 152.115 265.361H157.57C158.158 265.361 158.389 265.631 158.26 266.17L152.76 289.213C152.587 290.01 152.225 290.753 151.705 291.381M181.639 272.274C181.372 273.342 180.863 274.334 180.153 275.174C179.457 276.058 178.593 276.796 177.612 277.346L177.557 277.575C178.153 277.846 178.682 278.245 179.106 278.745C179.489 279.212 179.781 279.747 179.968 280.321C180.153 280.903 180.243 281.511 180.234 282.121C180.23 282.748 180.155 283.373 180.011 283.983C179.732 285.191 179.223 286.333 178.511 287.347C177.8 288.357 176.924 289.24 175.919 289.957C174.891 290.694 173.754 291.264 172.549 291.646C171.305 292.047 170.006 292.25 168.7 292.246H158.709C157.659 292.246 157.028 292.046 156.809 291.646C156.587 291.019 156.584 290.336 156.801 289.707L161.911 267.891C162.036 267.188 162.35 266.531 162.818 265.991C163.121 265.747 163.471 265.565 163.845 265.455C164.22 265.346 164.612 265.312 165 265.354H174.99C176.047 265.343 177.101 265.472 178.125 265.739C178.988 265.954 179.786 266.376 180.451 266.968C181.07 267.549 181.508 268.296 181.714 269.12C181.943 270.161 181.914 271.242 181.629 272.269M206.672 266.274L205.658 270.618C205.619 270.867 205.51 271.1 205.344 271.289C205.165 271.419 204.946 271.48 204.727 271.461H195.585C195.149 271.448 194.715 271.52 194.307 271.672C194.002 271.787 193.725 271.964 193.494 272.193C193.293 272.391 193.133 272.625 193.021 272.883C192.914 273.131 192.828 273.388 192.765 273.65L192.386 275.264H202.686C202.992 275.264 203.179 275.317 203.246 275.416C203.306 275.686 203.286 275.968 203.189 276.227L202.254 280.22C202.116 280.808 201.803 281.102 201.317 281.102H191.017L190.346 283.982C190.237 284.357 190.203 284.75 190.246 285.138C190.274 285.382 190.392 285.607 190.577 285.769C190.77 285.918 191.001 286.012 191.244 286.041C191.545 286.079 191.848 286.098 192.152 286.096H201.91C202.218 286.096 202.405 286.143 202.474 286.232C202.543 286.321 202.529 286.585 202.427 287.019L201.409 291.361C201.271 291.949 200.955 292.243 200.47 292.243H188.609C187.377 292.302 186.148 292.079 185.017 291.59C184.235 291.225 183.584 290.629 183.151 289.883C182.759 289.157 182.559 288.343 182.569 287.518C182.569 286.652 182.669 285.788 182.869 284.945L185.747 272.654C185.97 271.712 186.313 270.802 186.767 269.947C187.226 269.069 187.833 268.277 188.562 267.605C189.342 266.898 190.248 266.343 191.233 265.97C192.383 265.541 193.605 265.332 194.833 265.355H206.165C206.475 265.355 206.66 265.402 206.729 265.493C206.798 265.584 206.78 265.844 206.68 266.276M231.261 266.276L230.255 270.576C230.229 270.824 230.11 271.053 229.922 271.217C229.733 271.381 229.49 271.467 229.241 271.458H222.672L217.996 291.431C217.959 291.664 217.862 291.883 217.714 292.066C217.464 292.214 217.172 292.275 216.885 292.238H211.428C210.84 292.238 210.609 291.968 210.739 291.431L215.409 271.463H208.991C208.454 271.463 208.253 271.169 208.391 270.581L209.391 266.281C209.491 265.845 209.612 265.581 209.752 265.494C209.955 265.387 210.185 265.34 210.415 265.358H230.664C230.873 265.331 231.086 265.38 231.264 265.494C231.364 265.583 231.355 265.845 231.254 266.281" fill="white"/>
<path d="M132.02 323.245L132.559 313.693H112.146V380.556H132.02V371.008H122.654V351.922H130.419V341.373H122.654V323.245H132.02Z" fill="white"/>
<path d="M234.072 323.245L234.611 313.693H214.198V380.556H234.072V371.008H224.707V351.922H232.472V341.373H224.707V323.245H234.072Z" fill="white"/>
<path d="M51.0137 380.555H61.5227V323.243H66.2967V380.555H76.8047V313.694H51.0137V380.555Z" fill="white"/>
<path d="M93.0412 313.696H82.5342V380.557H93.0412V359.708C102.301 359.655 108.802 352.998 108.802 336.701C108.802 320.404 102.302 313.747 93.0412 313.696ZM93.5142 351.15H93.0412V322.288H93.5142C95.9052 322.288 98.2962 324.425 98.2962 336.719C98.2962 349.013 95.9052 351.15 93.5142 351.15Z" fill="white"/>
<path d="M248.402 313.696H237.893V380.557H248.402V359.708C257.66 359.655 264.161 352.998 264.161 336.701C264.161 320.404 257.661 313.747 248.402 313.696ZM248.872 351.15H248.402V322.288H248.872C251.263 322.288 253.654 324.425 253.654 336.719C253.654 349.013 251.263 351.15 248.872 351.15Z" fill="white"/>
<path d="M195.096 334.541V313.694H184.587V380.555H195.096C204.354 380.502 210.855 373.847 210.855 357.55C210.855 341.253 204.355 334.596 195.096 334.543M195.566 371.963H195.096V343.099H195.566C197.957 343.099 200.348 345.236 200.348 357.53C200.348 369.824 197.957 371.961 195.566 371.961" fill="white"/>
<path d="M164.255 313.696L158.165 357.296H157.707L151.268 313.696H139.107L134.5 380.555H144.333L146.596 341.831H147.123L152.923 380.555H161.323L167.441 341.831H167.923L169.916 380.555H180.2L176.343 313.696H164.255Z" fill="white"/>
</g>
</svg>
