<svg width="480" height="480" viewBox="0 0 480 480" fill="none" xmlns="http://www.w3.org/2000/svg">
<path fill-rule="evenodd" clip-rule="evenodd" d="M400.153 80.803C311.761 -7.58899 169.193 -6.63899 80.8005 80.803C-7.59146 168.245 -6.64146 311.763 80.8005 400.155C168.243 488.547 311.761 487.597 400.153 400.155C431.733 368.556 453.204 328.279 461.835 284.446C470.467 240.612 465.869 195.202 448.627 153.989C437.935 126.384 421.399 101.417 400.153 80.803Z" fill="#002B71"/>
<path fill-rule="evenodd" clip-rule="evenodd" d="M160.636 266.144C144.478 267.093 128.32 265.195 132.122 235.729C135.922 217.668 132.122 209.116 124.522 203.413C133.076 203.413 141.629 197.713 149.234 181.552C163.5 156.84 178.7 162.544 191.056 172.998C185.356 157.792 183.455 141.634 211.965 135.931C230.025 134.031 237.628 126.437 240.479 118.824C243.329 127.378 250.933 134.03 268.992 135.931C297.507 141.631 294.656 157.792 288.952 172.998C301.309 162.543 317.466 156.84 331.723 181.552C339.324 197.71 347.881 203.413 356.435 203.413C349.782 209.113 345.98 217.67 348.835 235.729C351.688 264.243 336.477 267.093 320.321 266.144C333.626 274.698 344.083 288.005 325.073 308.915C311.768 321.278 309.867 330.771 311.768 339.339C305.115 334.587 294.661 333.639 279.452 342.189C252.839 353.595 244.286 341.24 240.484 325.082C236.684 341.24 228.129 353.596 201.517 342.189C185.359 333.635 175.854 333.635 168.252 339.339C171.102 330.785 168.251 321.278 154.944 308.924C136.883 288.015 147.345 274.707 160.645 266.153M150.183 269.944C132.122 271.844 114.059 268.044 117.866 235.727C121.666 215.767 117.866 205.312 109.312 199.604C118.807 199.604 128.32 192.951 136.867 174.892C153.025 146.379 170.133 153.031 184.39 165.399C177.737 148.292 175.836 130.233 208.152 123.58C228.118 120.722 236.667 113.109 240.474 103.615C243.324 113.109 252.831 120.722 272.79 123.575C304.154 130.228 302.253 148.287 294.651 165.394C308.908 153.988 326.967 146.386 343.125 174.888C351.679 192.949 361.186 199.6 370.68 199.6C363.08 205.3 358.325 215.758 363.081 235.723C366.88 268.039 348.824 270.889 330.764 269.94C345.97 279.434 358.319 294.652 336.464 318.414C321.258 332.671 319.357 343.126 321.258 352.631C313.658 346.931 302.251 345.978 284.191 356.431C254.729 369.736 245.223 354.531 240.471 337.423C235.72 355.484 226.215 369.739 196.752 356.431C178.691 346.937 168.238 346.937 159.685 352.631C162.535 343.137 159.685 332.671 144.479 318.414C123.569 294.652 134.984 279.446 150.178 269.94" fill="#FBBA40"/>
<path fill-rule="evenodd" clip-rule="evenodd" d="M400.153 80.806C360.489 40.6625 307.304 16.7189 250.955 13.638C194.606 10.5571 139.127 28.5595 95.3227 64.1394C51.5186 99.7193 22.5254 150.329 13.9893 206.113C5.45316 261.897 17.9853 318.862 49.1452 365.913C80.3051 412.964 127.862 446.733 182.554 460.643C237.246 474.554 295.158 467.61 345.011 441.165C394.864 414.719 433.09 370.665 452.244 317.582C471.398 264.498 470.109 206.186 448.627 154.001C437.937 126.392 421.401 101.423 400.153 80.806ZM240.477 0.0140128C373.54 0.0140128 480.947 108.366 479.991 240.48C479.991 373.543 371.639 480.946 239.525 479.994C106.462 479.994 -0.937793 371.642 0.00320692 239.528C-0.0856986 192.059 13.9724 145.64 40.3829 106.196C66.7935 66.7527 104.359 36.0736 148.283 18.075C177.455 5.80906 208.834 -0.33814 240.477 0.0140128Z" fill="#FBBA40"/>
<path fill-rule="evenodd" clip-rule="evenodd" d="M160.643 266.141C144.485 267.09 128.327 265.192 132.129 235.726C135.929 217.665 132.129 209.113 124.529 203.41C133.083 203.41 141.636 197.71 149.241 181.549C163.489 156.84 178.704 162.541 191.053 173.005C185.353 157.799 183.453 141.641 211.962 135.938C230.023 134.036 237.623 126.444 240.476 118.826C243.326 127.38 250.931 134.032 268.99 135.933C297.49 141.627 294.651 157.785 288.948 173C301.304 162.545 317.462 156.842 331.719 181.554C339.319 197.712 347.877 203.415 356.431 203.415C349.778 209.115 345.976 217.672 348.831 235.731C351.681 264.231 336.477 267.088 320.32 266.137C333.627 274.691 344.082 287.998 325.072 308.908C311.765 321.264 309.866 330.769 311.765 339.323C305.112 334.571 294.658 333.623 279.449 342.173C252.836 353.579 244.283 341.224 240.481 325.066C236.681 341.224 228.125 353.58 201.513 342.173C185.348 333.626 175.842 333.626 168.24 339.326C171.09 330.772 168.24 321.265 154.933 308.911C136.872 288.002 147.333 274.694 160.633 266.14" fill="#E0172B"/>
<path fill-rule="evenodd" clip-rule="evenodd" d="M255.683 302.259C261.134 307.096 265.645 312.899 268.989 319.374C269.938 321.274 268.989 322.224 268.04 323.174C264.24 326.974 259.486 332.668 258.546 333.629C259.174 331.781 259.174 329.777 258.546 327.929C253.285 320.337 247.23 313.327 240.484 307.018C233.964 313.54 227.928 320.528 222.423 327.927C221.872 329.787 221.872 331.767 222.423 333.627C221.474 332.678 216.723 326.974 212.929 323.172C211.98 322.223 211.029 320.322 211.98 319.372C215.888 313.574 220.344 308.164 225.285 303.216C216.925 302.881 208.63 301.604 200.557 299.409V283.251C213.06 286.147 225.773 288.053 238.576 288.951C252.712 288.99 266.785 287.072 280.395 283.251V299.409C271.841 300.358 264.237 302.259 255.683 302.259Z" fill="white"/>
<path fill-rule="evenodd" clip-rule="evenodd" d="M314.611 203.411H288.948L289.897 204.36C289.897 230.973 261.383 269.941 230.968 280.396C246.28 282.23 261.796 279.59 275.64 272.796C307.004 255.689 315.56 220.52 316.509 204.364C316.509 203.415 316.509 203.415 315.56 202.464C316.512 204.36 315.561 203.411 314.611 203.411Z" fill="white"/>
<path fill-rule="evenodd" clip-rule="evenodd" d="M264.236 205.311C262.464 219.65 257.246 233.347 249.03 245.231C238.652 258.957 224.9 269.766 209.11 276.607C211.181 277.674 213.442 278.32 215.763 278.507C218.794 279.685 222.007 280.327 225.257 280.407C243.137 273.54 258.654 261.655 269.94 246.18C278.439 234.355 283.979 220.667 286.098 206.26C286.098 205.311 284.198 204.36 284.198 204.36H263.298C263.424 204.357 263.549 204.379 263.665 204.426C263.782 204.472 263.888 204.542 263.976 204.631C264.065 204.72 264.135 204.826 264.182 204.942C264.228 205.059 264.251 205.184 264.247 205.309" fill="white"/>
<path fill-rule="evenodd" clip-rule="evenodd" d="M229.071 188.204L222.418 178.71C219.568 175.86 222.418 173.01 224.318 171.11C229.07 166.358 234.773 160.655 239.524 154.952C240.283 153.833 240.62 152.481 240.477 151.137C242.775 154.483 245.315 157.656 248.077 160.631C248.617 161.54 248.818 162.611 248.645 163.655C248.471 164.698 247.933 165.646 247.128 166.331C242.38 172.037 235.726 178.69 230.974 183.437C230.025 185.337 230.025 187.237 229.074 188.189" fill="white"/>
<path fill-rule="evenodd" clip-rule="evenodd" d="M240.474 204.362L233.821 194.868C230.971 192.018 233.821 189.168 235.721 187.268C240.473 182.516 246.176 176.813 250.927 171.11C251.681 169.995 252.017 168.649 251.876 167.31C254.174 170.656 256.714 173.829 259.476 176.804C260.016 177.713 260.218 178.784 260.044 179.828C259.87 180.871 259.333 181.819 258.527 182.504C253.775 188.204 247.121 194.86 242.369 199.611C241.18 200.912 240.504 202.601 240.469 204.363" fill="white"/>
<path fill-rule="evenodd" clip-rule="evenodd" d="M175.844 203.413H166.35C165.401 203.413 165.401 203.413 164.45 204.362C163.934 204.874 163.601 205.542 163.501 206.262C164.037 219.937 167.966 233.264 174.932 245.044C181.898 256.824 191.684 266.687 203.409 273.746H205.309C211.207 270.948 216.921 267.777 222.416 264.252L221.467 263.303C209.105 253.788 190.101 222.421 190.101 205.313C190.098 205.188 190.12 205.063 190.167 204.946C190.213 204.83 190.283 204.724 190.372 204.635C190.461 204.546 190.567 204.476 190.683 204.43C190.8 204.383 190.924 204.361 191.05 204.364L175.844 203.413Z" fill="white"/>
<path fill-rule="evenodd" clip-rule="evenodd" d="M217.664 205.312C217.66 205.187 217.683 205.062 217.729 204.945C217.776 204.829 217.846 204.723 217.935 204.634C218.023 204.545 218.129 204.475 218.246 204.429C218.362 204.382 218.487 204.36 218.613 204.363H198.653C198.401 204.356 198.151 204.401 197.918 204.494C197.684 204.587 197.472 204.727 197.294 204.905C197.117 205.083 196.977 205.295 196.884 205.528C196.791 205.762 196.746 206.012 196.753 206.263C200.496 227.567 210.797 247.171 226.218 262.339C230.934 259.629 235.121 256.087 238.574 251.884L237.625 250.935L236.676 249.986C227.412 236.517 220.947 221.326 217.664 205.312Z" fill="white"/>
<path fill-rule="evenodd" clip-rule="evenodd" d="M353.58 389.701C355.272 389.701 356.926 390.203 358.333 391.143C359.739 392.083 360.836 393.418 361.483 394.982C362.131 396.545 362.3 398.264 361.97 399.924C361.64 401.583 360.825 403.107 359.629 404.304C358.433 405.5 356.908 406.315 355.249 406.645C353.59 406.975 351.87 406.805 350.307 406.158C348.744 405.51 347.408 404.414 346.468 403.007C345.528 401.601 345.026 399.947 345.026 398.255C344.077 393.503 347.876 389.701 353.58 389.701ZM74.1463 347.88L86.5023 339.326L85.5533 338.377C84.6043 337.428 83.6533 336.477 83.6533 335.527C83.2788 335.167 82.8286 334.895 82.3356 334.73C81.8425 334.566 81.319 334.514 80.8033 334.578C79.8543 334.578 79.8543 334.578 78.9033 335.527C77.9523 336.476 77.0033 336.476 76.0533 337.427C75.1033 338.378 74.1533 338.376 73.2033 339.327C72.6874 339.839 72.3539 340.507 72.2543 341.227C72.2543 342.176 71.3053 343.127 72.2543 344.077C72.2543 345.026 73.2033 345.977 73.2033 346.927L74.1463 347.88ZM92.2073 347.88L91.2583 346.931L78.8923 355.484L80.7923 357.384C81.7413 358.333 81.7413 359.284 82.6923 359.284C83.0668 359.644 83.517 359.916 84.0101 360.081C84.5031 360.245 85.0266 360.297 85.5423 360.233H86.4913C87.4403 359.284 88.3913 359.284 89.3413 358.333C90.2913 357.382 91.2413 356.433 92.1913 356.433L93.1403 355.484C93.3612 355.318 93.5405 355.103 93.6639 354.855C93.7874 354.608 93.8517 354.335 93.8517 354.059C93.8517 353.783 93.7874 353.51 93.6639 353.263C93.5405 353.015 93.3612 352.8 93.1403 352.634C93.1403 349.784 93.1403 348.834 92.1913 347.883M73.1873 358.337L71.2873 360.237L66.5353 353.584L68.4353 351.684L66.5353 348.834L63.6853 343.134C63.2178 342.257 62.9733 341.278 62.9733 340.284C62.9733 339.29 63.2178 338.311 63.6853 337.434C64.6343 335.534 65.5853 334.584 66.5353 332.683C67.4843 331.734 69.3853 330.783 70.3353 328.883C71.785 327.725 73.3832 326.767 75.0873 326.033C76.9873 325.084 77.9373 325.084 79.8393 324.133C80.8709 324.006 81.918 324.11 82.9041 324.439C83.8902 324.767 84.7905 325.312 85.5393 326.033C87.4393 326.982 88.3893 328.883 89.3393 329.833L92.1893 333.633L95.0393 331.733L99.7913 338.386L96.9483 342.186L99.7983 345.986C100.747 347.886 101.698 348.836 102.648 350.737C103.598 352.638 102.648 354.537 102.648 356.437C101.937 357.866 100.972 359.154 99.7983 360.237C98.8493 361.186 96.9483 362.137 95.9983 363.087C94.5487 364.245 92.9505 365.203 91.2463 365.937C89.7599 366.626 88.1311 366.951 86.4943 366.886C84.7322 366.85 83.0432 366.175 81.7423 364.986C77.9423 364.986 76.9903 363.086 75.0893 361.186L73.1873 358.337ZM61.7803 259.491L43.7193 269.946L63.6793 275.646L61.7803 259.491ZM65.5803 286.104V284.204L40.8803 276.597C39.9313 276.597 38.9803 275.648 38.0303 274.697C37.0295 273.65 36.3674 272.326 36.1303 270.897V267.097C36.1642 266.604 36.3752 266.14 36.7245 265.791C37.0737 265.442 37.5376 265.231 38.0303 265.197L59.8913 251.884V249.034L66.5443 247.134L72.2443 286.102L65.5913 287.051L65.5803 286.104ZM63.6803 213.859L69.3803 214.808L66.5413 236.683V238.583C66.4417 239.303 66.1083 239.971 65.5923 240.483C65.2178 240.843 64.7676 241.115 64.2746 241.28C63.7815 241.444 63.258 241.496 62.7423 241.432H60.8313L38.0313 238.577C37.0823 238.577 36.1313 238.577 36.1313 237.628C35.1823 237.628 35.1823 236.679 34.2313 236.679C33.871 236.305 33.5989 235.854 33.4347 235.361C33.2705 234.868 33.2185 234.345 33.2823 233.829V231.929L35.1823 210.054L41.8353 211.003L39.9293 229.064V230.013H40.8783L46.5783 231.913L48.4783 212.905L56.0783 213.854L54.1783 232.862L60.8313 233.811V232.864L62.7313 214.803L63.6803 213.859ZM47.5243 192.949L55.1243 194.849L57.9743 184.394V180.594C57.0253 181.543 57.0253 180.594 56.0743 180.594C55.3449 180.525 54.6675 180.187 54.1743 179.645H50.3833L49.4343 180.594C49.4343 181.543 49.4343 181.543 48.4853 182.494L45.6353 191.988C46.5843 191.988 46.5843 192.937 47.5353 192.937M61.7923 196.737L73.1923 199.601L71.2923 207.201L43.7283 199.601C41.8283 199.601 40.8783 198.652 39.9283 196.751C39.9283 195.802 38.9793 194.851 38.9793 193.901V192.001L42.7703 176.79C42.9142 175.48 43.3258 174.213 43.9795 173.069C44.6332 171.924 45.515 170.927 46.5703 170.137C48.3653 170.911 50.3215 171.236 52.2703 171.086C53.9126 170.938 55.5626 171.268 57.0223 172.035C58.9223 172.035 59.8723 172.984 61.7743 173.935C63.4719 174.682 64.8278 176.037 65.5743 177.735V183.435L61.7923 196.737ZM75.0923 153.978L62.7363 153.029L71.2903 162.523L75.0923 153.978ZM81.7453 173.938L77.9453 180.591L56.0873 155.888C55.5078 155.436 55.0365 154.86 54.7078 154.203C54.3791 153.545 54.2013 152.823 54.1873 152.088C54.0121 150.717 54.2881 149.326 54.9737 148.125C55.6593 146.925 56.7172 145.981 57.9873 145.435C59.1027 144.681 60.4484 144.345 61.7873 144.486L94.1033 146.378L90.3033 153.978L81.7493 153.029L75.0953 165.394L81.7453 173.938ZM115.961 114.07L120.713 117.87C114.06 125.47 107.405 132.127 101.705 139.731C100.623 140.904 99.3348 141.87 97.9053 142.581H95.0553C94.1063 142.581 94.1063 141.632 93.1553 141.632L71.2933 122.625L76.9933 116.925L96.0013 134.032L96.9503 134.981L97.8993 134.032L106.461 123.575L85.5473 105.514L91.2473 99.814L112.161 117.872L115.961 114.072V114.07ZM134.022 73.2L150.18 96.011L143.529 100.764L129.272 80.8L131.172 105.512C132.121 108.362 130.223 110.264 128.322 112.165C127.517 112.768 126.58 113.168 125.588 113.334C124.596 113.499 123.579 113.423 122.622 113.114L119.772 110.264L103.609 86.505L110.261 81.754L124.509 101.714L122.619 77.952V74.152C122.619 73.203 123.568 72.252 124.519 71.302C125.324 70.6993 126.262 70.2986 127.254 70.1335C128.246 69.9683 129.263 70.0436 130.219 70.353C131.649 71.0654 132.937 72.033 134.019 73.208M172.038 54.2L183.449 79.864L175.849 82.703L165.39 58.943H164.441L154.947 62.743C154.822 62.7399 154.697 62.7622 154.58 62.8088C154.464 62.8554 154.358 62.9252 154.269 63.0139C154.18 63.1027 154.111 63.2086 154.064 63.3251C154.018 63.4417 153.995 63.5665 153.998 63.692L153.049 64.641V66.541C153.049 67.49 153.049 67.49 153.998 68.441C154.098 69.1612 154.431 69.8288 154.947 70.341C154.944 70.4665 154.967 70.5913 155.013 70.7079C155.06 70.8244 155.129 70.9303 155.218 71.0191C155.307 71.1078 155.413 71.1776 155.529 71.2242C155.646 71.2708 155.771 71.2932 155.896 71.29H157.796L163.496 68.44C164.445 68.44 164.445 68.44 165.396 67.491C166.345 67.491 167.296 68.44 168.246 69.391V74.143L162.546 88.4L161.597 89.349L153.997 92.199L153.048 91.25L158.748 77.943L156.848 78.892C155.733 79.6461 154.387 79.9821 153.048 79.841C152.099 79.841 150.198 78.892 149.248 78.892L146.398 76.042C145.449 75.093 145.449 73.192 144.498 72.242C143.547 71.292 143.549 70.342 143.549 68.442C143.549 67.493 142.6 65.592 143.549 63.69C143.563 62.9551 143.741 62.2327 144.07 61.5753C144.399 60.9179 144.87 60.3421 145.449 59.89C145.901 59.3105 146.477 58.8392 147.135 58.5105C147.792 58.1818 148.514 58.004 149.249 57.99L163.506 51.337C164.455 51.337 164.455 50.388 165.406 50.388H168.256C168.749 50.4219 169.213 50.6329 169.562 50.9822C169.911 51.3314 170.122 51.7953 170.156 52.288C170.649 52.3219 171.113 52.5329 171.462 52.8822C171.811 53.2314 172.022 53.6953 172.056 54.188M232.886 63.682L223.392 45.621L216.739 65.581L232.886 63.682ZM206.248 66.544H208.148L216.713 41.832C216.713 40.883 217.662 39.932 218.613 38.982C219.66 37.9812 220.984 37.3191 222.413 37.082C223.752 36.9409 225.098 37.277 226.213 38.031C227.162 38.031 228.113 38.98 229.063 39.931L241.419 62.742H244.269L245.218 69.395L206.24 73.204L206.248 66.544ZM268.027 71.296L250.938 69.396L251.887 62.743L268.045 64.643H270.895L271.844 63.694V59.894C271.844 58.945 271.844 58.945 270.895 58.945H269.946C269.226 58.8454 268.559 58.512 268.046 57.996L252.84 56.096L253.789 49.443L268.995 51.343H272.795C273.156 50.9685 273.428 50.5183 273.592 50.0253C273.756 49.5322 273.808 49.0087 273.744 48.493V45.636H271.844L255.686 43.736L256.631 37.083C262.331 38.032 268.987 38.032 274.692 38.983C275.952 38.8496 277.226 39.0415 278.39 39.5405C279.555 40.0394 280.573 40.8287 281.345 41.833C282.294 42.782 282.294 44.683 283.245 45.633V49.433C283.309 49.9487 283.257 50.4722 283.093 50.9653C282.929 51.4583 282.657 51.9085 282.296 52.283C282.296 53.232 281.347 54.183 280.396 55.133C280.271 55.1299 280.146 55.1522 280.029 55.1988C279.913 55.2454 279.807 55.3152 279.718 55.4039C279.629 55.4927 279.56 55.5986 279.513 55.7151C279.467 55.8317 279.444 55.9565 279.447 56.082C280.396 57.031 281.347 57.031 281.347 57.982C281.347 58.933 282.296 59.882 282.296 60.832V64.632C282.437 65.9709 282.101 67.3167 281.347 68.432C280.636 69.8615 279.671 71.1493 278.497 72.232C277.382 72.9861 276.036 73.3221 274.697 73.181C269.945 72.232 268.997 72.232 268.044 71.281M307.961 58.934C307.012 60.834 306.061 61.784 306.061 63.686C305.288 65.481 304.962 67.4372 305.112 69.386V72.236C305.112 73.185 306.061 74.136 307.012 75.086C307.963 76.036 309.862 76.035 310.812 76.986C312.236 77.8477 313.917 78.1835 315.563 77.935C316.902 78.0761 318.248 77.7401 319.363 76.986C320.312 76.037 321.263 76.037 321.263 75.086C322.212 73.186 323.163 72.236 323.163 70.334C323.937 68.539 324.263 66.5828 324.112 64.634V61.794C324.112 60.8433 323.162 59.8933 321.262 58.944C320.31 57.995 318.412 57.995 317.462 57.044C316.293 56.4206 314.988 56.0945 313.662 56.0945C312.337 56.0945 311.032 56.4206 309.862 57.044C308.913 57.993 307.962 57.993 307.962 58.944M301.311 45.636L296.555 57.042L298.455 57.991C299.407 56.091 300.355 55.141 301.305 53.239C302.427 51.487 304.093 50.1519 306.047 49.439C308.487 48.5967 311.076 48.2735 313.647 48.49C315.969 48.6775 318.23 49.3233 320.3 50.39L326 53.24C328.352 54.6272 330.313 56.5884 331.7 58.94C332.483 61.0668 332.811 63.3345 332.661 65.596C332.48 68.2214 331.837 70.7942 330.761 73.196C329.812 75.096 328.861 77.948 327.911 79.849C326.714 82.1242 324.665 83.8327 322.211 84.601C317.562 85.389 312.79 85.021 308.316 83.5292C303.843 82.0374 299.805 79.4678 296.559 76.047C295.786 74.252 295.46 72.2958 295.61 70.347C295.46 68.3982 295.786 66.442 296.559 64.647L294.659 63.698L289.908 77.005L282.308 74.155L293.704 41.836L301.304 45.636H301.311ZM352.635 101.712L356.435 81.752L338.376 93.158L352.635 101.712ZM329.824 86.505L331.724 87.454L353.585 74.147C353.96 73.7867 354.41 73.5146 354.903 73.3504C355.396 73.1862 355.92 73.1342 356.435 73.198C358.335 73.198 359.285 73.198 360.235 74.147L363.085 76.997V80.797L358.338 106.464L361.188 108.364L357.388 114.064L325.061 91.264L329.812 86.512L329.824 86.505ZM382.1 107.414C379.027 109.328 376.16 111.557 373.547 114.064C373.187 114.439 372.915 114.889 372.751 115.382C372.587 115.875 372.534 116.398 372.598 116.914V120.714C373.547 121.663 374.498 123.564 375.448 124.514L378.298 127.364C379.247 128.313 380.198 128.313 382.098 128.313C382.614 128.377 383.138 128.325 383.631 128.161C384.124 127.996 384.574 127.724 384.948 127.364C386.848 126.415 387.798 125.464 389.7 124.514L393.5 120.714C393.861 120.34 394.133 119.889 394.297 119.396C394.461 118.903 394.513 118.38 394.449 117.864C394.59 116.525 394.254 115.179 393.5 114.064C392.327 112.981 391.361 111.694 390.65 110.264L387.783 107.414C386.834 106.465 385.883 106.465 383.983 106.465C383.471 106.981 382.804 107.314 382.083 107.414M392.538 101.714L397.289 106.466C398.876 108.132 400.162 110.06 401.089 112.166C402.579 114.295 403.296 116.869 403.124 119.462C402.951 122.054 401.899 124.51 400.14 126.423C397.358 130.039 393.781 132.966 389.685 134.977C387.323 136.164 384.728 136.812 382.085 136.877C380.836 136.912 379.594 136.675 378.446 136.183C377.297 135.691 376.269 134.956 375.432 134.027L370.68 129.276C369.093 127.61 367.808 125.682 366.88 123.576C365.694 121.214 365.045 118.619 364.98 115.976C365.976 111.09 368.668 106.713 372.58 103.62C374.246 102.033 376.175 100.747 378.28 99.82C380.642 98.6335 383.238 97.9846 385.88 97.92C388.288 98.8195 390.535 100.103 392.533 101.72M420.088 155.904L412.488 158.754L416.288 168.248C416.288 169.197 417.24 170.148 418.188 171.098H420.088C421.037 171.098 421.037 171.098 421.988 170.149C422.937 170.149 422.937 169.2 423.888 169.2C424.014 169.203 424.139 169.181 424.255 169.134C424.372 169.088 424.478 169.018 424.566 168.929C424.655 168.84 424.725 168.734 424.772 168.618C424.818 168.501 424.84 168.376 424.837 168.251V166.351C424.837 165.402 424.837 165.402 423.888 164.451L420.088 154.957C421.037 156.857 421.037 155.906 420.088 155.906M405.84 162.552L395.385 167.304L392.535 159.704L418.198 148.298C418.9 147.824 419.727 147.57 420.574 147.57C421.421 147.57 422.249 147.824 422.95 148.298C423.443 148.332 423.907 148.543 424.256 148.892C424.605 149.241 424.816 149.705 424.85 150.198C424.85 151.147 425.799 151.147 425.799 152.098L431.499 166.355C431.499 167.304 432.448 168.255 432.448 169.205V173.019C431.737 174.449 430.771 175.736 429.597 176.819C428.55 177.82 427.226 178.482 425.797 178.719C423.897 179.668 422.947 179.668 421.045 180.619C419.096 180.769 417.14 180.444 415.345 179.67C414.853 179.636 414.389 179.425 414.039 179.076C413.69 178.727 413.479 178.263 413.445 177.77C412.496 176.821 412.496 175.87 411.545 174.92L405.84 162.552ZM429.602 192.967C427.653 192.817 425.697 193.142 423.902 193.916C422.141 193.952 420.452 194.627 419.151 195.816C418.202 195.816 417.251 196.765 416.301 197.716C415.941 198.09 415.669 198.541 415.505 199.034C415.341 199.527 415.288 200.05 415.352 200.566V205.318C415.352 206.267 416.301 208.168 416.301 209.118L419.151 211.968C420.1 211.968 421.051 212.917 422.001 212.917C423.95 213.067 425.906 212.742 427.701 211.968C429.47 211.934 431.166 211.256 432.469 210.06C433.418 210.06 434.369 209.111 435.319 208.16C436.269 207.209 436.268 206.26 436.268 204.36C436.204 201.717 435.555 199.122 434.368 196.76L431.517 193.91C431.005 193.394 430.338 193.061 429.617 192.961M442.924 199.614C443.711 201.936 444.032 204.391 443.869 206.837C443.706 209.283 443.063 211.674 441.975 213.871C440.32 215.728 438.399 217.329 436.275 218.623C434.205 219.69 431.944 220.336 429.622 220.523C427.496 221.302 425.229 221.625 422.969 221.472C420.327 221.408 417.731 220.759 415.369 219.572C413.513 217.917 411.911 215.996 410.617 213.872C408.717 210.072 408.717 205.318 407.767 200.564C407.626 197.976 408.278 195.406 409.636 193.198C410.994 190.99 412.994 189.249 415.367 188.208C419.562 186.359 424.091 185.389 428.674 185.358C431.3 185.539 433.872 186.183 436.274 187.258C438.383 188.538 440.112 190.359 441.281 192.531C442.451 194.703 443.019 197.149 442.927 199.614M419.161 254.744H413.461V240.48C413.311 238.531 413.637 236.575 414.41 234.78C415.338 232.674 416.623 230.746 418.21 229.08C419.047 228.152 420.075 227.416 421.224 226.924C422.372 226.432 423.614 226.195 424.863 226.23C427.055 225.749 429.325 225.749 431.516 226.23C433.776 226.077 436.043 226.4 438.169 227.179C439.28 227.15 440.381 227.395 441.375 227.892C442.369 228.389 443.226 229.123 443.869 230.029C445.456 231.695 446.742 233.623 447.669 235.729C447.892 237.33 448.209 238.917 448.618 240.481V254.744H441.968V238.579C441.968 237.63 441.019 236.679 440.068 235.729C439.694 235.369 439.244 235.097 438.751 234.932C438.258 234.768 437.734 234.716 437.218 234.78C435.318 234.78 433.418 233.831 431.518 233.831H426.761C425.812 233.831 424.861 233.831 424.861 234.78C423.912 235.729 422.961 236.68 422.961 237.63C422.961 239.53 422.012 240.48 422.012 242.382V253.788L419.161 254.744ZM413.461 287.064L407.761 286.115L410.611 271.858C410.647 270.096 411.322 268.407 412.511 267.106C413.584 265.082 415.24 263.427 417.263 262.354C419.334 261.287 421.595 260.641 423.916 260.454C425.865 260.304 427.821 260.629 429.616 261.403C431.938 261.59 434.199 262.236 436.269 263.303C438.375 264.23 440.304 265.516 441.969 267.103C442.898 267.939 443.634 268.968 444.126 270.116C444.618 271.265 444.854 272.507 444.819 273.756V278.508L441.971 291.795L435.318 290.846L437.218 280.391C437.218 278.491 438.17 277.541 437.218 275.639C436.982 274.21 436.319 272.886 435.318 271.839C434.369 270.89 433.418 270.89 432.468 269.939C430.568 268.99 428.668 268.99 427.717 268.039C425.817 268.039 423.917 267.09 422.965 268.039H421.065C420.116 268.988 419.165 268.988 418.215 270.889C417.266 271.838 417.266 273.739 416.315 275.641L414.415 287.047L413.461 287.064ZM419.161 330.784L393.498 319.378L396.348 311.778L418.209 321.272L403.952 300.363C403.13 299.486 402.598 298.377 402.428 297.186C402.258 295.996 402.459 294.782 403.003 293.71C403.952 291.81 404.903 289.91 407.755 289.91C409.094 289.769 410.44 290.105 411.555 290.859L437.218 302.265L434.368 309.865L412.508 300.364L425.815 320.324C426.816 321.371 427.478 322.695 427.715 324.124C427.856 325.463 427.52 326.809 426.766 327.924C426.358 328.906 425.709 329.77 424.878 330.434C424.047 331.098 423.062 331.542 422.014 331.724C421.12 331.26 420.158 330.939 419.164 330.775M395.402 366.898L372.591 350.74L377.343 344.087L397.303 358.344L387.809 335.534C387.265 334.462 387.064 333.248 387.234 332.058C387.404 330.867 387.936 329.758 388.758 328.881C389.204 328.008 389.885 327.278 390.725 326.774C391.566 326.27 392.531 326.013 393.51 326.031C394.939 326.268 396.263 326.93 397.31 327.931L420.12 344.089L415.369 350.742L395.409 336.485L404.903 358.346C405.657 359.461 405.994 360.807 405.852 362.146C405.852 363.095 404.903 364.046 404.903 364.996C404.34 365.98 403.499 366.776 402.485 367.283C401.47 367.791 400.329 367.986 399.203 367.846C397.303 367.846 396.353 367.846 395.403 366.897M277.539 414.429L279.439 423.923L291.795 422.023C292.744 422.023 292.744 422.023 293.695 421.074C294.644 421.074 294.644 420.125 295.595 420.125C295.595 419.176 296.544 419.176 295.595 418.225V415.374C295.659 414.858 295.607 414.335 295.443 413.842C295.279 413.349 295.007 412.898 294.646 412.524C294.646 411.575 293.697 411.575 293.697 410.624C292.748 410.624 292.748 409.672 291.797 409.672H289.897C286.097 410.624 282.297 410.624 278.491 411.572H277.542V414.422L277.539 414.429ZM280.389 431.536L282.289 443.892L273.735 445.792L268.035 414.428V412.528C267.971 412.012 268.024 411.489 268.188 410.996C268.352 410.503 268.624 410.053 268.984 409.678L270.884 407.778C271.605 407.678 272.272 407.345 272.784 406.829L289.891 403.979C292.77 403.349 295.776 403.684 298.445 404.931C300.199 406.055 301.534 407.725 302.245 409.683C302.934 411.169 303.259 412.798 303.194 414.435V420.135C302.997 422.154 302.348 424.102 301.294 425.835C300.345 426.784 299.394 427.735 298.444 427.735C298.07 428.095 297.62 428.367 297.127 428.532C296.634 428.696 296.11 428.748 295.594 428.684L280.389 431.536ZM204.353 415.378L198.653 431.536L200.553 432.485C201.723 433.108 203.028 433.434 204.353 433.434C205.679 433.434 206.984 433.108 208.153 432.485C208.153 431.536 209.102 431.536 209.102 430.585C210.051 429.636 210.051 427.735 211.002 426.785C211.002 425.836 211.951 423.935 211.951 422.985V421.085C211.951 420.136 211.002 419.185 210.051 418.235C209.1 417.285 208.151 417.286 207.201 416.335L204.353 415.378ZM189.147 428.685L191.047 429.634L196.747 413.476L193.897 412.527C192.948 412.527 191.997 411.578 190.097 411.578C189.582 411.514 189.058 411.566 188.565 411.73C188.072 411.895 187.622 412.167 187.247 412.527L186.298 413.476C185.349 414.425 185.349 416.326 184.398 417.276C184.398 418.225 183.449 420.126 183.449 421.076V422.976C183.449 423.925 184.398 425.826 185.349 425.826C186.298 427.726 187.249 428.676 189.149 428.676M198.643 405.865L199.592 403.015L208.146 405.865L207.197 408.715L210.997 409.664C212.897 410.613 215.749 411.564 217.65 412.514C219.404 413.638 220.739 415.307 221.45 417.265C221.918 418.142 222.162 419.121 222.162 420.115C222.162 421.109 221.918 422.088 221.45 422.965C221.45 424.865 220.501 426.765 220.501 428.665C219.552 430.565 219.552 432.465 218.601 434.365C217.891 436.317 216.559 437.982 214.811 439.105C213.078 440.158 211.13 440.808 209.111 441.005C206.852 441.158 204.585 440.835 202.458 440.056L196.758 438.156L195.809 441.956L187.262 439.103L188.211 435.303L182.511 433.403L176.811 430.553C175.058 429.429 173.723 427.76 173.011 425.802V420.102C173.209 418.083 173.858 416.135 174.911 414.402C175.86 412.502 175.86 410.602 176.811 408.702C177.523 406.744 178.858 405.075 180.611 403.951C182.345 402.898 184.293 402.249 186.311 402.051C188.655 402.106 190.945 402.76 192.964 403.951L198.643 405.865ZM221.461 448.644H266.133V441.044H262.333L249.97 413.484C249.021 412.535 249.021 410.634 247.12 409.684C245.696 408.822 244.015 408.486 242.368 408.735C240.726 408.587 239.076 408.917 237.616 409.684C236.667 410.633 235.716 411.584 235.716 412.534L223.361 440.088H219.561V448.642L221.461 448.644ZM234.768 441.044L244.262 419.183L253.756 441.044H234.768ZM51.3373 324.118L43.7373 304.158L50.3903 302.258L56.0903 318.416V319.365H57.0393L61.7913 317.465L56.0913 299.404L62.7443 297.504L69.3923 315.564L75.0923 312.714V311.764L68.4393 294.657L75.0923 291.795C77.9423 298.448 79.8443 305.102 82.6923 312.704C83.1667 313.406 83.4202 314.233 83.4202 315.08C83.4202 315.927 83.1667 316.754 82.6923 317.456C82.6585 317.949 82.4474 318.413 82.0982 318.762C81.7489 319.111 81.2851 319.322 80.7923 319.356C79.8433 319.356 79.8433 320.308 78.8923 320.308L57.0333 327.917H53.2333C52.7406 327.883 52.2767 327.672 51.9275 327.323C51.5782 326.974 51.3672 326.51 51.3333 326.017V324.117M128.323 389.694C130.015 389.694 131.669 390.196 133.076 391.136C134.482 392.076 135.579 393.411 136.226 394.975C136.874 396.538 137.043 398.258 136.713 399.917C136.383 401.576 135.568 403.1 134.372 404.297C133.176 405.493 131.651 406.308 129.992 406.638C128.333 406.968 126.613 406.798 125.05 406.151C123.487 405.503 122.151 404.407 121.211 403C120.271 401.594 119.769 399.94 119.769 398.248C118.82 393.496 123.569 389.694 128.323 389.694Z" fill="white"/>
<path fill-rule="evenodd" clip-rule="evenodd" d="M160.637 266.143C144.479 267.092 128.321 265.194 132.123 235.728C135.923 217.667 132.123 209.115 124.523 203.412C133.077 203.412 141.63 197.712 149.235 181.551C163.501 156.839 178.7 162.543 191.056 172.997C185.356 157.791 183.456 141.633 211.965 135.93C230.026 134.03 237.628 126.436 240.479 118.823C243.329 127.377 250.934 134.029 268.993 135.93C297.507 141.63 294.656 157.791 288.953 172.997C301.309 162.542 317.467 156.839 331.724 181.551C339.324 197.709 347.882 203.412 356.436 203.412C349.783 209.112 345.981 217.669 348.836 235.728C351.689 264.242 336.478 267.092 320.322 266.143C333.627 274.697 344.084 288.004 325.074 308.914C311.769 321.277 309.868 330.77 311.769 339.338C305.116 334.586 294.662 333.638 279.453 342.188C252.84 353.594 244.287 341.239 240.485 325.081C236.685 341.239 228.129 353.595 201.517 342.188C185.359 333.634 175.854 333.634 168.252 339.338C171.102 330.784 168.252 321.277 154.945 308.923C136.884 288.014 147.345 274.706 160.645 266.152M150.183 269.943C132.122 271.843 114.06 268.043 117.867 235.726C121.667 215.766 117.867 205.311 109.313 199.603C118.807 199.603 128.321 192.95 136.868 174.891C153.026 146.378 170.133 153.03 184.39 165.398C177.737 148.291 175.836 130.232 208.152 123.579C228.119 120.721 236.668 113.108 240.475 103.614C243.325 113.108 252.831 120.721 272.791 123.574C304.155 130.227 302.254 148.286 294.652 165.393C308.909 153.987 326.968 146.385 343.126 174.887C351.68 192.948 361.187 199.599 370.681 199.599C363.081 205.299 358.325 215.757 363.081 235.722C366.881 268.038 348.824 270.888 330.765 269.939C345.971 279.433 358.32 294.651 336.465 318.413C321.259 332.67 319.358 343.125 321.259 352.63C313.659 346.93 302.251 345.977 284.192 356.43C254.729 369.735 245.224 354.53 240.472 337.422C235.721 355.483 226.215 369.738 196.752 356.43C178.691 346.936 168.238 346.936 159.685 352.63C162.535 343.136 159.685 332.67 144.479 318.413C123.57 294.651 134.985 279.445 150.179 269.939" fill="#FBBA40"/>
<path fill-rule="evenodd" clip-rule="evenodd" d="M160.644 266.141C144.486 267.09 128.328 265.192 132.13 235.726C135.93 217.665 132.13 209.113 124.53 203.41C133.084 203.41 141.637 197.71 149.242 181.549C163.49 156.84 178.705 162.541 191.054 173.005C185.354 157.799 183.454 141.641 211.963 135.938C230.024 134.036 237.624 126.444 240.477 118.826C243.327 127.38 250.932 134.032 268.991 135.933C297.491 141.627 294.652 157.785 288.949 173C301.305 162.545 317.463 156.842 331.72 181.554C339.32 197.712 347.878 203.415 356.432 203.415C349.779 209.115 345.977 217.672 348.832 235.731C351.682 264.231 336.478 267.088 320.321 266.137C333.628 274.691 344.083 287.998 325.073 308.908C311.766 321.264 309.867 330.769 311.766 339.323C305.113 334.571 294.659 333.623 279.45 342.173C252.837 353.579 244.284 341.224 240.482 325.066C236.682 341.224 228.126 353.58 201.514 342.173C185.349 333.626 175.843 333.626 168.241 339.326C171.091 330.772 168.241 321.265 154.934 308.911C136.873 288.002 147.334 274.694 160.634 266.14" fill="#E0172B"/>
<path fill-rule="evenodd" clip-rule="evenodd" d="M255.684 302.258C261.135 307.095 265.646 312.898 268.99 319.373C269.939 321.273 268.99 322.223 268.041 323.173C264.241 326.973 259.487 332.667 258.547 333.628C259.175 331.78 259.175 329.776 258.547 327.928C253.286 320.336 247.231 313.326 240.485 307.017C233.965 313.539 227.929 320.527 222.424 327.926C221.873 329.786 221.873 331.766 222.424 333.626C221.475 332.677 216.724 326.973 212.93 323.171C211.981 322.222 211.03 320.321 211.981 319.371C215.889 313.573 220.345 308.163 225.286 303.215C216.926 302.88 208.631 301.603 200.558 299.408V283.25C213.061 286.146 225.773 288.052 238.577 288.95C252.713 288.989 266.786 287.071 280.396 283.25V299.408C271.842 300.357 264.238 302.258 255.684 302.258Z" fill="white"/>
<path fill-rule="evenodd" clip-rule="evenodd" d="M314.61 203.411H288.947L289.896 204.36C289.896 230.973 261.382 269.941 230.967 280.396C246.279 282.23 261.795 279.59 275.639 272.796C307.003 255.689 315.559 220.52 316.508 204.364C316.508 203.415 316.508 203.415 315.559 202.464C316.511 204.36 315.56 203.411 314.61 203.411Z" fill="white"/>
<path fill-rule="evenodd" clip-rule="evenodd" d="M264.236 205.312C262.464 219.651 257.246 233.347 249.03 245.232C238.652 258.958 224.9 269.767 209.11 276.608C211.181 277.675 213.442 278.321 215.763 278.508C218.794 279.686 222.007 280.328 225.257 280.408C243.137 273.541 258.654 261.656 269.94 246.181C278.439 234.356 283.979 220.668 286.098 206.261C286.098 205.312 284.198 204.361 284.198 204.361H263.298C263.424 204.358 263.549 204.38 263.665 204.427C263.782 204.473 263.888 204.543 263.976 204.632C264.065 204.721 264.135 204.827 264.182 204.943C264.228 205.06 264.251 205.185 264.247 205.31" fill="white"/>
<path fill-rule="evenodd" clip-rule="evenodd" d="M229.072 188.203L222.419 178.709C219.569 175.859 222.419 173.009 224.319 171.109C229.071 166.357 234.774 160.654 239.525 154.951C240.284 153.832 240.621 152.48 240.478 151.136C242.776 154.482 245.316 157.655 248.078 160.63C248.618 161.539 248.819 162.61 248.646 163.654C248.472 164.697 247.934 165.645 247.129 166.33C242.381 172.036 235.727 178.689 230.975 183.436C230.026 185.336 230.026 187.236 229.075 188.188" fill="white"/>
<path fill-rule="evenodd" clip-rule="evenodd" d="M240.474 204.362L233.821 194.868C230.971 192.018 233.821 189.168 235.721 187.268C240.473 182.516 246.176 176.813 250.927 171.11C251.681 169.995 252.017 168.649 251.876 167.31C254.174 170.656 256.714 173.829 259.476 176.804C260.016 177.713 260.218 178.784 260.044 179.828C259.87 180.871 259.333 181.819 258.527 182.504C253.775 188.204 247.121 194.86 242.369 199.611C241.18 200.912 240.504 202.601 240.469 204.363" fill="white"/>
<path fill-rule="evenodd" clip-rule="evenodd" d="M175.844 203.413H166.35C165.401 203.413 165.401 203.413 164.45 204.362C163.934 204.874 163.601 205.542 163.501 206.262C164.037 219.937 167.966 233.264 174.932 245.044C181.898 256.824 191.684 266.687 203.409 273.746H205.309C211.207 270.948 216.921 267.777 222.416 264.252L221.467 263.303C209.105 253.788 190.101 222.421 190.101 205.313C190.098 205.188 190.12 205.063 190.167 204.946C190.213 204.83 190.283 204.724 190.372 204.635C190.461 204.546 190.567 204.476 190.683 204.43C190.8 204.383 190.924 204.361 191.05 204.364L175.844 203.413Z" fill="white"/>
<path fill-rule="evenodd" clip-rule="evenodd" d="M217.664 205.312C217.66 205.187 217.683 205.062 217.729 204.945C217.776 204.829 217.846 204.723 217.935 204.634C218.023 204.545 218.129 204.475 218.246 204.429C218.362 204.382 218.487 204.36 218.613 204.363H198.653C198.401 204.356 198.151 204.401 197.918 204.494C197.684 204.587 197.472 204.727 197.294 204.905C197.117 205.083 196.977 205.295 196.884 205.528C196.791 205.762 196.746 206.012 196.753 206.263C200.496 227.567 210.797 247.171 226.218 262.339C230.934 259.629 235.121 256.087 238.574 251.884L237.625 250.935L236.676 249.986C227.412 236.517 220.947 221.326 217.664 205.312Z" fill="white"/>
</svg>
