<svg width="203" height="481" viewBox="0 0 203 481" fill="none" xmlns="http://www.w3.org/2000/svg">
<path d="M9.747 392.082C9.41084 392.264 9.02618 392.336 8.647 392.288H1.416C0.639999 392.288 0.324999 391.944 0.482999 391.266L6.329 366.281C6.62277 365.027 7.07861 363.817 7.685 362.681C8.29141 361.515 9.09993 360.465 10.073 359.581C11.1059 358.637 12.3099 357.901 13.62 357.41C15.147 356.843 16.7665 356.567 18.395 356.595H33.893C34.306 356.595 34.551 356.654 34.64 356.782C34.729 356.91 34.709 357.244 34.571 357.823L33.225 363.59C33.1709 363.92 33.0282 364.229 32.812 364.484C32.5772 364.657 32.2872 364.737 31.997 364.71H19.397C18.8172 364.694 18.2399 364.791 17.697 364.995C17.2933 365.148 16.9254 365.382 16.616 365.683C16.3517 365.95 16.1386 366.263 15.987 366.607C15.8417 366.937 15.7265 367.279 15.643 367.629L14.906 370.793H28.327C28.74 370.793 28.985 370.862 29.074 370.999C29.163 371.136 29.133 371.49 29.005 372.07L27.767 377.373C27.5803 378.159 27.1677 378.552 26.529 378.552H13.117L10.13 391.295C10.0874 391.597 9.95779 391.88 9.757 392.11L9.747 392.082Z" fill="white"/>
<path d="M65.1915 374.384C64.5881 377.048 63.6746 379.632 62.4695 382.084C61.4035 384.255 59.9674 386.223 58.2255 387.901C56.5168 389.515 54.4979 390.765 52.2915 391.576C49.8075 392.459 47.1856 392.892 44.5495 392.853C42.1932 392.944 39.8456 392.518 37.6715 391.605C35.948 390.862 34.5035 389.593 33.5445 387.98C32.5661 386.202 32.0429 384.209 32.0215 382.18C31.9573 379.586 32.2449 376.996 32.8765 374.48C33.4773 371.834 34.4291 369.279 35.7065 366.885C36.8558 364.711 38.3487 362.737 40.1275 361.039C41.8371 359.431 43.8402 358.166 46.0275 357.315C48.3544 356.428 50.8274 355.987 53.3175 356.015C55.6706 355.947 58.0105 356.391 60.1755 357.315C61.9056 358.105 63.3624 359.391 64.3615 361.009C65.3753 362.773 65.9357 364.762 65.9925 366.796C66.0823 369.346 65.8109 371.897 65.1865 374.371L65.1915 374.384ZM55.0325 374.433C55.297 373.179 55.484 371.91 55.5925 370.633C55.7022 369.584 55.6325 368.524 55.3865 367.499C55.1802 366.667 54.7075 365.925 54.0405 365.387C53.2362 364.81 52.2576 364.527 51.2695 364.587C50.2901 364.585 49.3287 364.85 48.4885 365.353C47.5932 365.889 46.8066 366.589 46.1695 367.416C45.4525 368.35 44.8552 369.37 44.3915 370.452C43.8777 371.62 43.4733 372.834 43.1835 374.077C42.8489 375.47 42.619 376.885 42.4955 378.312C42.3882 379.384 42.4815 380.467 42.7705 381.505C43.0048 382.315 43.5028 383.024 44.1855 383.519C45.0012 384.04 45.9602 384.291 46.9265 384.236C47.9779 384.258 49.014 383.981 49.9135 383.436C50.8114 382.885 51.587 382.156 52.1925 381.294C52.8822 380.324 53.4467 379.271 53.8725 378.16C54.3468 376.949 54.7312 375.704 55.0225 374.436L55.0325 374.433Z" fill="white"/>
<path d="M131.168 372.805C131.962 373.163 132.667 373.693 133.231 374.357C133.739 374.979 134.129 375.688 134.381 376.45C134.629 377.225 134.748 378.036 134.735 378.85C134.735 379.684 134.636 380.515 134.44 381.326C134.072 382.93 133.398 384.447 132.455 385.796C131.512 387.137 130.349 388.309 129.016 389.264C127.655 390.244 126.146 391 124.546 391.504C122.895 392.033 121.171 392.298 119.437 392.29H106.172C104.772 392.29 103.942 392.025 103.657 391.504C103.362 390.671 103.362 389.763 103.657 388.93L110.436 359.956C110.605 359.021 111.022 358.148 111.645 357.431C112.462 356.777 113.505 356.473 114.545 356.586H127.809C129.214 356.574 130.615 356.746 131.975 357.097C133.12 357.383 134.179 357.943 135.06 358.728C135.888 359.496 136.473 360.49 136.74 361.587C137.041 362.971 137.001 364.408 136.622 365.773C136.271 367.192 135.595 368.511 134.647 369.624C133.723 370.795 132.578 371.773 131.277 372.503L131.198 372.803L131.168 372.805ZM117.761 369.74H123.086C123.783 369.731 124.467 369.556 125.081 369.229C125.435 369.014 125.737 368.723 125.966 368.379C126.195 368.034 126.346 367.643 126.407 367.234C126.512 366.937 126.543 366.619 126.496 366.307C126.45 365.996 126.329 365.7 126.142 365.446C125.919 365.227 125.65 365.058 125.354 364.953C125.059 364.848 124.745 364.808 124.432 364.837H118.91L117.76 369.73L117.761 369.74ZM124.639 380.656C124.766 380.252 124.802 379.826 124.746 379.407C124.69 378.987 124.543 378.585 124.315 378.229C124.033 377.891 123.673 377.629 123.265 377.464C122.857 377.3 122.415 377.239 121.977 377.286H115.993L114.431 383.967H120.415C121.013 383.984 121.607 383.882 122.164 383.667C122.629 383.472 123.054 383.196 123.422 382.852C123.75 382.543 124.022 382.181 124.228 381.781C124.409 381.425 124.547 381.049 124.641 380.661L124.639 380.656Z" fill="white"/>
<path d="M161.606 392.289H145.849C144.216 392.365 142.587 392.069 141.084 391.424C140.046 390.939 139.182 390.146 138.608 389.154C138.092 388.19 137.825 387.113 137.832 386.02C137.83 384.869 137.961 383.721 138.225 382.601L142.047 366.281C142.341 365.027 142.797 363.817 143.403 362.681C144.018 361.516 144.825 360.462 145.791 359.566C146.826 358.625 148.029 357.888 149.338 357.395C150.868 356.827 152.491 356.551 154.123 356.58H169.165C169.578 356.58 169.823 356.639 169.912 356.767C170.001 356.895 169.981 357.229 169.853 357.808L168.507 363.575C168.455 363.907 168.309 364.218 168.085 364.469C167.851 364.643 167.56 364.724 167.27 364.695H155.131C154.551 364.679 153.974 364.776 153.431 364.98C153.027 365.134 152.658 365.371 152.349 365.674C152.085 365.937 151.872 366.247 151.72 366.588C151.579 366.919 151.464 367.261 151.376 367.61L150.876 369.752H164.549C164.962 369.752 165.207 369.821 165.296 369.958C165.385 370.095 165.355 370.449 165.217 371.029L163.979 376.335C163.792 377.111 163.379 377.504 162.731 377.504H149.069L148.175 381.326C148.03 381.823 147.986 382.345 148.047 382.859C148.087 383.185 148.244 383.485 148.489 383.704C148.746 383.901 149.051 384.024 149.373 384.058C149.774 384.108 150.177 384.131 150.581 384.127H163.54C163.953 384.127 164.198 384.186 164.287 384.314C164.376 384.442 164.356 384.786 164.218 385.355L162.872 391.122C162.685 391.898 162.272 392.291 161.624 392.291L161.606 392.289Z" fill="white"/>
<path d="M199.787 364.69H191.072L184.862 391.208C184.814 391.517 184.685 391.809 184.489 392.053C184.159 392.251 183.771 392.33 183.389 392.279H176.148C175.372 392.279 175.057 391.925 175.234 391.208L181.444 364.69H172.926C172.209 364.69 171.943 364.297 172.126 363.521L173.462 357.803C173.6 357.223 173.757 356.879 173.943 356.762C174.216 356.622 174.522 356.561 174.827 356.585H201.709C201.988 356.552 202.27 356.614 202.509 356.762C202.637 356.88 202.627 357.224 202.489 357.803L201.153 363.521C201.118 363.85 200.96 364.153 200.71 364.37C200.46 364.587 200.138 364.701 199.807 364.69H199.787Z" fill="white"/>
<path d="M79.555 372.953L75.193 391.208C75.1449 391.517 75.0162 391.809 74.82 392.053C74.4895 392.251 74.1017 392.33 73.72 392.279H66.478C65.692 392.279 65.387 391.925 65.554 391.208L72.854 360.608C73.0283 359.401 73.5742 358.278 74.416 357.395C75.3346 356.777 76.4364 356.489 77.54 356.58H80.193C80.63 356.577 81.0666 356.603 81.5 356.659C81.8392 356.702 82.1684 356.804 82.473 356.959C82.7795 357.132 83.0471 357.366 83.259 357.647C83.5391 358.033 83.7825 358.444 83.986 358.875L88.673 369.791L91.173 376.01H91.527L95.909 357.647C95.9599 357.336 96.092 357.045 96.292 356.802C96.6225 356.604 97.0103 356.525 97.392 356.576H104.633C105.409 356.576 105.724 356.93 105.547 357.647L98.247 388.247C98.0199 389.306 97.5395 390.294 96.847 391.126C96.4171 391.546 95.9004 391.866 95.3335 392.065C94.7665 392.263 94.1629 392.335 93.565 392.276H90.903C90.4727 392.282 90.0424 392.256 89.616 392.197C89.2668 392.161 88.9275 392.059 88.616 391.897C88.3051 391.722 88.0313 391.489 87.81 391.209C87.5229 390.832 87.2853 390.419 87.103 389.981L82.463 379.274L79.889 372.947H79.535L79.555 372.953Z" fill="white"/>
<path d="M20.9177 433.691L9.72671 419.012V433.691H2.05371V404.255H9.72671V417.588L19.4537 404.255H28.3747L18.2447 418.266L30.0247 433.701H20.9247L20.9177 433.691Z" fill="white"/>
<path d="M59.4139 404.246L49.7359 426.019C49.0494 427.628 48.2124 429.168 47.2359 430.619C45.6739 432.761 43.1779 434.097 39.2089 434.235C37.8523 434.227 36.502 434.049 35.1899 433.704V427.19C36.5749 427.229 37.3709 427.278 37.5969 427.278C38.9908 427.332 40.361 426.906 41.4779 426.07L31.0879 404.256H39.6559L45.6299 417.956L51.1119 404.256H59.4039L59.4139 404.246Z" fill="white"/>
<path d="M63.3342 404.246H84.4292V411.163H70.9972V415.486H77.0592C82.9052 415.486 87.0022 419.013 87.0022 424.407C87.0022 429.801 82.7672 433.682 77.0592 433.682H63.3242V404.246H63.3342ZM76.5882 427.217C76.9746 427.263 77.3663 427.223 77.7355 427.1C78.1046 426.977 78.4421 426.774 78.7237 426.506C79.0053 426.238 79.2242 425.91 79.3647 425.547C79.5051 425.184 79.5637 424.795 79.5362 424.407C79.5362 422.619 78.5532 421.646 76.5882 421.646H71.0072V427.217H76.5882Z" fill="white"/>
<path d="M106.378 403.715C114.985 403.538 122.478 410.583 122.305 418.974C122.482 427.404 114.985 434.36 106.378 434.233C97.6783 434.371 90.3633 427.404 90.5403 418.974C90.3633 410.583 97.7613 403.535 106.378 403.715ZM106.427 410.76C105.355 410.717 104.286 410.897 103.288 411.289C102.289 411.682 101.383 412.278 100.627 413.039C97.6403 416.075 97.6793 421.872 100.627 424.947C101.393 425.691 102.302 426.273 103.299 426.656C104.296 427.039 105.36 427.217 106.427 427.177C108.572 427.13 110.612 426.244 112.112 424.711C113.612 423.178 114.452 421.118 114.452 418.973C114.452 416.828 113.612 414.768 112.112 413.235C110.612 411.701 108.572 410.816 106.427 410.769V410.76Z" fill="white"/>
<path d="M146.431 433.691L135.24 419.012V433.691H127.571V404.255H135.244V417.588L144.971 404.255H153.892L143.762 418.266L155.542 433.701H146.442L146.431 433.691Z" fill="white"/>
<path d="M31.717 467.796V480.996H24.043V474.708H7.67398V480.996H0.000976562V467.796H2.45698C4.41964 466.283 5.40098 460.692 5.40098 451.024V445.266H27.57V467.796H31.717ZM19.897 467.796V452.183H12.675C12.626 459.365 11.958 464.543 10.675 467.795H19.911L19.897 467.796Z" fill="white"/>
<path d="M36.4434 445.266H47.9974C54.5974 445.266 59.3754 449.324 59.3754 455.396C59.3754 461.468 54.4754 465.565 47.9974 465.565H44.1164V474.712H36.4434V445.276V445.266ZM48.0374 458.874C48.5001 458.888 48.9609 458.808 49.3924 458.641C49.8239 458.473 50.2174 458.22 50.5495 457.898C50.8817 457.575 51.1457 457.189 51.326 456.763C51.5063 456.337 51.5992 455.878 51.5992 455.415C51.5992 454.953 51.5063 454.494 51.326 454.068C51.1457 453.642 50.8817 453.256 50.5495 452.933C50.2174 452.611 49.8239 452.358 49.3924 452.19C48.9609 452.023 48.5001 451.943 48.0374 451.957H44.1074V458.874H48.0374Z" fill="white"/>
<path d="M88.9881 445.266L79.3101 467.039C78.6237 468.648 77.7866 470.188 76.8101 471.639C75.2481 473.781 72.7521 475.117 68.7831 475.255C67.4265 475.247 66.0763 475.069 64.7641 474.724V468.21C66.1491 468.249 66.9451 468.298 67.1711 468.298C68.565 468.352 69.9353 467.926 71.0521 467.09L60.6621 445.276H69.2301L75.2041 458.976L80.6861 445.276H88.9781L88.9881 445.266Z" fill="white"/>
<path d="M125.646 474.702L116.233 460.161V474.702H108.56V460.161L99.1469 474.702H90.0469L101.022 459.355L90.8039 445.255H99.7249L108.558 458.499V445.256H116.231V458.496L125.064 445.252H133.985L123.767 459.352L134.742 474.699H125.642L125.646 474.702Z" fill="white"/>
<path d="M138.674 445.266H159.769V452.183H146.334V456.506H152.396C158.242 456.506 162.339 460.033 162.339 465.427C162.339 470.821 158.104 474.702 152.396 474.702H138.664V445.266H138.674ZM151.918 468.237C152.304 468.283 152.696 468.243 153.065 468.12C153.434 467.997 153.772 467.794 154.054 467.526C154.335 467.258 154.554 466.93 154.694 466.567C154.835 466.205 154.894 465.815 154.866 465.427C154.866 463.639 153.883 462.666 151.918 462.666H146.334V468.237H151.915H151.918Z" fill="white"/>
<path d="M167.393 445.266H175.066V454.413H179.703C186.168 454.413 191.081 458.648 191.081 464.582C191.081 470.516 186.306 474.712 179.703 474.712H167.393V445.276V445.266ZM179.753 468.011C180.215 468.025 180.676 467.945 181.108 467.778C181.539 467.61 181.933 467.357 182.265 467.035C182.597 466.712 182.861 466.326 183.041 465.9C183.222 465.474 183.314 465.015 183.314 464.553C183.314 464.09 183.222 463.631 183.041 463.205C182.861 462.779 182.597 462.393 182.265 462.07C181.933 461.748 181.539 461.495 181.108 461.327C180.676 461.16 180.215 461.08 179.753 461.094H175.066V468.011H179.753ZM194.962 445.266H202.635V474.702H194.962V445.266Z" fill="white"/>
<path fill-rule="evenodd" clip-rule="evenodd" d="M82.3164 176.959C94.7746 181.493 108.432 181.493 120.89 176.959C111.232 208.537 105.622 240.106 101.603 271.684C98.4594 240.106 92.9764 208.537 82.3164 176.959Z" fill="white"/>
<path fill-rule="evenodd" clip-rule="evenodd" d="M184.606 83.984C184.644 73.0629 182.526 62.2417 178.372 52.141C174.219 42.0403 168.113 32.8587 160.404 25.1229C152.695 17.387 143.535 11.2491 133.449 7.06094C123.362 2.87282 112.549 0.716949 101.627 0.716949C90.7062 0.716949 79.8925 2.87282 69.8062 7.06094C59.72 11.2491 50.5597 17.387 42.8507 25.1229C35.1416 32.8587 29.0355 42.0403 24.8824 52.141C20.7293 62.2417 18.611 73.0629 18.6489 83.984C18.6489 147.759 111.772 311.034 42.4489 339.105H81.4519C113.452 299.185 75.5269 218.737 55.1109 150.884C69.1999 161.918 82.3459 166.968 101.633 166.968C120.92 166.968 134.066 161.918 148.155 150.884C127.738 218.747 89.8129 299.184 121.814 339.105H160.82C91.4929 311.034 184.62 147.759 184.62 83.984H184.606ZM160.78 95.017C160.78 95.017 160.76 95.086 160.751 95.117C141.405 95.146 131.451 94.95 130.037 94.734C128.432 94.0707 126.863 93.323 125.337 92.494C121.525 86.6296 117.335 81.0198 112.794 75.7C104.953 66.179 99.2549 59.253 101.318 47.394C106.448 47.6153 111.541 48.3625 116.518 49.624C129.638 52.7975 141.362 60.1718 149.904 70.624C155.122 77.2021 159.001 84.7391 161.321 92.809C161.154 93.553 160.969 94.28 160.78 95.017ZM108.88 78.917C111.326 81.884 113.93 85.058 116.553 88.644C115.396 88.3406 114.2 88.2178 113.006 88.28C110.496 88.4303 108.016 88.9025 105.627 89.685C97.7859 87.995 89.3659 91.011 83.2059 93.212C82.1249 93.595 81.1059 93.959 80.1699 94.273C79.1692 89.1845 78.5909 84.0219 78.4409 78.838C78.0982 68.6164 79.546 58.4137 82.7189 48.691C87.1587 47.8797 91.6565 47.4266 96.1689 47.336C94.0369 60.905 100.286 68.49 108.869 78.924L108.88 78.917ZM135.428 30.096C136.018 30.234 136.607 30.391 137.197 30.558C145.093 36.0964 151.538 43.4567 155.985 52.0152C160.432 60.5737 162.75 70.0781 162.743 79.723C162.743 80.489 162.723 81.246 162.694 82.012C158.595 72.7485 152.406 64.5606 144.611 58.0908C136.816 51.6209 127.629 47.045 117.769 44.722C112.829 43.4693 107.781 42.6917 102.694 42.4C104.936 37.3913 109.052 33.4617 114.16 31.455C120.932 28.7822 128.374 28.3082 135.431 30.1L135.428 30.096ZM100.513 19.678C101.23 19.649 101.947 19.639 102.675 19.639C110.4 19.63 118.053 21.1145 125.214 24.011C120.737 24.1304 116.321 25.0731 112.186 26.792C104.847 29.916 99.5859 35.399 97.3499 42.247C93.132 42.2679 88.9211 42.5931 84.7499 43.22C87.7785 35.7927 92.0488 28.9348 97.3779 22.94C98.3509 21.849 99.4019 20.759 100.512 19.688L100.513 19.678ZM92.8399 20.444C86.7899 27.4779 82.0719 35.5551 78.9169 44.28C77.0899 44.673 75.3999 45.095 73.7489 45.547C72.1869 45.979 70.6489 46.447 69.1609 46.947C72.7279 39.5 75.8219 32.288 76.0609 25.847C81.3567 23.2268 87.0119 21.407 92.8419 20.447L92.8399 20.444ZM73.3949 78.973C73.5487 84.4142 74.1568 89.8331 75.2129 95.173H52.5359C53.4199 79.187 60.3769 64.902 65.9569 53.514C68.9444 52.3234 71.9946 51.2969 75.0939 50.439C75.7029 50.272 76.3419 50.105 77.0389 49.928C74.3062 59.3611 73.0728 69.165 73.3839 78.981L73.3949 78.973ZM70.6139 28.9C69.4739 34.825 65.9769 41.987 62.2719 49.543C56.8105 51.8582 51.5799 54.6841 46.6499 57.983C51.3219 45.9752 59.7211 35.7819 70.6139 28.9ZM42.5929 79.719C42.5898 75.1219 43.1139 70.5396 44.1549 66.062C48.7105 62.4847 53.6075 59.365 58.7749 56.748C53.3909 68.067 48.1049 80.9 47.3979 95.165H44.6079C43.2711 90.1255 42.5941 84.9338 42.5939 79.72L42.5929 79.719ZM70.7229 132.343C69.0329 134.416 67.0879 134.102 65.9279 133.198C65.5895 132.946 65.3078 132.625 65.1009 132.257C64.8941 131.889 64.7666 131.482 64.7269 131.061C64.6871 130.641 64.7359 130.217 64.8701 129.817C65.0043 129.416 65.2209 129.048 65.5059 128.737L65.5749 128.637C65.5749 128.637 65.6439 128.549 65.6829 128.509L70.2829 122.732C70.542 122.38 70.879 122.093 71.2677 121.894C71.6564 121.694 72.0861 121.587 72.5229 121.582C73.3324 121.606 74.1106 121.9 74.7339 122.417C75.0671 122.625 75.3536 122.9 75.5753 123.224C75.797 123.548 75.9491 123.915 76.022 124.3C76.0949 124.686 76.087 125.083 75.9989 125.466C75.9108 125.849 75.7443 126.209 75.5099 126.524L75.4219 126.632L75.2059 126.819V126.898L71.0009 132.056C70.8964 132.141 70.8008 132.236 70.7159 132.341L70.7229 132.343ZM72.4229 142.276C71.2729 141.343 70.5559 139.486 72.3149 137.324L78.7209 129.454L80.9209 126.762C81.1934 126.388 81.5471 126.079 81.9554 125.861C82.3637 125.642 82.8162 125.519 83.2789 125.5C84.1298 125.514 84.9494 125.823 85.5979 126.374C86.2505 126.875 86.7015 127.594 86.8689 128.4C86.9296 128.829 86.894 129.265 86.7648 129.678C86.6356 130.091 86.416 130.47 86.1219 130.788L77.5149 141.35C75.8049 143.45 73.7219 143.325 72.4259 142.264L72.4229 142.276ZM81.6879 148.083C81.3517 147.82 81.0739 147.489 80.8721 147.113C80.6703 146.736 80.5489 146.322 80.5156 145.896C80.4823 145.471 80.5379 145.042 80.6787 144.639C80.8196 144.236 81.0427 143.866 81.3339 143.554L88.8009 134.387C90.3629 132.501 92.4659 133.387 93.4679 134.2C93.8679 134.534 95.7969 136.283 94.1159 138.346L86.6099 147.346C86.3531 147.739 86.0162 148.072 85.6214 148.326C85.2265 148.579 84.7825 148.746 84.3186 148.815C83.8547 148.885 83.3813 148.856 82.9295 148.729C82.4776 148.603 82.0576 148.383 81.6969 148.083H81.6879ZM101.437 145.263L95.8169 152.072C95.49 152.543 95.0415 152.917 94.5191 153.154C93.9967 153.391 93.4199 153.482 92.8499 153.418C92.3372 153.335 91.8549 153.12 91.4502 152.794C91.0454 152.469 90.7321 152.044 90.5409 151.561C90.3711 151.045 90.3466 150.492 90.4701 149.963C90.5935 149.434 90.8602 148.949 91.2409 148.561L96.7729 141.939C96.8809 141.851 96.9797 141.752 97.0679 141.644C97.3241 141.278 97.679 140.992 98.0914 140.82C98.5037 140.648 98.9564 140.596 99.3969 140.671C99.9663 140.786 100.498 141.042 100.944 141.414C101.39 141.786 101.736 142.264 101.952 142.803C102.102 143.217 102.134 143.665 102.046 144.096C101.958 144.528 101.752 144.927 101.452 145.249L101.437 145.263ZM109.337 151.355C109.158 151.635 108.921 151.874 108.644 152.056C108.366 152.239 108.053 152.361 107.725 152.415C107.397 152.469 107.061 152.453 106.74 152.368C106.418 152.284 106.118 152.133 105.859 151.925L103.078 150.098L104.788 148.025C105.286 147.43 105.681 146.755 105.957 146.03L108.806 147.936C108.875 147.985 108.944 148.036 109.012 148.093C109.256 148.281 109.459 148.517 109.608 148.787C109.757 149.057 109.85 149.354 109.879 149.661C109.908 149.968 109.875 150.277 109.779 150.57C109.684 150.864 109.53 151.134 109.326 151.365L109.337 151.355ZM138.96 133.837C138.442 134.513 137.678 134.955 136.834 135.068C135.99 135.18 135.137 134.953 134.46 134.437L131.866 132.668L115.889 120.69C115.427 120.347 114.848 120.199 114.278 120.277C113.995 120.316 113.722 120.411 113.476 120.556C113.23 120.701 113.015 120.893 112.844 121.122C112.498 121.584 112.35 122.163 112.431 122.734C112.512 123.305 112.816 123.821 113.276 124.168L129.036 135.978C129.435 136.578 129.614 137.298 129.541 138.015C129.468 138.732 129.148 139.401 128.636 139.908C128.132 140.524 127.409 140.92 126.619 141.013C125.829 141.107 125.034 140.89 124.401 140.408L121.306 138.07H121.296C121.113 137.907 120.919 137.756 120.716 137.618L109.535 129.139C109.307 128.967 109.048 128.841 108.772 128.769C108.495 128.697 108.207 128.68 107.925 128.72C107.642 128.759 107.37 128.853 107.123 128.998C106.877 129.142 106.662 129.334 106.489 129.562C106.317 129.789 106.192 130.049 106.12 130.325C106.048 130.601 106.031 130.889 106.07 131.172C106.109 131.455 106.204 131.727 106.348 131.973C106.493 132.219 106.684 132.435 106.912 132.607L118.132 141.116L118.201 141.165C118.22 141.179 118.24 141.192 118.26 141.204C118.368 141.283 118.476 141.371 118.574 141.45C118.591 141.469 118.611 141.486 118.633 141.499C120.048 142.786 119.533 144.555 118.662 145.685C118.338 146.098 116.618 148.092 114.368 146.55L111.646 144.605C111.52 144.5 111.389 144.401 111.253 144.31L105.721 140.616C105.173 139.528 104.382 138.581 103.409 137.848C102.436 137.116 101.308 136.617 100.111 136.391C99.7832 136.333 99.4516 136.3 99.1189 136.291C99.0424 135.23 98.7461 134.196 98.2487 133.256C97.7514 132.315 97.0639 131.489 96.2299 130.828C94.8296 129.655 93.0827 128.975 91.2579 128.892C91.2588 128.477 91.2254 128.063 91.1579 127.654C90.82 125.808 89.8255 124.147 88.3579 122.977C87.1976 121.977 85.7607 121.353 84.2377 121.188C82.7147 121.023 81.1775 121.324 79.8299 122.053C79.2899 120.847 78.4636 119.792 77.4229 118.978C74.4849 116.669 69.9229 116.278 66.8999 119.99L62.6359 125.355C54.78 118.379 48.8919 109.464 45.5599 99.5H76.8599C78.8939 99.353 81.5759 98.39 84.6809 97.28C88.7189 95.836 93.6019 94.097 98.4459 93.635C95.1091 96.5547 92.4183 100.139 90.5459 104.158L85.8199 112.617C85.6402 112.826 85.5063 113.07 85.4269 113.334C85.2823 113.77 85.2806 114.24 85.422 114.676C85.5634 115.113 85.8405 115.493 86.2129 115.761C89.1019 117.873 91.7449 118.905 94.2699 118.905C94.7903 118.903 95.3095 118.857 95.8219 118.767C99.8899 118.06 102.876 114.64 105.48 110.936C107.969 111.605 110.62 111.295 112.888 110.071L135.969 127.254L136.834 127.883L138.367 128.944C138.595 129.098 138.806 129.276 138.996 129.475C139.541 130.071 139.838 130.851 139.827 131.658C139.816 132.465 139.498 133.238 138.937 133.818L138.96 133.837ZM141.652 126.016C141.397 125.792 141.128 125.585 140.846 125.397L139.353 124.365L138.547 123.775L114.289 105.716C114.254 105.691 114.218 105.668 114.181 105.647C114.122 105.605 114.059 105.569 113.994 105.539L113.817 105.451C113.75 105.424 113.681 105.401 113.611 105.382C113.545 105.362 113.478 105.346 113.411 105.333L113.195 105.304C113.057 105.294 112.919 105.294 112.782 105.304C112.715 105.309 112.648 105.318 112.582 105.333C112.509 105.346 112.437 105.362 112.366 105.382C112.302 105.399 112.239 105.422 112.179 105.451C112.11 105.48 112.051 105.51 111.979 105.539C111.917 105.57 111.858 105.606 111.802 105.647L111.684 105.726C110.823 106.397 109.792 106.814 108.707 106.93C107.622 107.046 106.526 106.857 105.543 106.384C105.075 106.164 104.544 106.119 104.046 106.258C103.548 106.397 103.117 106.71 102.831 107.141C99.9819 111.356 97.6829 114.058 95.0689 114.52C93.421 114.692 91.7651 114.278 90.3919 113.351L94.3419 106.277L94.3909 106.189C96.7789 101.473 100.091 96.334 106.505 93.966C108.692 93.1931 110.978 92.7332 113.294 92.6C115.868 92.433 119.317 94.241 122.657 95.99H122.667L122.696 96.01C124.612 97.0629 126.587 98.0044 128.611 98.83C129.171 99.046 130.321 99.488 159.482 99.449C156.053 109.753 149.889 118.933 141.649 126.006L141.652 126.016Z" fill="white"/>
</svg>
