<svg width="440" height="480" viewBox="0 0 440 480" fill="none" xmlns="http://www.w3.org/2000/svg">
<mask id="mask0_2_15103" style="mask-type:luminance" maskUnits="userSpaceOnUse" x="0" y="0" width="440" height="480">
<path d="M439.424 0H0.574219V480H439.424V0Z" fill="white"/>
</mask>
<g mask="url(#mask0_2_15103)">
<mask id="mask1_2_15103" style="mask-type:luminance" maskUnits="userSpaceOnUse" x="0" y="0" width="440" height="480">
<path d="M439.424 0H0.574219V480H439.424V0Z" fill="white"/>
</mask>
<g mask="url(#mask1_2_15103)">
<path d="M164.31 475.74L87.3956 356.995L36.7266 109.566L44.9506 106.604C54.6963 103.099 64.6276 100.134 74.6996 97.721C82.3186 95.895 90.1056 94.374 97.9076 93.183L83.5516 27.434L92.3516 24.658C133.474 11.6811 176.28 4.8191 219.399 4.29202C221.212 4.27002 223.03 4.25902 224.84 4.25902C268.936 4.24805 312.785 10.8636 354.916 23.884L364.68 26.901L343.257 93.231C350.511 94.312 357.739 95.712 364.808 97.406C375.033 99.8569 385.093 102.948 394.931 106.661L403.088 109.74L348.937 356.912L276.472 475.74H164.31ZM264.935 455.664L329.721 349.43L379.44 122.491C373.04 120.349 366.515 118.478 359.99 116.915C349.73 114.46 339.314 112.709 328.816 111.674L316.303 110.443L339.01 40.143C301.906 29.6546 263.533 24.3351 224.976 24.335C223.202 24.335 221.433 24.346 219.657 24.368C181.649 24.835 143.881 30.4645 107.39 41.102L122.521 110.412L111.341 111.663C100.63 112.865 90.0032 114.724 79.5206 117.23C73.0546 118.778 66.5726 120.597 60.2056 122.649L106.63 349.349L175.491 455.66L264.935 455.664Z" fill="white"/>
<path d="M224.839 8.51801C268.511 8.50335 311.938 15.0549 353.661 27.953L359.303 29.697L337.643 96.752C356.716 99.1912 375.438 103.854 393.426 110.644L398.14 112.424L344.928 355.308L274.081 471.482H166.626L91.4075 355.353L41.6395 112.323L46.3945 110.612C55.9932 107.16 65.7747 104.24 75.6945 101.863C84.6805 99.71 93.8545 97.995 103.047 96.745L88.5475 30.325L93.6355 28.719C134.36 15.868 176.752 9.07271 219.452 8.55101C221.246 8.52901 223.046 8.51901 224.839 8.51901M173.172 459.919H267.326L333.726 351.036L384.411 119.7C366.58 113.404 348.052 109.287 329.232 107.44L321.981 106.726L344.414 37.273C305.628 25.8632 265.406 20.0716 224.976 20.075C223.185 20.075 221.394 20.0867 219.604 20.11C179.879 20.5959 140.419 26.6667 102.384 38.144L117.354 106.701L110.869 107.427C99.983 108.649 89.1819 110.539 78.5275 113.087C70.7065 114.96 62.9035 117.21 55.2715 119.787L102.616 350.987L173.172 459.915M224.844 1.13616e-05C223.013 1.13616e-05 221.18 0.0110114 219.344 0.0330114C175.809 0.56634 132.588 7.49607 91.0685 20.6L85.9795 22.2L78.5615 24.542L80.2205 32.142L92.7875 89.692C86.3705 90.775 79.9875 92.075 73.7095 93.578C63.485 96.0279 53.4031 99.0384 43.5095 102.596L38.7555 104.307L31.8145 106.807L33.2945 114.033L83.0615 357.062L83.3835 358.635L84.2575 359.984L159.476 476.113L161.994 480H278.861L281.35 475.916L352.199 359.743L352.941 358.525L353.246 357.131L406.461 114.248L408.036 107.057L401.149 104.457L396.436 102.678C386.432 98.9019 376.199 95.758 365.8 93.265C360.222 91.928 354.546 90.773 348.839 89.808L367.407 32.317L370.059 24.107L361.816 21.56L356.174 19.816C313.637 6.66985 269.367 -0.0100556 224.844 1.13616e-05ZM112.403 44.1C147.343 34.2765 183.418 29.0745 219.709 28.627C221.468 28.605 223.22 28.595 224.975 28.595C261.661 28.5942 298.185 33.4589 333.591 43.062L313.876 104.1L310.626 114.16L321.147 115.195L328.399 115.909C338.705 116.924 348.928 118.643 358.999 121.052C364.172 122.292 369.345 123.728 374.454 125.343L325.714 347.817L262.545 451.4H177.803L110.639 347.711L65.1485 125.56C70.2325 124 75.3755 122.6 80.5115 121.371C90.8249 118.905 101.28 117.075 111.818 115.892L118.302 115.166L127.692 114.115L125.676 104.883L112.403 44.1Z" fill="#002581"/>
<path d="M264.844 222.962H172.931L125.031 47.304L129.431 46.512C159.298 41.1505 189.581 38.4442 219.925 38.425H220.338C250.818 38.4199 281.238 41.1263 311.238 46.512L315.705 47.312L264.844 222.962ZM179.183 214.779H258.696L305.312 53.779C277.24 49.0027 248.815 46.6031 220.339 46.606H219.932C191.564 46.625 163.248 49.0288 135.283 53.792L179.183 214.779Z" fill="white"/>
<path d="M282.684 80.902C281.304 78.013 281.384 81.056 281.954 75.743C282.149 74.1615 281.988 72.5562 281.482 71.0452C280.976 69.5341 280.138 68.1557 279.029 67.011C278.466 66.3584 277.783 65.82 277.017 65.425C275.851 64.772 274.738 65.033 274.091 63.837C273.634 62.991 274.116 61.628 273.177 60.859C272.969 60.959 272.77 61.05 272.577 61.147L268.791 46.921L268.243 46.797C267.704 46.752 267.163 46.711 266.627 46.627L270.9 62.688C270.856 62.8031 270.823 62.9219 270.8 63.043C270.561 64.295 271.533 64.824 271.714 66.019C269.376 68.489 269.307 75.776 271.166 78.919C270.266 78.605 270.308 79.312 270.066 79.713C267.766 80.65 265.228 80.528 262.386 80.903C260.943 81.094 259.576 81.776 258.18 82.093C256.193 82.548 254 83.04 252.145 83.483C248.706 84.303 244.869 82.726 241.173 84.083C240.181 83.0319 238.942 82.2453 237.568 81.7947C236.195 81.3442 234.731 81.2439 233.309 81.503C232.494 81.615 231.562 82.191 230.75 82.297C227.938 82.658 223.621 82.316 222.895 80.94C222.973 79.8624 223.135 78.7925 223.379 77.74C224.979 77.233 224.847 74.818 225.167 72.9C225.289 72 224.508 73.206 224.679 72.364C224.688 70.343 225.179 68.585 224.843 66.985C224.596 66.2053 224.211 65.4766 223.705 64.834C223.414 64.541 222.727 64.452 222.24 64.116C221.646 63.707 221.293 63.182 220.94 63.04C219.685 62.6199 218.35 62.4973 217.04 62.682C216.364 62.9918 215.712 63.3515 215.09 63.758C214.361 64.0674 213.655 64.4269 212.977 64.834C212.477 65.334 212.414 66.341 211.839 66.627C212.022 67.997 211.496 69.168 211.514 70.39C211.526 71.107 211.856 71.833 211.839 72.541C211.831 72.941 211.584 72.73 211.514 72.899C210.937 74.287 212.039 75.999 211.839 76.843C212.024 77.417 212.987 77.13 213.139 77.743C213.339 78.717 213.428 79.82 213.603 80.825C211.639 81.7054 209.486 82.0775 207.341 81.907C206.327 81.754 205.508 81.03 204.599 80.915C202.695 80.7972 200.796 81.2091 199.112 82.105C198.312 82.532 197.756 83.425 196.912 83.693C195.163 84.251 193.647 83.605 191.612 83.493C190.461 83.432 189.371 83.57 188.502 83.493C186.245 83.293 185.191 81.866 183.382 81.707C182.705 81.6796 182.028 81.7469 181.37 81.907C179.607 80.886 177.213 81.018 174.97 80.915C173.549 80.85 172.048 81.279 170.948 80.515C170.896 79.315 171.574 78.415 171.68 77.142C172.067 74.9405 171.702 72.6726 170.643 70.704C169.88 69.5058 168.918 68.4466 167.799 67.572C168.248 67.0736 168.575 66.4775 168.754 65.831C168.879 65.173 168.454 64.569 168.571 63.848C168.299 63.792 168.041 63.715 167.787 63.639L170.787 47.286C170.155 47.429 169.518 47.558 168.882 47.686L166.005 63.244L166.038 63.252C165.786 63.2316 165.532 63.2316 165.28 63.252C164.805 63.927 165.771 66.703 164.996 66.824C161.096 67.441 158.344 69.287 157.234 72.381C156.383 75.4525 156.511 78.7129 157.601 81.708C157.87 82.251 157.289 82.245 157.234 83.097C157.153 84.376 156.951 85.654 160.342 88.257C161.082 88.825 161.556 88.529 162.172 88.657C162.563 88.3547 162.931 88.0231 163.272 87.665C163.631 87.206 163.704 86.592 164.188 86.275C166.173 86.775 168.806 85.875 171.135 86.075C173.42 86.275 174.902 87.927 176.987 88.852C178.64 89.586 180.478 89.339 182.474 89.646C184.017 89.884 185.745 90.229 187.593 90.44C191.486 90.886 194.009 91.388 197.836 92.028C199.743 92.346 201.936 92.423 202.772 93.02C204.941 94.561 204.201 99.006 204.784 102.545C205.478 106.754 207.572 112.82 207.893 118.42C208.127 122.513 208.628 127.438 206.978 129.335C207.7 131.513 206.225 133.028 207.16 135.288C206.021 137.797 206.74 141.811 206.978 145.41C207.513 153.522 209.571 159.371 210.636 166.841C211.729 174.49 212.289 182.198 213.928 188.67C214.506 190.955 215.496 193.189 215.758 195.218C215.983 196.984 215.503 199.582 215.758 202.162C215.958 204.184 216.786 207.524 218.5 207.521C220.527 207.521 220.549 204.312 221.427 202.758C221.812 204.858 221.215 207.631 223.073 207.918C225.008 208.218 226.373 204.573 226.729 202.957C227.47 199.599 226.529 195.863 226.913 192.438C227.07 191.038 227.53 189.418 227.826 187.875C228.126 186.304 228.471 184.731 228.742 183.114C229.264 179.973 230.19 176.638 230.204 173.192C230.129 166.62 230.557 160.052 231.484 153.546C232.184 149.067 233.001 144.677 232.764 140.846C232.712 138.523 232.529 136.204 232.216 133.901C232.144 133.508 231.8 133.056 231.668 132.511C231.499 131.811 231.668 131.06 231.302 130.527C232.355 128.55 230.345 127.153 230.202 125.368C230.096 124.039 230.761 121.994 230.569 120.208C230.497 119.544 230.215 118.964 230.202 118.421C230.074 113.454 232.432 107.55 233.128 102.943C233.417 101.03 233.361 98.82 233.86 97.386C234.632 95.9086 235.551 94.5122 236.602 93.218C237.468 92.71 239.723 92.557 241.175 92.426C243.581 92.206 245.826 92.307 247.941 92.026C249.922 91.619 251.876 91.0886 253.792 90.438C254.504 90.261 255.262 90.429 255.987 90.238C256.618 90.071 257.201 89.598 257.816 89.444C259.753 89.1003 261.652 88.5685 263.486 87.856C265.221 87.056 267.071 85.925 268.605 85.673C269.093 85.594 269.505 85.901 270.068 85.873C271.59 85.797 273.245 84.86 274.64 84.881C276.354 84.905 277.699 86.796 279.214 86.468C280.127 86.268 283.67 82.968 282.686 80.911M168.756 79.313C166.851 79.93 164.407 78.244 162.904 79.713C162.224 79.684 161.504 78.985 160.711 78.919C159.985 78.86 159.254 79.619 159.065 79.119C158.597 77.7094 158.534 76.197 158.881 74.753C159.364 71.953 161.071 69.534 164.063 69.417C164.725 69.3406 165.397 69.4032 166.034 69.6007C166.671 69.7982 167.26 70.1263 167.763 70.564C169.706 72.077 170.018 76.249 168.758 79.318M221.424 197.983C220.301 194.662 220.649 190.2 221.059 186.075C221.467 189.911 222.023 194.117 221.424 197.983ZM279.576 76.735C278.303 77.4739 276.954 78.0728 275.553 78.521C274.943 78.642 274.319 77.967 273.907 78.721C272.749 77.672 272.107 74.891 272.078 72.569C272.048 69.914 272.611 67.249 275.004 67.409C277.777 67.594 280.572 72.149 279.576 76.735Z" fill="white"/>
<path d="M357.081 155.463L359.504 157.729L359.773 154.459L362.608 152.893L359.591 151.551L358.92 148.317L356.789 150.756L353.537 150.323L355.237 153.174L353.899 156.141L357.081 155.463Z" fill="white"/>
<path d="M352.642 171.1L355.06 173.373L355.336 170.105L358.176 168.547L355.163 167.195L354.501 163.958L352.364 166.393L349.113 165.95L350.805 168.805L349.459 171.769L352.642 171.1Z" fill="white"/>
<path d="M348.203 186.739L350.614 189.02L350.9 185.752L353.743 184.202L350.734 182.842L350.079 179.603L347.935 182.031L344.686 181.58L346.37 184.439L345.017 187.4L348.203 186.739Z" fill="white"/>
<path d="M343.762 202.377L346.168 204.664L346.46 201.397L349.308 199.855L346.302 198.487L345.656 195.245L343.506 197.668L340.258 197.206L341.935 200.072L340.576 203.027L343.762 202.377Z" fill="white"/>
<path d="M339.323 218.015L341.723 220.31L342.023 217.042L344.876 215.509L341.876 214.132L341.237 210.89L339.081 213.306L335.834 212.836L337.503 215.706L336.136 218.659L339.323 218.015Z" fill="white"/>
<path d="M334.889 233.654L337.283 235.954L337.594 232.687L340.449 231.163L337.449 229.776L336.82 226.533L334.658 228.942L331.414 228.462L333.076 231.337L331.7 234.285L334.889 233.654Z" fill="white"/>
<path d="M343.141 150.851L345.565 153.117L345.834 149.847L348.669 148.281L345.652 146.939L344.981 143.705L342.85 146.144L339.598 145.711L341.298 148.562L339.96 151.529L343.141 150.851Z" fill="white"/>
<path d="M338.99 166.691L341.408 168.964L341.684 165.696L344.524 164.138L341.511 162.786L340.85 159.549L338.712 161.984L335.461 161.542L337.153 164.398L335.808 167.36L338.99 166.691Z" fill="white"/>
<path d="M334.84 182.531L337.252 184.812L337.538 181.544L340.381 179.994L337.372 178.634L336.717 175.395L334.573 177.823L331.324 177.372L333.008 180.231L331.655 183.192L334.84 182.531Z" fill="white"/>
<path d="M330.689 198.372L333.095 200.659L333.388 197.392L336.235 195.85L333.229 194.482L332.583 191.24L330.433 193.663L327.186 193.201L328.862 196.067L327.503 199.022L330.689 198.372Z" fill="white"/>
<path d="M326.537 214.213L328.937 216.508L329.237 213.24L332.09 211.707L329.09 210.33L328.451 207.088L326.295 209.504L323.049 209.034L324.718 211.904L323.351 214.857L326.537 214.213Z" fill="white"/>
<path d="M322.387 230.053L324.781 232.353L325.092 229.086L327.947 227.562L324.947 226.174L324.316 222.931L322.154 225.34L318.91 224.861L320.572 227.735L319.196 230.683L322.387 230.053Z" fill="white"/>
<path d="M328.898 147.044L331.321 149.31L331.59 146.042L334.425 144.474L331.408 143.132L330.737 139.898L328.606 142.338L325.355 141.905L327.055 144.756L325.717 147.723L328.898 147.044Z" fill="white"/>
<path d="M325.216 162.987L327.634 165.26L327.91 161.992L330.75 160.433L327.736 159.082L327.078 155.845L324.94 158.28L321.689 157.837L323.381 160.694L322.036 163.656L325.216 162.987Z" fill="white"/>
<path d="M321.533 178.928L323.944 181.209L324.23 177.941L327.073 176.391L324.064 175.032L323.409 171.793L321.265 174.221L318.016 173.77L319.7 176.629L318.347 179.59L321.533 178.928Z" fill="white"/>
<path d="M317.851 194.87L320.257 197.157L320.549 193.89L323.397 192.348L320.391 190.98L319.746 187.741L317.596 190.165L314.348 189.702L316.025 192.568L314.666 195.523L317.851 194.87Z" fill="white"/>
<path d="M314.171 210.808L316.571 213.108L316.871 209.84L319.724 208.307L316.724 206.93L316.085 203.688L313.929 206.104L310.682 205.634L312.351 208.504L310.984 211.457L314.171 210.808Z" fill="white"/>
<path d="M310.487 226.753L312.881 229.053L313.192 225.786L316.047 224.262L313.047 222.875L312.416 219.632L310.254 222.041L307.01 221.561L308.672 224.436L307.296 227.384L310.487 226.753Z" fill="white"/>
<path d="M313.855 142.465L316.28 144.731L316.548 141.463L319.384 139.895L316.367 138.553L315.695 135.319L313.565 137.759L310.312 137.326L312.013 140.177L310.674 143.144L313.855 142.465Z" fill="white"/>
<path d="M310.699 158.735L313.117 161.008L313.393 157.74L316.233 156.181L313.22 154.83L312.558 151.593L310.421 154.028L307.17 153.586L308.862 156.442L307.516 159.404L310.699 158.735Z" fill="white"/>
<path d="M307.544 175.006L309.955 177.287L310.241 174.019L313.084 172.469L310.075 171.109L309.42 167.87L307.276 170.298L304.027 169.847L305.711 172.706L304.358 175.667L307.544 175.006Z" fill="white"/>
<path d="M304.388 191.278L306.794 193.565L307.086 190.298L309.935 188.756L306.929 187.388L306.283 184.146L304.133 186.569L300.885 186.107L302.561 188.973L301.2 191.928L304.388 191.278Z" fill="white"/>
<path d="M301.233 207.547L303.633 209.842L303.933 206.574L306.786 205.041L303.786 203.664L303.147 200.422L300.991 202.838L297.744 202.368L299.413 205.238L298.046 208.191L301.233 207.547Z" fill="white"/>
<path d="M298.079 223.817L300.473 226.117L300.784 222.85L303.639 221.326L300.639 219.938L300.008 216.694L297.846 219.103L294.602 218.623L296.264 221.499L294.888 224.447L298.079 223.817Z" fill="white"/>
<path d="M82.4508 155.463L80.0278 157.729L79.7618 154.456L76.9258 152.89L79.9428 151.548L80.6138 148.314L82.7418 150.756L85.9938 150.323L84.2938 153.174L85.6318 156.141L82.4508 155.463Z" fill="white"/>
<path d="M86.8875 171.1L84.4695 173.373L84.1935 170.105L81.3535 168.547L84.3675 167.195L85.0285 163.958L87.1655 166.393L90.4165 165.95L88.7245 168.805L90.0695 171.769L86.8875 171.1Z" fill="white"/>
<path d="M91.3291 186.739L88.9181 189.02L88.6321 185.752L85.7891 184.202L88.7981 182.842L89.4531 179.603L91.5971 182.031L94.8461 181.58L93.1621 184.439L94.5151 187.4L91.3291 186.739Z" fill="white"/>
<path d="M95.7687 202.377L93.3627 204.664L93.0707 201.397L90.2227 199.855L93.2287 198.487L93.8747 195.245L96.0247 197.668L99.2727 197.206L97.5957 200.072L98.9557 203.027L95.7687 202.377Z" fill="white"/>
<path d="M100.209 218.015L97.8092 220.31L97.5092 217.042L94.6562 215.509L97.6562 214.132L98.2952 210.89L100.451 213.306L103.698 212.836L102.029 215.706L103.396 218.659L100.209 218.015Z" fill="white"/>
<path d="M104.647 233.654L102.253 235.954L101.942 232.687L99.084 231.165L102.084 229.778L102.713 226.535L104.875 228.944L108.12 228.464L106.458 231.339L107.834 234.287L104.647 233.654Z" fill="white"/>
<path d="M96.3903 150.851L93.9663 153.118L93.6973 149.848L90.8613 148.282L93.8823 146.938L94.5533 143.704L96.6843 146.143L99.9363 145.71L98.2363 148.561L99.5743 151.528L96.3903 150.851Z" fill="white"/>
<path d="M100.542 166.691L98.1238 168.964L97.8478 165.696L95.0078 164.138L98.0218 162.786L98.6828 159.549L100.82 161.984L104.071 161.542L102.379 164.398L103.724 167.36L100.542 166.691Z" fill="white"/>
<path d="M104.689 182.531L102.277 184.812L101.991 181.544L99.1484 179.994L102.157 178.634L102.812 175.395L104.956 177.823L108.205 177.372L106.521 180.231L107.874 183.192L104.689 182.531Z" fill="white"/>
<path d="M108.843 198.372L106.437 200.659L106.143 197.392L103.293 195.85L106.299 194.482L106.945 191.24L109.095 193.663L112.341 193.201L110.666 196.067L112.026 199.022L108.843 198.372Z" fill="white"/>
<path d="M112.996 214.213L110.596 216.508L110.296 213.24L107.443 211.707L110.443 210.33L111.082 207.088L113.238 209.504L116.485 209.034L114.816 211.904L116.183 214.857L112.996 214.213Z" fill="white"/>
<path d="M117.144 230.053L114.75 232.353L114.439 229.086L111.584 227.562L114.584 226.174L115.215 222.931L117.377 225.34L120.621 224.861L118.959 227.735L120.335 230.683L117.144 230.053Z" fill="white"/>
<path d="M110.635 147.044L108.212 149.31L107.943 146.042L105.107 144.474L108.124 143.132L108.795 139.898L110.926 142.338L114.177 141.905L112.477 144.756L113.815 147.723L110.635 147.044Z" fill="white"/>
<path d="M114.317 162.987L111.899 165.26L111.623 161.992L108.783 160.433L111.797 159.082L112.458 155.845L114.596 158.28L117.847 157.837L116.155 160.694L117.5 163.656L114.317 162.987Z" fill="white"/>
<path d="M117.998 178.928L115.586 181.209L115.3 177.941L112.457 176.391L115.466 175.032L116.121 171.793L118.265 174.221L121.514 173.77L119.83 176.629L121.183 179.59L117.998 178.928Z" fill="white"/>
<path d="M121.68 194.87L119.274 197.157L118.982 193.89L116.133 192.348L119.139 190.98L119.785 187.738L121.935 190.162L125.183 189.699L123.506 192.565L124.865 195.52L121.68 194.87Z" fill="white"/>
<path d="M125.364 210.808L122.964 213.108L122.664 209.84L119.811 208.307L122.811 206.93L123.45 203.688L125.606 206.104L128.853 205.634L127.184 208.504L128.551 211.457L125.364 210.808Z" fill="white"/>
<path d="M129.044 226.753L126.65 229.053L126.339 225.786L123.484 224.262L126.484 222.875L127.115 219.632L129.277 222.041L132.521 221.561L130.859 224.436L132.235 227.384L129.044 226.753Z" fill="white"/>
<path d="M125.676 142.465L123.253 144.731L122.984 141.463L120.148 139.895L123.165 138.553L123.836 135.319L125.967 137.759L129.219 137.326L127.519 140.177L128.857 143.144L125.676 142.465Z" fill="white"/>
<path d="M128.831 158.735L126.413 161.008L126.137 157.74L123.297 156.181L126.311 154.83L126.972 151.593L129.109 154.028L132.36 153.586L130.668 156.442L132.013 159.404L128.831 158.735Z" fill="white"/>
<path d="M131.987 175.006L129.576 177.287L129.29 174.019L126.447 172.469L129.456 171.109L130.111 167.87L132.255 170.298L135.504 169.847L133.82 172.706L135.173 175.667L131.987 175.006Z" fill="white"/>
<path d="M135.142 191.278L132.736 193.565L132.444 190.298L129.596 188.756L132.602 187.388L133.248 184.146L135.398 186.569L138.646 186.107L136.969 188.973L138.33 191.928L135.142 191.278Z" fill="white"/>
<path d="M138.299 207.547L135.899 209.842L135.599 206.574L132.746 205.041L135.746 203.664L136.385 200.422L138.541 202.838L141.788 202.368L140.119 205.238L141.486 208.191L138.299 207.547Z" fill="white"/>
<path d="M141.455 223.817L139.061 226.117L138.75 222.85L135.895 221.326L138.895 219.938L139.526 216.694L141.688 219.103L144.932 218.623L143.27 221.499L144.646 224.447L141.455 223.817Z" fill="white"/>
<path d="M177.594 413.799V406.554H174.971V413.799H172.838V397.841H174.971V404.619H177.594V397.84H179.728V413.799H177.594Z" fill="white"/>
<path d="M184.418 413.799C182.699 413.799 181.84 412.895 181.84 411.088V400.575C181.84 398.752 182.692 397.841 184.395 397.841H186.442C188.146 397.841 188.998 398.752 188.999 400.575V411.088C188.999 412.895 188.139 413.799 186.42 413.799H184.418ZM184.929 411.865H186.018C186.58 411.865 186.863 411.554 186.863 410.932V400.708C186.879 400.58 186.866 400.449 186.823 400.327C186.781 400.204 186.71 400.093 186.618 400.003C186.525 399.913 186.412 399.845 186.289 399.805C186.166 399.766 186.035 399.755 185.907 399.775H184.907C184.78 399.757 184.651 399.769 184.53 399.809C184.408 399.85 184.298 399.918 184.207 400.008C184.117 400.099 184.049 400.209 184.008 400.331C183.968 400.452 183.956 400.581 183.974 400.708V410.932C183.957 411.06 183.971 411.191 184.013 411.314C184.055 411.436 184.126 411.547 184.219 411.637C184.311 411.728 184.424 411.796 184.547 411.835C184.671 411.875 184.801 411.885 184.929 411.865Z" fill="white"/>
<path d="M196.063 405.598C197.234 405.924 197.819 406.531 197.819 407.42V411.42C197.863 411.746 197.83 412.079 197.723 412.39C197.616 412.702 197.438 412.984 197.203 413.215C196.968 413.445 196.683 413.618 196.369 413.72C196.056 413.821 195.723 413.848 195.397 413.798H191.107V397.841H194.752C196.649 397.841 197.597 398.804 197.597 400.73V403.797C197.613 404.223 197.461 404.638 197.175 404.954C196.888 405.27 196.49 405.461 196.064 405.487L196.063 405.598ZM193.24 404.575H194.24C195.056 404.575 195.464 404.19 195.462 403.421V400.931C195.462 400.161 195.144 399.776 194.506 399.776H193.24V404.575ZM193.24 411.866H194.84C195.404 411.866 195.685 411.636 195.685 411.176V407.642C195.685 406.887 195.263 406.509 194.418 406.508H193.24V411.866Z" fill="white"/>
<path d="M202.287 413.799C200.568 413.799 199.709 412.895 199.709 411.088V400.575C199.709 398.752 200.561 397.841 202.264 397.841H204.309C206.013 397.841 206.865 398.752 206.866 400.575V411.088C206.866 412.895 206.006 413.799 204.287 413.799H202.287ZM202.798 411.865H203.887C204.449 411.865 204.732 411.554 204.732 410.932V400.708C204.749 400.58 204.735 400.449 204.692 400.327C204.65 400.204 204.579 400.093 204.487 400.003C204.394 399.913 204.282 399.845 204.158 399.805C204.035 399.766 203.904 399.755 203.776 399.775H202.776C202.649 399.757 202.52 399.769 202.399 399.809C202.277 399.85 202.167 399.918 202.076 400.008C201.986 400.099 201.918 400.209 201.877 400.331C201.837 400.452 201.825 400.581 201.843 400.708V410.932C201.826 411.06 201.84 411.191 201.882 411.314C201.925 411.436 201.995 411.547 202.088 411.637C202.181 411.728 202.293 411.796 202.417 411.835C202.54 411.875 202.671 411.885 202.799 411.865" fill="white"/>
<path d="M215.354 410.065V411.088C215.354 412.895 214.502 413.799 212.798 413.799H211.419C209.715 413.799 208.863 412.895 208.863 411.088V400.554C208.863 398.745 209.715 397.841 211.419 397.841H212.797C214.501 397.841 215.353 398.745 215.353 400.554V402.354H213.219V400.709C213.236 400.581 213.223 400.45 213.18 400.328C213.138 400.205 213.067 400.094 212.975 400.004C212.882 399.913 212.77 399.846 212.646 399.806C212.523 399.767 212.392 399.756 212.264 399.776H211.841C211.279 399.776 210.998 400.087 210.997 400.709V410.933C210.997 411.556 211.279 411.867 211.841 411.866H212.374C212.938 411.866 213.219 411.555 213.219 410.933V410.066L215.354 410.065Z" fill="white"/>
<path d="M221.666 399.841V397.841H223.8V413.799H221.666V405.399L219.376 411.51V413.801H217.242V397.841H219.376V406.441L221.666 399.841Z" fill="white"/>
<path d="M228.155 403.619H229.933C231.638 403.619 232.49 404.523 232.489 406.332V411.067C232.489 412.888 231.63 413.799 229.91 413.8H226.021V397.841H231.911V399.775H228.155V403.619ZM228.155 411.866H229.399C229.528 411.886 229.659 411.876 229.782 411.837C229.906 411.797 230.019 411.729 230.111 411.639C230.204 411.548 230.275 411.437 230.317 411.315C230.36 411.192 230.373 411.062 230.356 410.933V406.488C230.356 405.865 230.073 405.554 229.512 405.554H228.155V411.866Z" fill="white"/>
<path d="M238.824 399.841V397.841H240.958V413.799H238.824V405.399L236.534 411.51V413.801H234.4V397.841H236.534V406.441L238.824 399.841Z" fill="white"/>
<path d="M243.18 397.84H247.07C248.79 397.84 249.649 398.752 249.649 400.575V405.307C249.649 407.116 248.797 408.02 247.093 408.02H245.315V413.798H243.181L243.18 397.84ZM245.314 406.087H246.67C247.232 406.087 247.513 405.776 247.514 405.154V400.709C247.531 400.58 247.517 400.45 247.475 400.327C247.432 400.204 247.362 400.093 247.269 400.003C247.177 399.912 247.064 399.844 246.94 399.804C246.817 399.765 246.686 399.754 246.558 399.774H245.314V406.087Z" fill="white"/>
<path d="M257.937 410.065V411.088C257.937 412.895 257.085 413.799 255.381 413.799H254.003C252.299 413.799 251.447 412.895 251.447 411.088V400.554C251.447 398.745 252.299 397.841 254.003 397.841H255.381C257.085 397.841 257.937 398.745 257.937 400.554V402.354H255.803V400.709C255.82 400.581 255.807 400.45 255.764 400.328C255.722 400.205 255.651 400.094 255.559 400.004C255.466 399.913 255.354 399.846 255.23 399.806C255.107 399.767 254.976 399.756 254.848 399.776H254.425C253.863 399.776 253.582 400.087 253.581 400.709V410.933C253.581 411.556 253.863 411.867 254.425 411.866H254.958C255.522 411.866 255.803 411.555 255.803 410.933V410.066L257.937 410.065Z" fill="white"/>
<path d="M261.96 405.887C262.351 405.43 262.643 404.896 262.816 404.32C262.986 403.752 263.112 403.173 263.195 402.586C263.276 402 263.353 401.433 263.427 400.886C263.491 400.374 263.634 399.876 263.85 399.408C264.055 398.975 264.369 398.603 264.762 398.33C265.284 398.012 265.884 397.842 266.495 397.841V399.796C266.298 399.788 266.104 399.849 265.948 399.969C265.791 400.089 265.682 400.26 265.639 400.453C265.479 400.979 265.363 401.518 265.295 402.064C265.206 402.701 265.084 403.379 264.928 404.098C264.781 404.797 264.465 405.45 264.007 405.998L266.696 413.798H264.562L261.962 406.019V413.798H259.828V397.841H261.962L261.96 405.887Z" fill="white"/>
<path d="M203.835 440.58V443.559H194.9V435.904C194.892 435.555 194.925 435.206 195 434.865C195.071 434.585 195.195 434.32 195.365 434.086C195.645 433.723 195.951 433.382 196.282 433.064L199.642 429.843C199.896 429.588 200.097 429.369 200.248 429.184C200.37 429.042 200.474 428.885 200.56 428.718C200.617 428.592 200.651 428.456 200.66 428.318C200.672 428.179 200.678 427.994 200.678 427.763V423.157C200.708 422.962 200.692 422.763 200.632 422.575C200.572 422.387 200.469 422.216 200.331 422.075C200.193 421.933 200.025 421.826 199.838 421.762C199.652 421.697 199.453 421.677 199.258 421.702H199.055C198.859 421.677 198.66 421.697 198.474 421.762C198.287 421.826 198.119 421.934 197.981 422.075C197.843 422.216 197.74 422.387 197.68 422.575C197.619 422.763 197.604 422.962 197.634 423.157V425.72H194.309V422.949C194.309 420.108 195.637 418.688 198.293 418.689H200.025C202.68 418.689 204.008 420.109 204.009 422.949V428.907C204.017 429.319 203.952 429.729 203.818 430.119C203.583 430.611 203.246 431.048 202.831 431.4L199.155 434.935C198.845 435.194 198.575 435.497 198.355 435.835C198.288 435.988 198.247 436.152 198.234 436.319C198.222 436.481 198.218 436.7 198.218 436.976V440.576L203.835 440.58Z" fill="white"/>
<path d="M211.697 443.559C209.042 443.559 207.714 442.139 207.713 439.299V422.951C207.713 420.11 209.041 418.69 211.697 418.691H214.018C216.673 418.691 218.001 420.111 218 422.951V439.3C218 442.139 216.673 443.559 214.018 443.56L211.697 443.559ZM212.355 421.703C211.478 421.703 211.039 422.188 211.039 423.158V439.09C211.013 439.29 211.033 439.494 211.099 439.685C211.165 439.876 211.275 440.048 211.42 440.19C211.564 440.331 211.739 440.436 211.932 440.498C212.124 440.559 212.328 440.575 212.528 440.544H213.36C214.237 440.544 214.676 440.059 214.675 439.09V423.159C214.701 422.959 214.681 422.755 214.615 422.564C214.549 422.373 214.439 422.2 214.295 422.059C214.151 421.918 213.975 421.812 213.783 421.751C213.591 421.689 213.386 421.673 213.187 421.704L212.355 421.703Z" fill="white"/>
<path d="M230.713 440.58V443.559H221.777V435.904C221.768 435.555 221.802 435.206 221.877 434.865C221.947 434.585 222.071 434.32 222.241 434.086C222.521 433.723 222.828 433.382 223.159 433.064L226.523 429.845C226.778 429.59 226.979 429.371 227.13 429.186C227.252 429.044 227.356 428.887 227.441 428.72C227.497 428.594 227.531 428.458 227.541 428.32C227.553 428.181 227.559 427.996 227.559 427.765V423.159C227.589 422.964 227.573 422.765 227.513 422.577C227.453 422.389 227.35 422.218 227.212 422.077C227.074 421.935 226.906 421.828 226.719 421.764C226.533 421.699 226.334 421.679 226.139 421.704H225.931C225.735 421.679 225.536 421.699 225.35 421.764C225.163 421.828 224.995 421.935 224.857 422.077C224.719 422.218 224.616 422.389 224.556 422.577C224.496 422.765 224.48 422.964 224.511 423.159V425.722H221.186V422.951C221.186 420.11 222.513 418.69 225.168 418.691H226.901C229.556 418.691 230.883 420.111 230.883 422.951V428.909C230.891 429.321 230.826 429.731 230.692 430.121C230.457 430.613 230.121 431.05 229.706 431.402L226.034 434.936C225.723 435.194 225.453 435.497 225.234 435.836C225.166 435.989 225.124 436.153 225.112 436.32C225.101 436.482 225.096 436.701 225.096 436.977V440.577L230.713 440.58Z" fill="white"/>
<path d="M245.226 437.745H243.32V443.564H240.065V437.745H234.245L233.553 434.94L239.994 418.696H243.319V434.935H245.226V437.745ZM240.412 425.311H240.238L237.086 434.94H240.168L240.412 425.311Z" fill="white"/>
<path d="M285.62 394.099L262.42 441.244L294.62 390.744H265.22L285.62 394.099Z" fill="white"/>
<path d="M153.912 394.493L178.181 440.404C167.092 423.983 156.004 407.562 144.916 391.141H174.316L153.909 394.492" fill="white"/>
<path d="M375.865 344.764C374.881 355.337 370.478 365.3 363.323 373.146C359.418 377.481 354.651 380.954 349.328 383.343C344.005 385.731 338.242 386.983 332.407 387.019H107.126C84.571 387.019 66.017 368.519 63.668 344.763L375.865 344.764Z" fill="#E0007A"/>
<path d="M328.84 379.958H110.694C108.122 379.958 105.654 378.936 103.835 377.117C102.016 375.298 100.994 372.831 100.994 370.258V358.532C100.994 357.258 101.245 355.997 101.733 354.82C102.22 353.643 102.934 352.574 103.835 351.673C104.736 350.772 105.805 350.058 106.982 349.57C108.159 349.083 109.42 348.832 110.694 348.832H328.84C331.413 348.832 333.88 349.854 335.699 351.673C337.518 353.492 338.54 355.959 338.54 358.532V370.257C338.54 372.83 337.518 375.297 335.699 377.116C333.88 378.935 331.413 379.957 328.84 379.957" fill="#002581"/>
<path d="M119.806 370.862V372.142C119.806 374.405 118.739 375.536 116.606 375.535H114.882C112.748 375.535 111.682 374.404 111.682 372.142V358.955C111.682 356.692 112.748 355.561 114.882 355.561H116.606C118.739 355.561 119.806 356.692 119.806 358.955V361.209H117.136V359.15C117.157 358.989 117.14 358.825 117.087 358.671C117.033 358.518 116.945 358.378 116.828 358.265C116.712 358.152 116.571 358.067 116.416 358.017C116.261 357.968 116.096 357.956 115.936 357.981H115.406C114.7 357.981 114.348 358.371 114.349 359.15V371.95C114.349 372.73 114.701 373.119 115.406 373.118H116.073C116.777 373.118 117.13 372.729 117.13 371.95V370.866L119.806 370.862Z" fill="white"/>
<path d="M128.12 375.535V357.981H124.838V375.535H122.166V355.561H130.79V375.535H128.12Z" fill="white"/>
<path d="M136.659 375.535C134.508 375.535 133.432 374.404 133.432 372.142V358.984C133.432 356.703 134.498 355.562 136.632 355.561H139.191C141.324 355.561 142.391 356.702 142.391 358.984V372.142C142.391 374.405 141.316 375.536 139.166 375.535H136.659ZM137.299 373.115H138.662C139.366 373.115 139.719 372.726 139.721 371.947V359.147C139.742 358.986 139.725 358.822 139.671 358.668C139.618 358.515 139.529 358.376 139.413 358.263C139.296 358.149 139.155 358.065 139 358.015C138.845 357.966 138.681 357.954 138.521 357.979H137.268C137.109 357.956 136.947 357.971 136.795 358.022C136.643 358.073 136.505 358.158 136.392 358.271C136.279 358.385 136.194 358.523 136.143 358.675C136.092 358.827 136.078 358.988 136.101 359.147V371.947C136.079 372.108 136.096 372.272 136.149 372.426C136.202 372.58 136.291 372.719 136.407 372.832C136.524 372.946 136.665 373.03 136.821 373.079C136.976 373.129 137.14 373.141 137.301 373.115" fill="white"/>
<path d="M145.033 355.561H149.901C152.053 355.561 153.128 356.701 153.128 358.982V364.908C153.128 367.169 152.062 368.3 149.928 368.301H147.702V375.533H145.031L145.033 355.561ZM147.704 365.881H149.404C150.11 365.881 150.462 365.491 150.461 364.712V359.149C150.482 358.988 150.466 358.824 150.412 358.67C150.359 358.517 150.271 358.378 150.154 358.264C150.037 358.151 149.896 358.066 149.741 358.017C149.586 357.968 149.422 357.955 149.261 357.981H147.704V365.881Z" fill="white"/>
<path d="M159.775 357.981V375.535H157.105V357.981H154.543V355.561H162.332V357.981H159.775Z" fill="white"/>
<path d="M169.679 358.065V355.565H172.349V375.534H169.679V365.024L166.814 372.674V375.539H164.146V355.561H166.817V366.324L169.679 358.065Z" fill="white"/>
<path d="M181.333 365.27C182.8 365.678 183.533 366.439 183.533 367.552V372.558C183.533 374.543 182.522 375.536 180.5 375.535H175.131V355.561H179.694C182.065 355.561 183.252 356.767 183.254 359.178V363.018C183.273 363.551 183.083 364.071 182.724 364.466C182.365 364.861 181.866 365.1 181.333 365.132V365.27ZM177.803 363.991H179.05C180.069 363.991 180.579 363.509 180.58 362.544V359.424C180.58 358.461 180.18 357.979 179.38 357.978H177.796L177.803 363.991ZM177.803 373.115H179.803C180.51 373.115 180.863 372.828 180.862 372.253V367.83C180.862 366.884 180.333 366.411 179.276 366.411H177.803V373.115Z" fill="white"/>
<path d="M191.989 375.535V366.466H188.707V375.535H186.035V355.561H188.707V364.046H191.989V355.561H194.659V375.535H191.989Z" fill="white"/>
<path d="M199.973 375.534H197.301V358.984C197.301 356.702 198.367 355.561 200.501 355.561H202.501C204.634 355.561 205.701 356.702 205.701 358.984V375.534H203.031V368.219H199.973V375.534ZM203.033 365.798V359.149C203.055 358.99 203.041 358.828 202.99 358.676C202.939 358.524 202.854 358.386 202.74 358.273C202.627 358.16 202.489 358.074 202.336 358.023C202.184 357.973 202.022 357.958 201.864 357.981H201.14C200.981 357.958 200.819 357.973 200.667 358.024C200.515 358.075 200.377 358.16 200.264 358.274C200.151 358.387 200.065 358.525 200.015 358.677C199.964 358.83 199.95 358.991 199.973 359.15V365.799L203.033 365.798Z" fill="white"/>
<path d="M216.914 375.535H214.243V367.467H212.63L210.878 375.535H208.346L210.211 367.217C209.153 366.75 208.625 365.647 208.625 363.906V358.984C208.625 356.702 209.645 355.561 211.685 355.561H216.915L216.914 375.535ZM214.243 357.981H212.491C211.691 357.981 211.291 358.463 211.291 359.428V363.74C211.291 364.703 211.691 365.186 212.491 365.187H214.243V357.981Z" fill="white"/>
<path d="M226.539 375.535H223.867V355.561H230.488V357.981H226.539V375.535Z" fill="white"/>
<path d="M238.109 358.065V355.565H240.779V375.534H238.109V365.024L235.244 372.674V375.539H232.572V355.561H235.244V366.324L238.109 358.065Z" fill="white"/>
<path d="M248.988 367.3L251.464 355.561H254.412V375.535H251.743L252.021 362.461L250.021 371.918H247.961L245.961 362.461L246.24 375.535H243.561V355.561H246.51L248.988 367.3Z" fill="white"/>
<path d="M263.146 375.535V366.466H259.864V375.535H257.193V355.561H259.864V364.046H263.146V355.561H265.816V375.535H263.146Z" fill="white"/>
<path d="M271.131 375.534H268.459V358.984C268.459 356.702 269.526 355.561 271.659 355.561H273.659C275.792 355.561 276.859 356.702 276.859 358.984V375.534H274.189V368.219H271.129L271.131 375.534ZM274.191 365.798V359.149C274.214 358.99 274.199 358.828 274.148 358.676C274.097 358.524 274.012 358.386 273.898 358.273C273.785 358.16 273.647 358.074 273.495 358.023C273.343 357.973 273.181 357.958 273.022 357.981H272.298C272.139 357.958 271.978 357.973 271.826 358.024C271.674 358.075 271.536 358.16 271.423 358.273C271.309 358.387 271.224 358.525 271.173 358.677C271.123 358.829 271.108 358.99 271.131 359.149V365.798H274.191Z" fill="white"/>
<path d="M287.485 370.862V372.142C287.485 374.405 286.419 375.536 284.285 375.535H282.561C280.428 375.535 279.361 374.404 279.361 372.142V358.955C279.361 356.692 280.428 355.561 282.561 355.561H284.285C286.419 355.561 287.485 356.692 287.485 358.955V361.209H284.815V359.15C284.836 358.989 284.82 358.825 284.766 358.671C284.713 358.518 284.625 358.378 284.508 358.265C284.392 358.152 284.25 358.067 284.095 358.017C283.94 357.968 283.776 357.956 283.615 357.981H283.087C282.382 357.981 282.03 358.371 282.03 359.15V371.95C282.03 372.73 282.383 373.119 283.087 373.118H283.754C284.459 373.118 284.811 372.729 284.811 371.95V370.866L287.485 370.862Z" fill="white"/>
<path d="M294.105 357.981V375.535H291.435V357.981H288.875V355.561H296.664V357.981H294.105Z" fill="white"/>
<path d="M304.01 358.065V355.565H306.681V375.534H304.01V365.024L301.146 372.674V375.539H298.479V355.561H301.151V366.324L304.01 358.065Z" fill="white"/>
<path d="M312.135 365.631C312.624 365.059 312.988 364.391 313.205 363.671C313.417 362.961 313.576 362.235 313.679 361.501C313.779 360.768 313.876 360.058 313.97 359.372C314.049 358.732 314.228 358.108 314.499 357.523C314.755 356.981 315.148 356.516 315.64 356.173C316.294 355.775 317.044 355.563 317.81 355.561V358.01C317.564 357.999 317.322 358.075 317.126 358.225C316.93 358.375 316.793 358.588 316.74 358.829C316.539 359.488 316.394 360.163 316.308 360.846C316.197 361.646 316.043 362.495 315.848 363.392C315.665 364.268 315.268 365.085 314.693 365.77L318.059 375.535H315.388L312.134 365.798V375.535H309.463V355.561H312.135V365.631Z" fill="white"/>
<path d="M322.118 375.534H319.447V358.984C319.447 356.702 320.514 355.561 322.647 355.561H324.647C326.781 355.561 327.847 356.702 327.847 358.984V375.534H325.177V368.219H322.117L322.118 375.534ZM325.178 365.798V359.149C325.201 358.99 325.186 358.828 325.135 358.676C325.085 358.524 324.999 358.386 324.886 358.273C324.772 358.16 324.634 358.074 324.482 358.023C324.33 357.973 324.168 357.958 324.009 357.981H323.285C323.127 357.958 322.965 357.973 322.813 358.023C322.661 358.074 322.522 358.159 322.409 358.273C322.296 358.386 322.21 358.524 322.16 358.676C322.109 358.829 322.095 358.99 322.117 359.149V365.798H325.178Z" fill="white"/>
<path d="M430.518 272.538L390.909 296.383V321.34C390.906 327.828 388.327 334.05 383.738 338.637C379.149 343.224 372.926 345.8 366.438 345.8H70.9826C67.7696 345.801 64.5879 345.169 61.6192 343.94C58.6505 342.712 55.9529 340.91 53.6805 338.639C51.4081 336.367 49.6054 333.671 48.3753 330.703C47.1453 327.734 46.512 324.553 46.5116 321.34V296.577L9.01758 272.538H136.747V263.129C136.746 259.377 137.485 255.662 138.921 252.195C140.357 248.729 142.461 245.579 145.115 242.926C147.768 240.273 150.917 238.168 154.384 236.733C157.85 235.297 161.566 234.558 165.318 234.558H272.729C280.698 234.559 288.341 237.725 293.976 243.36C299.611 248.995 302.777 256.638 302.778 264.607V272.537L430.518 272.538Z" fill="#002581"/>
<path d="M430.518 272.538L390.909 296.383V321.34C390.906 327.828 388.327 334.05 383.738 338.637C379.149 343.224 372.926 345.8 366.438 345.8H70.9826C67.7696 345.801 64.5879 345.169 61.6192 343.94C58.6505 342.712 55.9529 340.91 53.6805 338.639C51.4081 336.367 49.6054 333.671 48.3753 330.703C47.1453 327.734 46.512 324.553 46.5116 321.34V296.577L9.01758 272.538H136.747V263.129C136.746 259.377 137.485 255.662 138.921 252.195C140.357 248.729 142.461 245.579 145.115 242.926C147.768 240.273 150.917 238.168 154.384 236.733C157.85 235.297 161.566 234.558 165.318 234.558H272.729C280.698 234.559 288.341 237.725 293.976 243.36C299.611 248.995 302.777 256.638 302.778 264.607V272.537L430.518 272.538Z" stroke="#DD007A" stroke-width="4.586" stroke-miterlimit="10"/>
</g>
<mask id="mask2_2_15103" style="mask-type:luminance" maskUnits="userSpaceOnUse" x="54" y="284" width="39" height="51">
<path d="M81.4701 284.73L76.3781 301.692V284.73H54.4531L66.9261 291.15V334.15H76.3781V316.409L82.9491 334.147H92.5841L82.9601 309.266L90.4701 284.73H81.4701Z" fill="white"/>
</mask>
<g mask="url(#mask2_2_15103)">
<path d="M92.5841 284.73H54.4531V334.147H92.5841V284.73Z" fill="url(#paint0_linear_2_15103)"/>
</g>
<mask id="mask3_2_15103" style="mask-type:luminance" maskUnits="userSpaceOnUse" x="93" y="284" width="25" height="51">
<path d="M107.904 284.729V305.075C107.784 306.398 107.184 306.509 106.473 306.509H103.737C103.456 305.937 103.345 305.297 103.418 304.664V284.729H93.959V304.467C93.959 312.894 98.378 314.66 102.086 314.66H107.904V324.483C107.904 325.891 107.339 326.002 106.546 326.002H104.846C104.046 326.002 103.488 325.891 103.488 324.483V320.705H94.033V324.94C94.033 330.962 97.308 334.148 103.497 334.148H107.891C114.068 334.148 117.415 330.975 117.575 324.94V284.729H107.904Z" fill="white"/>
</mask>
<g mask="url(#mask3_2_15103)">
<path d="M117.574 284.729H93.959V334.151H117.574V284.729Z" fill="url(#paint1_linear_2_15103)"/>
</g>
<mask id="mask4_2_15103" style="mask-type:luminance" maskUnits="userSpaceOnUse" x="121" y="284" width="24" height="51">
<path d="M130.733 309.886H133.722C134.514 309.886 135.079 309.997 135.079 311.405V324.482C135.079 325.632 134.666 326.001 133.369 326.001H130.733V309.886ZM121.275 284.729V334.151H134.993C141.237 334.151 144.538 330.951 144.538 324.875V310.94C144.538 304.918 141.263 301.732 135.067 301.732H130.734V292.875H144.108V284.726L121.275 284.729Z" fill="white"/>
</mask>
<g mask="url(#mask4_2_15103)">
<path d="M144.538 284.729H121.275V334.151H144.538V284.729Z" fill="url(#paint2_linear_2_15103)"/>
</g>
<mask id="mask5_2_15103" style="mask-type:luminance" maskUnits="userSpaceOnUse" x="147" y="284" width="27" height="51">
<path d="M157.351 324.483V294.398C157.351 293.248 157.744 292.879 158.989 292.879H162.176C163.468 292.879 163.886 293.248 163.886 294.398V324.483C163.886 325.891 163.322 326.002 162.529 326.002H159.057C157.757 326.002 157.347 325.633 157.347 324.483M157.36 284.729C151.16 284.729 147.889 287.929 147.889 294.005V324.94C147.889 330.962 151.189 334.148 157.427 334.148H163.796C170.04 334.148 173.341 330.962 173.341 324.94V294.005C173.341 287.934 170.066 284.729 163.871 284.729H157.36Z" fill="white"/>
</mask>
<g mask="url(#mask5_2_15103)">
<path d="M173.345 284.729H147.893V334.151H173.345V284.729Z" fill="url(#paint3_linear_2_15103)"/>
</g>
<mask id="mask6_2_15103" style="mask-type:luminance" maskUnits="userSpaceOnUse" x="176" y="284" width="27" height="51">
<path d="M191.242 284.729L186.151 301.705V284.729H176.699V334.151H186.151V316.406L192.72 334.151H202.351L192.734 309.264L200.24 284.728L191.242 284.729Z" fill="white"/>
</mask>
<g mask="url(#mask6_2_15103)">
<path d="M202.352 284.729H176.701V334.151H202.352V284.729Z" fill="url(#paint4_linear_2_15103)"/>
</g>
<mask id="mask7_2_15103" style="mask-type:luminance" maskUnits="userSpaceOnUse" x="216" y="284" width="24" height="51">
<path d="M225.575 292.878H228.211C229.511 292.878 229.921 293.247 229.921 294.397V307.481C229.921 308.889 229.362 308.994 228.564 308.994H225.575V292.878ZM216.123 284.729V334.151H225.575V317.14H229.908C236.108 317.14 239.379 313.959 239.379 307.932V294.005C239.379 287.934 236.079 284.729 229.834 284.729H216.123Z" fill="white"/>
</mask>
<g mask="url(#mask7_2_15103)">
<path d="M239.379 284.729H216.123V334.151H239.379V284.729Z" fill="url(#paint5_linear_2_15103)"/>
</g>
<mask id="mask8_2_15103" style="mask-type:luminance" maskUnits="userSpaceOnUse" x="242" y="284" width="27" height="51">
<path d="M252.191 324.483V294.398C252.191 293.248 252.591 292.879 253.828 292.879H257.017C258.307 292.879 258.727 293.248 258.727 294.398V324.483C258.727 325.891 258.161 326.002 257.37 326.002H253.898C252.598 326.002 252.187 325.633 252.187 324.483M252.2 284.729C246 284.729 242.729 287.929 242.729 294.005V324.94C242.729 330.962 246.029 334.148 252.268 334.148H258.637C264.88 334.148 268.182 330.962 268.182 324.94V294.005C268.182 287.934 264.907 284.729 258.71 284.729H252.2Z" fill="white"/>
</mask>
<g mask="url(#mask8_2_15103)">
<path d="M268.185 284.729H242.732V334.151H268.185V284.729Z" fill="url(#paint6_linear_2_15103)"/>
</g>
<mask id="mask9_2_15103" style="mask-type:luminance" maskUnits="userSpaceOnUse" x="271" y="284" width="24" height="51">
<path d="M280.659 284.729C274.459 284.729 271.188 287.915 271.188 293.937V324.94C271.188 330.962 274.463 334.148 280.659 334.148H285.046C291.246 334.148 294.516 330.962 294.516 324.94V320.702H285.057V324.48C285.057 325.888 284.493 325.999 283.701 325.999H282C281.2 325.999 280.635 325.888 280.635 324.48V294.398C280.635 292.989 281.201 292.879 282 292.879H283.344C284.636 292.879 285.055 293.248 285.055 294.398V300.469H294.512V293.94C294.512 287.918 291.237 284.732 285.042 284.732L280.659 284.729Z" fill="white"/>
</mask>
<g mask="url(#mask9_2_15103)">
<path d="M294.515 284.729H271.188V334.151H294.515V284.729Z" fill="url(#paint7_linear_2_15103)"/>
</g>
<mask id="mask10_2_15103" style="mask-type:luminance" maskUnits="userSpaceOnUse" x="296" y="284" width="24" height="51">
<path d="M305.925 284.729C299.725 284.729 296.455 287.915 296.455 293.937V324.94C296.455 330.962 299.73 334.148 305.925 334.148H310.312C316.512 334.148 319.783 330.962 319.783 324.94V320.702H310.325V324.48C310.325 325.888 309.759 325.999 308.968 325.999H307.268C306.468 325.999 305.911 325.888 305.911 324.48V294.398C305.911 292.989 306.469 292.879 307.268 292.879H308.611C309.904 292.879 310.322 293.248 310.322 294.398V300.469H319.78V293.94C319.78 287.918 316.507 284.732 310.309 284.732L305.925 284.729Z" fill="white"/>
</mask>
<g mask="url(#mask10_2_15103)">
<path d="M319.783 284.729H296.455V334.151H319.783V284.729Z" fill="url(#paint8_linear_2_15103)"/>
</g>
<mask id="mask11_2_15103" style="mask-type:luminance" maskUnits="userSpaceOnUse" x="322" y="284" width="24" height="51">
<path d="M336.495 284.729L331.531 300.186V284.729H322.072V334.151H331.531V323.757L336.155 310.182V334.151H345.613V284.729H336.495Z" fill="white"/>
</mask>
<g mask="url(#mask11_2_15103)">
<path d="M345.612 284.729H322.07V334.151H345.612V284.729Z" fill="url(#paint9_linear_2_15103)"/>
</g>
<mask id="mask12_2_15103" style="mask-type:luminance" maskUnits="userSpaceOnUse" x="349" y="284" width="37" height="51">
<path d="M363.752 284.73L358.778 300.181V284.73H349.326V334.147H358.778V323.756L363.407 310.183V334.147H372.87V291.01L385.07 284.73H363.752Z" fill="white"/>
</mask>
<g mask="url(#mask12_2_15103)">
<path d="M385.072 284.73H349.326V334.147H385.072V284.73Z" fill="url(#paint10_linear_2_15103)"/>
</g>
<mask id="mask13_2_15103" style="mask-type:luminance" maskUnits="userSpaceOnUse" x="0" y="0" width="440" height="480">
<path d="M439.424 0H0.574219V480H439.424V0Z" fill="white"/>
</mask>
<g mask="url(#mask13_2_15103)">
<path d="M162.584 269.626C162.375 269.738 162.137 269.783 161.901 269.754H157.389C156.901 269.754 156.706 269.541 156.807 269.117L160.452 253.543C160.637 252.763 160.921 252.01 161.296 251.302C161.675 250.575 162.178 249.919 162.782 249.364C163.427 248.779 164.177 248.321 164.991 248.013C165.943 247.658 166.953 247.485 167.968 247.503H177.633C177.887 247.503 178.042 247.542 178.099 247.616C178.156 247.69 178.141 247.905 178.057 248.266L177.218 251.858C177.187 252.065 177.097 252.258 176.959 252.415C176.812 252.523 176.631 252.573 176.449 252.557H168.6C168.239 252.546 167.88 252.606 167.542 252.733C167.291 252.828 167.062 252.973 166.87 253.16C166.705 253.325 166.573 253.519 166.479 253.733C166.39 253.938 166.319 254.151 166.267 254.368L165.807 256.338H174.166C174.42 256.338 174.574 256.382 174.629 256.464C174.684 256.546 174.668 256.774 174.583 257.132L173.808 260.439C173.696 260.926 173.438 261.171 173.036 261.171H164.676L162.812 269.115C162.784 269.303 162.704 269.479 162.581 269.623" fill="white"/>
<path d="M197.138 258.598C196.762 260.259 196.192 261.87 195.438 263.398C194.775 264.75 193.881 265.976 192.796 267.02C191.731 268.026 190.472 268.805 189.096 269.309C187.548 269.862 185.913 270.133 184.269 270.109C182.802 270.156 181.341 269.891 179.984 269.331C178.912 268.869 178.013 268.08 177.416 267.076C176.808 265.969 176.481 264.729 176.464 263.466C176.425 261.849 176.604 260.234 176.998 258.666C177.373 257.016 177.965 255.424 178.76 253.931C179.477 252.577 180.408 251.348 181.517 250.291C182.582 249.289 183.83 248.501 185.192 247.97C186.642 247.418 188.183 247.144 189.734 247.162C191.202 247.113 192.662 247.389 194.01 247.97C195.09 248.46 195.998 249.261 196.62 250.27C197.252 251.37 197.6 252.61 197.633 253.878C197.687 255.467 197.519 257.056 197.133 258.599M190.798 258.63C190.965 257.849 191.081 257.058 191.145 256.262C191.213 255.608 191.169 254.947 191.015 254.307C190.888 253.788 190.595 253.326 190.179 252.99C189.677 252.633 189.068 252.459 188.452 252.496C187.842 252.495 187.243 252.66 186.719 252.973C186.161 253.308 185.671 253.745 185.274 254.261C184.827 254.842 184.455 255.477 184.166 256.151C183.845 256.878 183.593 257.634 183.414 258.409C183.204 259.275 183.062 260.157 182.987 261.045C182.92 261.713 182.979 262.387 183.16 263.033C183.304 263.539 183.614 263.982 184.04 264.289C184.549 264.612 185.146 264.768 185.748 264.736C186.403 264.746 187.048 264.573 187.61 264.236C188.17 263.893 188.655 263.439 189.033 262.902C189.464 262.298 189.815 261.641 190.078 260.948C190.373 260.192 190.613 259.416 190.797 258.626" fill="white"/>
<path d="M238.25 257.615C238.745 257.838 239.183 258.169 239.533 258.584C239.85 258.969 240.092 259.41 240.246 259.884C240.399 260.367 240.474 260.871 240.466 261.377C240.463 261.896 240.401 262.413 240.281 262.918C240.051 263.917 239.63 264.862 239.042 265.702C238.454 266.539 237.729 267.27 236.897 267.864C236.047 268.474 235.106 268.947 234.109 269.264C233.08 269.594 232.006 269.76 230.925 269.757H222.661C221.792 269.757 221.269 269.594 221.091 269.264C220.909 268.747 220.907 268.183 221.086 267.664L225.313 249.608C225.419 249.027 225.678 248.484 226.063 248.036C226.315 247.834 226.604 247.683 226.914 247.593C227.224 247.502 227.548 247.474 227.869 247.509H236.134C237.009 247.5 237.882 247.607 238.729 247.827C239.443 248.005 240.103 248.354 240.652 248.843C241.165 249.321 241.531 249.936 241.704 250.615C241.893 251.476 241.869 252.371 241.633 253.221C241.412 254.104 240.991 254.925 240.403 255.621C239.829 256.354 239.115 256.966 238.303 257.421L238.25 257.615ZM229.892 255.708H233.204C233.638 255.704 234.065 255.595 234.448 255.39C234.668 255.257 234.857 255.077 234.999 254.862C235.142 254.648 235.235 254.405 235.273 254.15C235.338 253.965 235.357 253.767 235.328 253.573C235.299 253.379 235.223 253.196 235.106 253.038C234.967 252.901 234.8 252.797 234.616 252.731C234.433 252.665 234.237 252.64 234.043 252.657H230.604L229.892 255.708ZM234.179 262.508C234.258 262.257 234.281 261.992 234.247 261.731C234.212 261.47 234.121 261.22 233.979 260.998C233.803 260.787 233.578 260.623 233.323 260.52C233.068 260.418 232.792 260.379 232.519 260.409H228.79L227.817 264.573H231.547C231.919 264.582 232.29 264.518 232.637 264.384C232.927 264.264 233.192 264.092 233.419 263.876C233.62 263.681 233.789 263.455 233.919 263.207C234.031 262.984 234.117 262.749 234.175 262.507" fill="white"/>
<path d="M257.225 269.755H247.403C246.384 269.804 245.367 269.619 244.431 269.214C243.783 268.912 243.244 268.418 242.887 267.799C242.562 267.199 242.396 266.525 242.405 265.843C242.404 265.126 242.486 264.411 242.651 263.713L245.031 253.544C245.216 252.764 245.5 252.011 245.875 251.302C246.255 250.575 246.758 249.92 247.362 249.365C248.008 248.78 248.759 248.322 249.575 248.015C250.527 247.66 251.537 247.488 252.553 247.507H261.929C262.185 247.507 262.339 247.545 262.395 247.62C262.451 247.695 262.437 247.91 262.355 248.268L261.518 251.868C261.485 252.074 261.394 252.267 261.256 252.423C261.109 252.531 260.929 252.581 260.748 252.565H253.175C252.814 252.554 252.455 252.614 252.118 252.741C251.866 252.835 251.637 252.982 251.445 253.17C251.279 253.334 251.147 253.528 251.054 253.741C250.965 253.947 250.895 254.159 250.843 254.377L250.529 255.712H259.05C259.305 255.712 259.458 255.756 259.513 255.838C259.563 256.061 259.546 256.294 259.465 256.508L258.692 259.808C258.578 260.295 258.319 260.538 257.916 260.537H249.399L248.842 262.921C248.753 263.231 248.725 263.555 248.761 263.876C248.784 264.078 248.882 264.265 249.035 264.399C249.195 264.521 249.385 264.599 249.586 264.622C249.835 264.654 250.086 264.669 250.338 264.667H258.413C258.666 264.667 258.821 264.706 258.879 264.78C258.937 264.854 258.923 265.071 258.839 265.43L257.997 269.024C257.883 269.511 257.622 269.753 257.221 269.753" fill="white"/>
<path d="M281.016 252.559H275.581L271.712 269.087C271.681 269.279 271.601 269.46 271.48 269.612C271.272 269.735 271.03 269.785 270.792 269.756H266.279C265.792 269.756 265.601 269.533 265.707 269.087L269.575 252.559H264.265C263.819 252.559 263.652 252.316 263.765 251.83L264.596 248.27C264.622 248.026 264.727 247.797 264.896 247.618C265.065 247.531 265.255 247.492 265.445 247.506H282.198C282.372 247.484 282.549 247.524 282.698 247.618C282.776 247.693 282.772 247.908 282.688 248.27L281.856 251.83C281.834 252.035 281.736 252.224 281.58 252.36C281.425 252.495 281.224 252.566 281.018 252.559" fill="white"/>
<path d="M206.092 257.709L203.377 269.088C203.347 269.281 203.267 269.463 203.144 269.614C202.937 269.736 202.696 269.786 202.458 269.756H197.946C197.457 269.756 197.266 269.535 197.373 269.088L201.925 250.019C202.036 249.268 202.376 248.57 202.898 248.019C203.469 247.633 204.155 247.454 204.843 247.511H206.496C206.768 247.508 207.041 247.524 207.312 247.558C207.521 247.586 207.724 247.651 207.912 247.75C208.103 247.856 208.269 248.002 208.399 248.178C208.573 248.418 208.724 248.673 208.852 248.941L211.774 255.741L213.328 259.618H213.551L216.281 248.177C216.312 247.985 216.394 247.804 216.517 247.652C216.722 247.53 216.963 247.48 217.201 247.51H221.715C222.202 247.51 222.394 247.733 222.286 248.178L217.735 267.247C217.593 267.909 217.294 268.526 216.862 269.047C216.594 269.309 216.271 269.508 215.918 269.632C215.564 269.755 215.188 269.8 214.816 269.762H213.164C212.896 269.765 212.629 269.749 212.364 269.715C212.147 269.69 211.937 269.626 211.743 269.526C211.549 269.417 211.379 269.271 211.243 269.095C211.062 268.862 210.915 268.605 210.804 268.332L207.917 261.659L206.317 257.718L206.092 257.709Z" fill="white"/>
</g>
</g>
<defs>
<linearGradient id="paint0_linear_2_15103" x1="0.574022" y1="479.977" x2="1.64169" y2="479.977" gradientUnits="userSpaceOnUse">
<stop stop-color="#65676A"/>
<stop offset="0.184" stop-color="#65676A"/>
<stop offset="0.196" stop-color="#6B6D70"/>
<stop offset="0.278" stop-color="#929395"/>
<stop offset="0.365" stop-color="#B4B5B6"/>
<stop offset="0.458" stop-color="#CFD0D0"/>
<stop offset="0.558" stop-color="#E4E4E5"/>
<stop offset="0.669" stop-color="#F3F3F3"/>
<stop offset="0.8" stop-color="#FCFCFC"/>
<stop offset="1" stop-color="white"/>
</linearGradient>
<linearGradient id="paint1_linear_2_15103" x1="0.58527" y1="479.995" x2="1.64794" y2="479.995" gradientUnits="userSpaceOnUse">
<stop stop-color="#65676A"/>
<stop offset="0.184" stop-color="#65676A"/>
<stop offset="0.196" stop-color="#6B6D70"/>
<stop offset="0.278" stop-color="#929395"/>
<stop offset="0.365" stop-color="#B4B5B6"/>
<stop offset="0.458" stop-color="#CFD0D0"/>
<stop offset="0.558" stop-color="#E4E4E5"/>
<stop offset="0.669" stop-color="#F3F3F3"/>
<stop offset="0.8" stop-color="#FCFCFC"/>
<stop offset="1" stop-color="white"/>
</linearGradient>
<linearGradient id="paint2_linear_2_15103" x1="0.563679" y1="479.995" x2="1.65704" y2="479.995" gradientUnits="userSpaceOnUse">
<stop stop-color="#65676A"/>
<stop offset="0.184" stop-color="#65676A"/>
<stop offset="0.196" stop-color="#6B6D70"/>
<stop offset="0.278" stop-color="#929395"/>
<stop offset="0.365" stop-color="#B4B5B6"/>
<stop offset="0.458" stop-color="#CFD0D0"/>
<stop offset="0.558" stop-color="#E4E4E5"/>
<stop offset="0.669" stop-color="#F3F3F3"/>
<stop offset="0.8" stop-color="#FCFCFC"/>
<stop offset="1" stop-color="white"/>
</linearGradient>
<linearGradient id="paint3_linear_2_15103" x1="0.576408" y1="479.995" x2="1.64539" y2="479.995" gradientUnits="userSpaceOnUse">
<stop stop-color="#65676A"/>
<stop offset="0.184" stop-color="#65676A"/>
<stop offset="0.196" stop-color="#6B6D70"/>
<stop offset="0.278" stop-color="#929395"/>
<stop offset="0.365" stop-color="#B4B5B6"/>
<stop offset="0.458" stop-color="#CFD0D0"/>
<stop offset="0.558" stop-color="#E4E4E5"/>
<stop offset="0.669" stop-color="#F3F3F3"/>
<stop offset="0.8" stop-color="#FCFCFC"/>
<stop offset="1" stop-color="white"/>
</linearGradient>
<linearGradient id="paint4_linear_2_15103" x1="0.581411" y1="479.995" x2="1.65875" y2="479.995" gradientUnits="userSpaceOnUse">
<stop stop-color="#65676A"/>
<stop offset="0.184" stop-color="#65676A"/>
<stop offset="0.196" stop-color="#6B6D70"/>
<stop offset="0.278" stop-color="#929395"/>
<stop offset="0.365" stop-color="#B4B5B6"/>
<stop offset="0.458" stop-color="#CFD0D0"/>
<stop offset="0.558" stop-color="#E4E4E5"/>
<stop offset="0.669" stop-color="#F3F3F3"/>
<stop offset="0.8" stop-color="#FCFCFC"/>
<stop offset="1" stop-color="white"/>
</linearGradient>
<linearGradient id="paint5_linear_2_15103" x1="0.586435" y1="479.995" x2="1.65621" y2="479.995" gradientUnits="userSpaceOnUse">
<stop stop-color="#65676A"/>
<stop offset="0.184" stop-color="#65676A"/>
<stop offset="0.196" stop-color="#6B6D70"/>
<stop offset="0.278" stop-color="#929395"/>
<stop offset="0.365" stop-color="#B4B5B6"/>
<stop offset="0.458" stop-color="#CFD0D0"/>
<stop offset="0.558" stop-color="#E4E4E5"/>
<stop offset="0.669" stop-color="#F3F3F3"/>
<stop offset="0.8" stop-color="#FCFCFC"/>
<stop offset="1" stop-color="white"/>
</linearGradient>
<linearGradient id="paint6_linear_2_15103" x1="0.572602" y1="479.995" x2="1.64163" y2="479.995" gradientUnits="userSpaceOnUse">
<stop stop-color="#65676A"/>
<stop offset="0.184" stop-color="#65676A"/>
<stop offset="0.196" stop-color="#6B6D70"/>
<stop offset="0.278" stop-color="#929395"/>
<stop offset="0.365" stop-color="#B4B5B6"/>
<stop offset="0.458" stop-color="#CFD0D0"/>
<stop offset="0.558" stop-color="#E4E4E5"/>
<stop offset="0.669" stop-color="#F3F3F3"/>
<stop offset="0.8" stop-color="#FCFCFC"/>
<stop offset="1" stop-color="white"/>
</linearGradient>
<linearGradient id="paint7_linear_2_15103" x1="0.582698" y1="479.995" x2="1.65579" y2="479.995" gradientUnits="userSpaceOnUse">
<stop stop-color="#65676A"/>
<stop offset="0.184" stop-color="#65676A"/>
<stop offset="0.196" stop-color="#6B6D70"/>
<stop offset="0.278" stop-color="#929395"/>
<stop offset="0.365" stop-color="#B4B5B6"/>
<stop offset="0.458" stop-color="#CFD0D0"/>
<stop offset="0.558" stop-color="#E4E4E5"/>
<stop offset="0.669" stop-color="#F3F3F3"/>
<stop offset="0.8" stop-color="#FCFCFC"/>
<stop offset="1" stop-color="white"/>
</linearGradient>
<linearGradient id="paint8_linear_2_15103" x1="0.586075" y1="479.995" x2="1.65916" y2="479.995" gradientUnits="userSpaceOnUse">
<stop stop-color="#65676A"/>
<stop offset="0.184" stop-color="#65676A"/>
<stop offset="0.196" stop-color="#6B6D70"/>
<stop offset="0.278" stop-color="#929395"/>
<stop offset="0.365" stop-color="#B4B5B6"/>
<stop offset="0.458" stop-color="#CFD0D0"/>
<stop offset="0.558" stop-color="#E4E4E5"/>
<stop offset="0.669" stop-color="#F3F3F3"/>
<stop offset="0.8" stop-color="#FCFCFC"/>
<stop offset="1" stop-color="white"/>
</linearGradient>
<linearGradient id="paint9_linear_2_15103" x1="0.580754" y1="479.995" x2="1.66369" y2="479.995" gradientUnits="userSpaceOnUse">
<stop stop-color="#65676A"/>
<stop offset="0.184" stop-color="#65676A"/>
<stop offset="0.196" stop-color="#6B6D70"/>
<stop offset="0.278" stop-color="#929395"/>
<stop offset="0.365" stop-color="#B4B5B6"/>
<stop offset="0.458" stop-color="#CFD0D0"/>
<stop offset="0.558" stop-color="#E4E4E5"/>
<stop offset="0.669" stop-color="#F3F3F3"/>
<stop offset="0.8" stop-color="#FCFCFC"/>
<stop offset="1" stop-color="white"/>
</linearGradient>
<linearGradient id="paint10_linear_2_15103" x1="0.588185" y1="479.977" x2="1.66057" y2="479.977" gradientUnits="userSpaceOnUse">
<stop stop-color="#65676A"/>
<stop offset="0.184" stop-color="#65676A"/>
<stop offset="0.196" stop-color="#6B6D70"/>
<stop offset="0.278" stop-color="#929395"/>
<stop offset="0.365" stop-color="#B4B5B6"/>
<stop offset="0.458" stop-color="#CFD0D0"/>
<stop offset="0.558" stop-color="#E4E4E5"/>
<stop offset="0.669" stop-color="#F3F3F3"/>
<stop offset="0.8" stop-color="#FCFCFC"/>
<stop offset="1" stop-color="white"/>
</linearGradient>
</defs>
</svg>
