<svg width="392" height="480" viewBox="0 0 392 480" fill="none" xmlns="http://www.w3.org/2000/svg">
<mask id="mask0_2_17702" style="mask-type:luminance" maskUnits="userSpaceOnUse" x="48" y="0" width="294" height="322">
<path d="M341.934 0.13501H48.8301V321.85H341.934V0.13501Z" fill="white"/>
</mask>
<g mask="url(#mask0_2_17702)">
<path d="M263.078 197.787L206.978 238.557C206.69 238.767 206.349 238.892 205.994 238.92C205.639 238.948 205.283 238.878 204.965 238.716C204.648 238.554 204.381 238.308 204.195 238.004C204.009 237.7 203.91 237.35 203.91 236.994V205.249C203.91 204.943 203.982 204.642 204.122 204.37C204.261 204.097 204.462 203.862 204.71 203.683L236.964 180.373C237.2 180.203 237.394 179.982 237.533 179.726C237.671 179.47 237.75 179.187 237.764 178.896L243.37 56.861C243.393 56.3644 243.606 55.8956 243.965 55.5521C244.325 55.2087 244.803 55.017 245.3 55.017H268.589C268.851 55.017 269.109 55.0701 269.35 55.173C269.59 55.2759 269.807 55.4265 269.988 55.6158C270.168 55.805 270.308 56.0289 270.4 56.2739C270.491 56.5189 270.532 56.7799 270.519 57.041L263.872 196.316C263.859 196.605 263.781 196.887 263.644 197.142C263.507 197.396 263.315 197.617 263.081 197.787" fill="white"/>
<path d="M287.867 45.257L338.867 8.17503C339.155 7.96548 339.496 7.83975 339.851 7.81174C340.206 7.78372 340.562 7.85451 340.88 8.01628C341.197 8.17805 341.464 8.42449 341.65 8.72836C341.836 9.03222 341.935 9.38166 341.935 9.73803V41.482C341.935 41.7877 341.862 42.0891 341.723 42.3613C341.584 42.6336 341.383 42.8689 341.135 43.048L313.983 62.674C313.747 62.844 313.553 63.065 313.414 63.3205C313.276 63.5761 313.196 63.8596 313.183 64.15L308.523 164.134C308.509 164.424 308.43 164.708 308.292 164.964C308.153 165.219 307.959 165.44 307.723 165.61L283.867 182.847C283.572 183.06 283.223 183.186 282.861 183.209C282.498 183.233 282.136 183.154 281.816 182.981C281.496 182.808 281.231 182.548 281.052 182.232C280.874 181.915 280.788 181.554 280.805 181.191L287.074 46.73C287.087 46.441 287.165 46.1585 287.302 45.9036C287.439 45.6486 287.631 45.4277 287.865 45.257" fill="white"/>
<path d="M127.686 197.787L183.786 238.557C184.074 238.767 184.415 238.892 184.77 238.92C185.126 238.948 185.482 238.878 185.799 238.716C186.117 238.554 186.383 238.308 186.57 238.004C186.756 237.7 186.854 237.35 186.854 236.994V205.249C186.854 204.943 186.782 204.642 186.643 204.37C186.504 204.097 186.302 203.862 186.054 203.683L153.8 180.372C153.564 180.202 153.37 179.981 153.231 179.725C153.093 179.469 153.014 179.186 153 178.895L147.396 56.861C147.374 56.3644 147.16 55.8956 146.801 55.5521C146.441 55.2087 145.963 55.017 145.466 55.017H122.18C121.919 55.017 121.66 55.0701 121.42 55.173C121.179 55.2759 120.962 55.4265 120.782 55.6158C120.601 55.805 120.461 56.0289 120.37 56.2739C120.278 56.5189 120.238 56.7799 120.25 57.041L126.892 196.316C126.906 196.605 126.983 196.887 127.12 197.142C127.257 197.396 127.45 197.617 127.683 197.787" fill="white"/>
<path d="M102.897 45.541L51.8971 8.45801C51.6087 8.24908 51.2681 8.12389 50.9131 8.09625C50.558 8.06862 50.2022 8.13961 49.8849 8.3014C49.5677 8.46319 49.3013 8.70948 49.1151 9.0131C48.929 9.31673 48.8303 9.66587 48.8301 10.022V41.766C48.8301 42.0718 48.9026 42.3733 49.0417 42.6457C49.1807 42.9181 49.3824 43.1536 49.6301 43.333L76.7821 62.958C77.0179 63.1279 77.2124 63.3489 77.3509 63.6045C77.4894 63.8601 77.5684 64.1436 77.5821 64.434L82.2421 164.134C82.2557 164.424 82.3348 164.708 82.4733 164.964C82.6118 165.219 82.8062 165.44 83.0421 165.61L106.9 182.847C107.195 183.06 107.543 183.185 107.906 183.209C108.269 183.232 108.631 183.153 108.95 182.98C109.27 182.807 109.535 182.547 109.713 182.231C109.892 181.915 109.978 181.554 109.961 181.191L103.691 47.014C103.678 46.7249 103.6 46.4425 103.463 46.1875C103.326 45.9326 103.134 45.7116 102.9 45.541" fill="white"/>
<path d="M214.93 259.901C214.763 259.6 214.518 259.349 214.221 259.174C213.924 258.999 213.586 258.907 213.241 258.907H177.526C177.182 258.907 176.843 258.999 176.546 259.173C176.249 259.348 176.004 259.599 175.837 259.9L165.224 279C165.06 279.294 164.977 279.626 164.981 279.962C164.985 280.299 165.076 280.628 165.247 280.918C165.418 281.208 165.661 281.449 165.953 281.616C166.245 281.783 166.576 281.871 166.912 281.871H195.381H223.85C224.186 281.871 224.517 281.783 224.809 281.616C225.101 281.449 225.344 281.209 225.515 280.919C225.686 280.629 225.778 280.3 225.782 279.963C225.786 279.627 225.702 279.295 225.539 279.001L214.93 259.901Z" fill="white"/>
<path d="M244.417 299.879C244.249 299.578 244.005 299.327 243.708 299.152C243.411 298.977 243.072 298.885 242.728 298.885L195.386 298.879L148.044 298.874C147.699 298.874 147.361 298.966 147.064 299.14C146.767 299.315 146.522 299.566 146.355 299.867L135.742 318.967C135.578 319.261 135.494 319.593 135.498 319.929C135.502 320.266 135.594 320.595 135.765 320.885C135.935 321.175 136.178 321.416 136.47 321.583C136.763 321.75 137.093 321.838 137.43 321.838L195.383 321.845L253.337 321.852C253.673 321.852 254.004 321.764 254.296 321.597C254.588 321.43 254.831 321.19 255.002 320.9C255.172 320.61 255.264 320.281 255.268 319.944C255.273 319.608 255.189 319.276 255.026 318.982L244.417 299.879Z" fill="white"/>
<path d="M197.176 109.605L218.933 56.205C219.124 55.7367 219.124 55.2123 218.933 54.744L197.176 1.33402C197.031 0.978498 196.783 0.674233 196.464 0.460047C196.146 0.245861 195.771 0.13147 195.387 0.13147C195.003 0.13147 194.628 0.245861 194.309 0.460047C193.99 0.674233 193.743 0.978498 193.598 1.33402L171.835 54.746C171.644 55.2143 171.644 55.7387 171.835 56.207L193.595 109.607C193.74 109.963 193.987 110.267 194.306 110.481C194.625 110.695 195 110.81 195.384 110.81C195.768 110.81 196.143 110.695 196.461 110.481C196.78 110.267 197.028 109.963 197.173 109.607" fill="white"/>
</g>
<mask id="mask1_2_17702" style="mask-type:luminance" maskUnits="userSpaceOnUse" x="54" y="338" width="282" height="52">
<path d="M335.426 338.115H54.4258V389.308H335.426V338.115Z" fill="white"/>
</mask>
<g mask="url(#mask1_2_17702)">
<path d="M67.369 388.241C66.9038 388.493 66.3718 388.593 65.847 388.528H55.78C54.695 388.528 54.258 388.054 54.48 387.107L62.611 352.367C63.0238 350.627 63.6559 348.947 64.492 347.367C65.3386 345.745 66.4607 344.283 67.808 343.046C69.2462 341.74 70.9177 340.717 72.735 340.031C74.8591 339.239 77.1133 338.854 79.38 338.895H100.937C101.504 338.895 101.85 338.98 101.978 339.147C102.106 339.314 102.072 339.792 101.884 340.595L100.012 348.606C99.9448 349.068 99.7447 349.501 99.436 349.852C99.1066 350.091 98.7025 350.204 98.297 350.17H80.786C79.9815 350.144 79.1797 350.276 78.426 350.558C77.8655 350.769 77.3548 351.093 76.926 351.511C76.5591 351.879 76.2644 352.313 76.057 352.789C75.857 353.246 75.6984 353.72 75.583 354.205L74.558 358.605H93.202C93.769 358.605 94.112 358.705 94.237 358.887C94.362 359.069 94.323 359.577 94.137 360.378L92.404 367.752C92.151 368.837 91.575 369.386 90.677 369.386H72.031L67.88 387.11C67.8173 387.528 67.6393 387.921 67.366 388.244" fill="white"/>
<path d="M144.451 363.639C143.613 367.344 142.341 370.937 140.663 374.345C139.183 377.36 137.189 380.094 134.769 382.423C132.393 384.666 129.586 386.403 126.519 387.529C123.065 388.759 119.418 389.36 115.752 389.302C112.48 389.407 109.223 388.816 106.197 387.567C103.804 386.537 101.799 384.775 100.469 382.535C99.1121 380.065 98.383 377.299 98.3459 374.481C98.2578 370.875 98.6588 367.274 99.5379 363.776C100.373 360.097 101.694 356.546 103.468 353.216C105.065 350.194 107.141 347.451 109.615 345.093C111.991 342.859 114.775 341.103 117.815 339.92C121.048 338.688 124.484 338.076 127.944 338.116C131.218 338.004 134.476 338.619 137.484 339.916C139.893 341.012 141.92 342.802 143.306 345.056C144.716 347.51 145.493 350.277 145.567 353.106C145.688 356.65 145.313 360.194 144.453 363.635M130.324 363.709C130.697 361.967 130.956 360.203 131.1 358.427C131.25 356.967 131.152 355.492 130.811 354.064C130.526 352.907 129.871 351.875 128.944 351.126C127.822 350.331 126.463 349.943 125.091 350.026C123.729 350.022 122.392 350.39 121.224 351.089C119.977 351.835 118.882 352.81 117.998 353.963C116.999 355.258 116.168 356.674 115.524 358.178C114.809 359.801 114.248 361.488 113.848 363.216C113.38 365.148 113.062 367.113 112.899 369.094C112.749 370.583 112.879 372.087 113.282 373.528C113.603 374.656 114.296 375.642 115.247 376.328C116.382 377.051 117.714 377.4 119.058 377.328C120.519 377.35 121.957 376.965 123.211 376.216C124.46 375.451 125.541 374.439 126.386 373.242C127.346 371.895 128.13 370.43 128.718 368.884C129.375 367.198 129.91 365.467 130.318 363.704" fill="white"/>
<path d="M236.16 361.443C237.263 361.94 238.241 362.678 239.021 363.602C239.728 364.464 240.268 365.451 240.613 366.511C240.954 367.588 241.12 368.712 241.104 369.841C241.098 370.999 240.959 372.152 240.691 373.278C240.179 375.506 239.241 377.614 237.928 379.486C236.618 381.353 235.001 382.984 233.144 384.309C231.248 385.669 229.148 386.721 226.923 387.426C224.629 388.163 222.233 388.534 219.823 388.526H201.389C199.45 388.526 198.289 388.164 197.889 387.426C197.478 386.269 197.474 385.007 197.877 383.848L207.306 343.571C207.542 342.273 208.12 341.062 208.98 340.063C209.72 339.286 211.071 338.892 213.005 338.892H231.442C233.394 338.874 235.339 339.113 237.228 339.603C238.821 340.001 240.294 340.779 241.52 341.87C242.665 342.942 243.476 344.322 243.855 345.843C244.277 347.764 244.222 349.76 243.695 351.655C243.204 353.626 242.267 355.459 240.956 357.011C239.672 358.643 238.078 360.005 236.265 361.019L236.16 361.443ZM217.515 357.187H224.915C225.884 357.177 226.836 356.933 227.689 356.476C228.181 356.179 228.601 355.777 228.919 355.298C229.238 354.82 229.446 354.277 229.53 353.709C229.676 353.297 229.718 352.855 229.653 352.422C229.588 351.99 229.419 351.58 229.159 351.228C228.849 350.923 228.476 350.689 228.066 350.542C227.656 350.395 227.219 350.338 226.785 350.376H219.11L217.515 357.187ZM227.079 372.358C227.254 371.799 227.305 371.208 227.228 370.627C227.152 370.046 226.949 369.489 226.634 368.994C226.241 368.525 225.739 368.159 225.171 367.93C224.603 367.701 223.987 367.616 223.378 367.681H215.057L212.887 376.967H221.208C222.04 376.988 222.867 376.844 223.643 376.545C224.289 376.277 224.88 375.892 225.386 375.411C225.839 374.978 226.219 374.474 226.51 373.919C226.76 373.423 226.952 372.9 227.081 372.36" fill="white"/>
<path d="M278.483 388.526H256.573C254.301 388.635 252.033 388.223 249.944 387.32C248.501 386.645 247.3 385.544 246.502 384.165C245.779 382.825 245.409 381.323 245.428 379.801C245.426 378.201 245.61 376.607 245.976 375.05L251.287 352.365C251.7 350.625 252.333 348.945 253.169 347.365C254.017 345.744 255.139 344.282 256.485 343.044C257.924 341.74 259.594 340.717 261.41 340.03C263.534 339.238 265.787 338.853 268.052 338.893H288.968C289.54 338.893 289.881 338.979 290.007 339.146C290.133 339.313 290.107 339.795 289.917 340.593L288.049 348.612C287.979 349.072 287.776 349.502 287.466 349.85C287.139 350.09 286.735 350.202 286.33 350.168H269.454C268.651 350.142 267.85 350.275 267.097 350.559C266.536 350.771 266.025 351.098 265.597 351.518C265.231 351.885 264.936 352.317 264.728 352.792C264.532 353.25 264.373 353.724 264.254 354.208L263.554 357.185H282.564C283.129 357.185 283.474 357.285 283.599 357.467C283.712 357.965 283.674 358.485 283.491 358.961L281.768 366.333C281.511 367.418 280.934 367.961 280.036 367.961H261.036L259.793 373.279C259.596 373.971 259.534 374.694 259.61 375.409C259.664 375.86 259.882 376.276 260.222 376.576C260.58 376.85 261.004 377.023 261.451 377.076C262.008 377.147 262.568 377.181 263.128 377.176H281.143C281.71 377.176 282.056 377.262 282.184 377.429C282.312 377.596 282.284 378.078 282.095 378.877L280.218 386.895C279.963 387.98 279.381 388.523 278.488 388.523" fill="white"/>
<path d="M331.554 350.169H319.431L310.8 387.038C310.733 387.467 310.554 387.871 310.282 388.21C309.819 388.482 309.279 388.594 308.746 388.528H298.676C297.591 388.528 297.167 388.031 297.404 387.038L306.031 350.169H294.186C293.193 350.169 292.824 349.626 293.081 348.541L294.938 340.598C294.995 340.057 295.226 339.548 295.597 339.15C295.973 338.954 296.397 338.868 296.82 338.901H334.19C334.576 338.853 334.967 338.941 335.296 339.15C335.472 339.317 335.465 339.798 335.277 340.602L333.421 348.545C333.374 349.002 333.155 349.425 332.808 349.727C332.461 350.029 332.013 350.189 331.553 350.173" fill="white"/>
<path d="M164.42 361.657L158.358 387.037C158.293 387.467 158.114 387.871 157.839 388.208C157.378 388.482 156.84 388.594 156.308 388.528H146.239C145.148 388.528 144.722 388.031 144.961 387.037L155.118 344.503C155.649 342.282 156.368 340.79 157.288 340.033C158.564 339.171 160.096 338.77 161.63 338.898H165.316C165.925 338.892 166.534 338.928 167.139 339.004C167.61 339.064 168.066 339.209 168.486 339.43C168.913 339.666 169.283 339.992 169.571 340.386C169.96 340.92 170.299 341.489 170.584 342.086L177.101 357.257L180.567 365.906H181.067L187.15 340.388C187.221 339.958 187.402 339.554 187.677 339.216C188.136 338.943 188.674 338.831 189.204 338.898H199.273C200.358 338.898 200.787 339.398 200.547 340.388L190.396 382.925C190.077 384.395 189.409 385.768 188.448 386.925C187.534 387.992 186.012 388.525 183.883 388.525H180.199C179.602 388.53 179.006 388.495 178.414 388.418C177.93 388.363 177.461 388.22 177.028 387.996C176.594 387.755 176.214 387.429 175.91 387.036C175.507 386.517 175.178 385.945 174.93 385.336L168.49 370.448L164.915 361.657H164.42Z" fill="white"/>
</g>
<path d="M31.2891 448.694L18.113 431.426L29.442 415.755H19.4601L8.58005 430.679V415.756H-0.00195312V448.695H8.58005V432.275L21.1071 448.695L31.2891 448.694ZM53.897 415.755L47.7581 431.077L41.07 415.755H31.488L43.118 440.163C41.867 441.095 40.3348 441.571 38.7761 441.511C38.5271 441.511 37.6281 441.461 36.0811 441.411V448.696C37.547 449.085 39.0564 449.287 40.5731 449.296C45.0161 449.146 47.8101 447.649 49.5561 445.253C50.6503 443.633 51.5863 441.912 52.351 440.113L63.1811 415.758L53.897 415.755ZM66.5741 448.694H81.946C88.337 448.694 93.075 444.452 93.075 438.313C93.075 432.274 88.484 428.331 81.946 428.331H75.1581V423.49H90.1801V415.754H66.5741V448.694ZM75.1561 441.457V435.219H81.3951C83.595 435.219 84.689 436.267 84.689 438.313C84.7199 438.747 84.6545 439.182 84.4977 439.588C84.3408 439.994 84.0964 440.36 83.7817 440.66C83.4671 440.96 83.09 441.187 82.6775 441.325C82.2649 441.463 81.827 441.508 81.3951 441.457H75.1561ZM96.017 432.224C95.817 441.658 104.002 449.442 113.734 449.292C123.366 449.442 131.749 441.656 131.551 432.224C131.751 422.841 123.366 414.956 113.734 415.156C104.104 414.956 95.82 422.842 96.019 432.224H96.017ZM122.767 432.224C122.767 437.664 118.974 441.407 113.784 441.407C112.59 441.45 111.399 441.251 110.284 440.822C109.169 440.392 108.152 439.741 107.296 438.907C104.002 435.463 103.952 428.975 107.296 425.582C108.143 424.733 109.157 424.068 110.274 423.63C111.39 423.192 112.585 422.99 113.784 423.037C114.989 423.008 116.187 423.228 117.303 423.681C118.419 424.135 119.43 424.814 120.273 425.675C121.116 426.537 121.773 427.562 122.202 428.688C122.632 429.814 122.825 431.016 122.77 432.22L122.767 432.224ZM167.736 448.693L154.561 431.426L165.89 415.755H155.909L145.031 430.679V415.756H136.449V448.695H145.031V432.275L157.558 448.695L167.736 448.693ZM185.102 448.693H193.684V438.463H198.03C205.267 438.463 210.756 433.722 210.756 427.082C210.756 420.295 205.416 415.753 198.03 415.753H185.102V448.693ZM193.684 430.976V423.24H198.084C198.599 423.228 199.112 423.32 199.591 423.509C200.071 423.698 200.508 423.981 200.877 424.341C201.245 424.702 201.538 425.132 201.738 425.607C201.938 426.082 202.041 426.593 202.041 427.108C202.041 427.623 201.938 428.134 201.738 428.609C201.538 429.084 201.245 429.514 200.877 429.875C200.508 430.235 200.071 430.518 199.591 430.707C199.112 430.896 198.599 430.988 198.084 430.976H193.684ZM213.697 432.224C213.497 441.657 221.687 449.442 231.419 449.292C241.051 449.443 249.431 441.658 249.231 432.225C249.431 422.842 241.046 414.957 231.415 415.159C221.782 414.959 213.498 422.842 213.697 432.225V432.224ZM240.447 432.224C240.447 437.664 236.654 441.407 231.464 441.407C230.27 441.45 229.079 441.251 227.964 440.822C226.849 440.392 225.832 439.741 224.976 438.907C221.682 435.463 221.632 428.975 224.976 425.582C225.823 424.733 226.837 424.068 227.954 423.63C229.07 423.192 230.265 422.99 231.464 423.037C232.669 423.008 233.867 423.227 234.984 423.681C236.1 424.135 237.111 424.813 237.954 425.675C238.797 426.536 239.454 427.561 239.884 428.688C240.314 429.814 240.507 431.016 240.452 432.22L240.447 432.224ZM252.425 432.224C252.225 441.658 260.459 449.442 270.192 449.292C273.285 449.377 276.341 448.596 279.014 447.036C281.686 445.475 283.869 443.199 285.315 440.463L278.777 436.02C276.631 439.611 273.786 441.41 270.195 441.41C267.786 441.47 265.453 440.57 263.707 438.91C262.028 437.116 261.129 434.728 261.207 432.272C261.207 426.734 264.95 423.039 270.19 423.039C273.781 423.039 276.628 424.839 278.772 428.429L285.31 423.986C283.871 421.259 281.698 418.987 279.037 417.428C276.376 415.869 273.333 415.085 270.25 415.163C260.465 414.963 252.28 422.796 252.43 432.229L252.425 432.224ZM288.259 432.224C288.059 441.663 296.293 449.443 306.031 449.293C309.124 449.377 312.178 448.595 314.849 447.035C317.521 445.474 319.702 443.198 321.148 440.463L314.61 436.02C312.464 439.611 309.619 441.41 306.028 441.41C303.619 441.47 301.286 440.57 299.54 438.91C297.861 437.116 296.962 434.728 297.04 432.272C297.04 426.734 300.783 423.039 306.023 423.039C309.614 423.039 312.461 424.839 314.605 428.429L321.143 423.986C319.704 421.258 317.531 418.986 314.869 417.427C312.208 415.868 309.164 415.084 306.08 415.163C296.299 414.963 288.113 422.796 288.265 432.229L288.259 432.224ZM352.494 415.163L334.631 432.674V415.754H326.046V449.293H328.791L346.658 431.576V448.694H355.24V415.163H352.494ZM388.278 415.163L370.411 432.674V415.754H361.831V449.293H364.576L382.441 431.576V448.694H391.023V415.163H388.278Z" fill="white"/>
<path d="M29.1319 479.734H32.9009V468.669H37.9619V479.734H41.7309V465.273H29.1309L29.1319 479.734ZM43.8779 472.503C43.8861 473.509 44.095 474.503 44.4924 475.427C44.8897 476.351 45.4676 477.186 46.192 477.884C46.9164 478.582 47.7728 479.128 48.711 479.491C49.6493 479.854 50.6504 480.025 51.6559 479.996C52.6628 480.023 53.6651 479.85 54.6047 479.487C55.5443 479.124 56.4027 478.578 57.1301 477.881C57.8575 477.185 58.4395 476.35 58.8425 475.427C59.2455 474.504 59.4614 473.51 59.4779 472.503C59.4614 471.496 59.2455 470.502 58.8425 469.579C58.4395 468.656 57.8575 467.821 57.1301 467.125C56.4027 466.428 55.5443 465.882 54.6047 465.519C53.6651 465.156 52.6628 464.983 51.6559 465.01C50.6513 464.984 49.6517 465.158 48.715 465.522C47.7783 465.886 46.9233 466.433 46.1996 467.13C45.476 467.827 44.898 468.661 44.4995 469.583C44.1009 470.506 43.8896 471.498 43.8779 472.503ZM55.6249 472.503C55.6524 473.032 55.5699 473.561 55.3826 474.057C55.1954 474.553 54.9074 475.004 54.5369 475.383C54.1662 475.762 53.721 476.06 53.2295 476.258C52.7379 476.456 52.2106 476.55 51.6809 476.534C51.1564 476.553 50.6337 476.465 50.1442 476.276C49.6547 476.087 49.2086 475.8 48.8329 475.434C48.1281 474.623 47.7401 473.584 47.7401 472.509C47.7401 471.434 48.1281 470.396 48.8329 469.584C49.2047 469.211 49.6497 468.92 50.1399 468.727C50.6301 468.535 51.1547 468.446 51.6809 468.467C52.2094 468.455 52.7348 468.552 53.2244 468.751C53.714 468.951 54.1573 469.249 54.5269 469.627C54.8974 470.005 55.1863 470.455 55.3755 470.949C55.5647 471.443 55.6503 471.97 55.6269 472.499L55.6249 472.503ZM81.4979 479.734L75.7159 472.153L80.6899 465.275H76.3079L71.5289 471.821V465.273H67.7589V479.734H71.5279V472.525L77.0279 479.734H81.4979ZM81.1469 472.503C81.1551 473.509 81.364 474.503 81.7614 475.427C82.1587 476.351 82.7365 477.186 83.461 477.884C84.1854 478.582 85.0418 479.128 85.98 479.491C86.9182 479.854 87.9194 480.025 88.9249 479.996C89.9319 480.023 90.9343 479.85 91.874 479.487C92.8138 479.124 93.6722 478.579 94.3997 477.882C95.1272 477.185 95.7093 476.351 96.1124 475.428C96.5154 474.504 96.7314 473.51 96.7479 472.503C96.7314 471.496 96.5155 470.502 96.1125 469.579C95.7095 468.656 95.1275 467.821 94.4001 467.125C93.6727 466.428 92.8143 465.882 91.8747 465.519C90.9351 465.156 89.9328 464.983 88.9259 465.01C87.9213 464.984 86.9216 465.158 85.9849 465.522C85.0481 465.886 84.1931 466.432 83.4694 467.129C82.7458 467.826 82.1679 468.661 81.7696 469.583C81.3712 470.506 81.1602 471.498 81.1489 472.503H81.1469ZM92.8939 472.503C92.9213 473.032 92.8388 473.561 92.6516 474.057C92.4643 474.553 92.1763 475.004 91.8059 475.383C91.4352 475.762 90.9901 476.06 90.4985 476.258C90.0069 476.456 89.4796 476.55 88.9499 476.534C88.4254 476.553 87.9027 476.465 87.4132 476.276C86.9237 476.087 86.4776 475.8 86.1019 475.434C85.3971 474.623 85.0091 473.584 85.0091 472.509C85.0091 471.434 85.3971 470.396 86.1019 469.584C86.4737 469.211 86.9188 468.92 87.4089 468.727C87.8991 468.535 88.4237 468.446 88.9499 468.467C89.4784 468.455 90.0038 468.552 90.4934 468.751C90.983 468.951 91.4263 469.249 91.7959 469.627C92.1664 470.005 92.4553 470.455 92.6446 470.949C92.8338 471.443 92.9194 471.97 92.8959 472.499L92.8939 472.503ZM112.416 465.01L106.259 472.525L100.102 465.01H98.8979V479.734H102.667V473.687L105.649 477.171H106.854L109.854 473.665V479.734H113.623V465.01H112.416ZM116.51 479.734H120.278V468.669H125.339V479.734H129.108V465.273H116.508L116.51 479.734ZM132.001 479.734H138.048C141.291 479.734 143.635 477.74 143.635 474.76C143.635 471.846 141.225 469.76 138.048 469.76H135.769V465.273H131.998L132.001 479.734ZM135.77 476.447V473.047H138.07C138.373 473.039 138.673 473.112 138.938 473.259C139.204 473.406 139.425 473.622 139.579 473.883C139.733 474.144 139.814 474.442 139.814 474.746C139.814 475.049 139.733 475.347 139.579 475.608C139.425 475.869 139.204 476.085 138.938 476.232C138.673 476.379 138.373 476.452 138.07 476.444L135.77 476.447ZM166.141 472.503C166.134 471.506 165.93 470.52 165.54 469.603C165.151 468.685 164.583 467.854 163.87 467.157C163.156 466.46 162.312 465.911 161.385 465.543C160.458 465.174 159.467 464.993 158.47 465.01C156.815 464.99 155.202 465.525 153.887 466.53C152.573 467.535 151.633 468.951 151.218 470.553H149.531V465.273H145.762V479.734H149.531V473.952H151.109C151.422 475.668 152.334 477.217 153.682 478.323C155.029 479.43 156.726 480.023 158.47 479.997C159.466 480.012 160.456 479.829 161.382 479.46C162.307 479.091 163.151 478.543 163.864 477.846C164.577 477.15 165.144 476.319 165.535 475.402C165.925 474.485 166.131 473.5 166.139 472.504L166.141 472.503ZM158.472 476.535C153.411 476.535 153.411 468.472 158.472 468.472C163.533 468.472 163.532 476.535 158.472 476.535ZM171.179 479.735H174.948V468.669H179.286V465.269H166.841V468.669H171.179V479.735ZM180.951 479.735H191.251V476.335H184.72V473.815H189.19V470.662H184.72V468.662H190.989V465.262H180.952L180.951 479.735ZM193.593 479.735H197.362V475.243H199.268C202.445 475.243 204.855 473.161 204.855 470.243C204.855 467.261 202.511 465.269 199.268 465.269H193.598L193.593 479.735ZM197.362 471.957V468.557H199.29C199.593 468.549 199.893 468.622 200.158 468.769C200.424 468.916 200.645 469.132 200.799 469.393C200.953 469.654 201.034 469.952 201.034 470.256C201.034 470.559 200.953 470.857 200.799 471.118C200.645 471.379 200.424 471.595 200.158 471.742C199.893 471.889 199.593 471.962 199.29 471.954L197.362 471.957ZM206.892 479.735H210.661V473.953H215.943V479.735H219.712V465.273H215.943V470.553H210.663V465.273H206.893L206.892 479.735ZM221.858 472.503C221.866 473.509 222.075 474.503 222.472 475.427C222.869 476.351 223.447 477.187 224.171 477.885C224.896 478.583 225.752 479.129 226.691 479.492C227.629 479.854 228.63 480.026 229.636 479.996C230.643 480.023 231.645 479.85 232.585 479.487C233.524 479.124 234.383 478.578 235.11 477.881C235.837 477.185 236.419 476.35 236.822 475.427C237.225 474.504 237.441 473.51 237.458 472.503C237.441 471.496 237.225 470.502 236.822 469.579C236.419 468.656 235.837 467.821 235.11 467.125C234.383 466.428 233.524 465.882 232.585 465.519C231.645 465.156 230.643 464.983 229.636 465.01C228.631 464.984 227.632 465.158 226.695 465.522C225.758 465.886 224.903 466.432 224.179 467.129C223.456 467.827 222.878 468.661 222.479 469.583C222.081 470.506 221.869 471.498 221.858 472.503ZM233.604 472.503C233.631 473.032 233.549 473.561 233.362 474.057C233.174 474.553 232.886 475.004 232.516 475.383C232.145 475.762 231.7 476.06 231.208 476.258C230.717 476.456 230.19 476.55 229.66 476.534C229.135 476.553 228.613 476.465 228.123 476.276C227.634 476.087 227.188 475.8 226.812 475.434C226.107 474.623 225.719 473.584 225.719 472.509C225.719 471.434 226.107 470.396 226.812 469.584C227.184 469.211 227.629 468.92 228.119 468.727C228.609 468.535 229.134 468.446 229.66 468.467C230.188 468.455 230.714 468.552 231.203 468.751C231.693 468.951 232.136 469.249 232.506 469.627C232.875 470.006 233.163 470.457 233.351 470.951C233.539 471.446 233.623 471.974 233.598 472.503H233.604ZM253.124 465.01L246.967 472.525L240.81 465.01H239.605V479.734H243.374V473.687L246.356 477.171H247.561L250.561 473.665V479.734H254.33V465.01H253.124ZM265.657 465.273L262.957 472L260.02 465.273H255.814L260.919 475.985C260.37 476.394 259.697 476.603 259.013 476.577C258.904 476.577 258.513 476.555 257.83 476.533V479.733C258.473 479.904 259.136 479.992 259.802 479.996C260.553 480.037 261.303 479.897 261.99 479.588C262.676 479.279 263.278 478.81 263.746 478.221C264.226 477.51 264.637 476.754 264.973 475.964L269.728 465.272L265.657 465.273ZM275.517 472.504C275.527 473.511 275.738 474.506 276.138 475.43C276.538 476.355 277.117 477.19 277.844 477.888C278.57 478.586 279.428 479.132 280.368 479.494C281.308 479.856 282.31 480.027 283.317 479.997C284.675 480.034 286.017 479.691 287.19 479.005C288.363 478.32 289.321 477.32 289.956 476.119L287.086 474.171C286.738 474.875 286.201 475.469 285.536 475.887C284.871 476.305 284.102 476.53 283.317 476.537C282.259 476.562 281.235 476.167 280.469 475.437C279.731 474.649 279.336 473.602 279.369 472.523C279.335 471.992 279.413 471.459 279.598 470.959C279.783 470.46 280.07 470.005 280.442 469.623C280.813 469.241 281.261 468.941 281.755 468.743C282.25 468.544 282.78 468.452 283.313 468.471C284.098 468.479 284.866 468.704 285.531 469.122C286.197 469.539 286.733 470.133 287.082 470.837L289.952 468.889C289.32 467.69 288.365 466.692 287.196 466.007C286.027 465.322 284.69 464.977 283.335 465.011C282.327 464.978 281.322 465.148 280.38 465.509C279.439 465.869 278.578 466.415 277.85 467.113C277.122 467.811 276.54 468.647 276.14 469.572C275.739 470.498 275.527 471.494 275.517 472.503V472.504ZM292.103 479.735H295.873V468.669H300.934V479.734H304.703V465.273H292.103V479.735ZM306.849 472.503C306.857 473.509 307.066 474.503 307.463 475.427C307.861 476.351 308.439 477.186 309.163 477.884C309.887 478.582 310.744 479.128 311.682 479.491C312.62 479.854 313.621 480.025 314.627 479.996C315.634 480.023 316.636 479.85 317.576 479.487C318.515 479.124 319.374 478.578 320.101 477.881C320.828 477.185 321.41 476.35 321.813 475.427C322.216 474.504 322.432 473.51 322.449 472.503C322.432 471.496 322.216 470.502 321.813 469.579C321.41 468.656 320.828 467.821 320.101 467.125C319.374 466.428 318.515 465.882 317.576 465.519C316.636 465.156 315.634 464.983 314.627 465.01C313.622 464.984 312.623 465.158 311.686 465.522C310.749 465.886 309.894 466.432 309.17 467.129C308.447 467.827 307.869 468.661 307.47 469.583C307.072 470.506 306.86 471.498 306.849 472.503ZM318.596 472.503C318.623 473.032 318.541 473.561 318.354 474.057C318.166 474.553 317.878 475.004 317.508 475.383C317.137 475.762 316.692 476.06 316.201 476.258C315.709 476.456 315.182 476.55 314.652 476.534C314.127 476.553 313.605 476.465 313.115 476.276C312.626 476.087 312.18 475.8 311.804 475.434C311.099 474.623 310.711 473.584 310.711 472.509C310.711 471.434 311.099 470.396 311.804 469.584C312.176 469.211 312.621 468.92 313.111 468.727C313.601 468.535 314.126 468.446 314.652 468.467C315.181 468.456 315.706 468.553 316.196 468.753C316.685 468.953 317.129 469.252 317.498 469.631C317.868 470.009 318.157 470.459 318.346 470.953C318.536 471.447 318.621 471.974 318.598 472.503H318.596ZM324.596 479.734H328.365V475.242H330.271C333.448 475.242 335.858 473.16 335.858 470.242C335.858 467.26 333.514 465.268 330.271 465.268H324.598L324.596 479.734ZM328.365 471.956V468.556H330.298C330.601 468.548 330.901 468.621 331.166 468.768C331.432 468.915 331.653 469.131 331.807 469.392C331.961 469.653 332.042 469.951 332.042 470.255C332.042 470.558 331.961 470.856 331.807 471.117C331.653 471.378 331.432 471.594 331.166 471.741C330.901 471.888 330.601 471.961 330.298 471.953L328.365 471.956ZM341.008 479.734H344.777V468.669H349.115V465.269H336.669V468.669H341.008V479.734ZM359.215 465.273L356.515 472L353.584 465.273H349.378L354.483 475.985C353.934 476.394 353.261 476.603 352.577 476.577C352.467 476.577 352.077 476.555 351.394 476.533V479.733C352.037 479.904 352.7 479.992 353.366 479.996C354.117 480.037 354.867 479.897 355.554 479.588C356.24 479.279 356.842 478.81 357.31 478.221C357.79 477.51 358.201 476.754 358.537 475.964L363.291 465.273H359.215Z" fill="white"/>
</svg>
